<svg xmlns="http://www.w3.org/2000/svg" xmlns:xlink="http://www.w3.org/1999/xlink" width="500" zoomAndPan="magnify" viewBox="0 0 375 374.999991" height="500" preserveAspectRatio="xMidYMid meet" version="1.0"><defs><clipPath id="f552c057d9"><path d="M 39.179688 185 L 51 185 L 51 374.773438 L 39.179688 374.773438 Z M 39.179688 185 " clip-rule="nonzero"/></clipPath><clipPath id="620cde27a2"><path d="M 324 185 L 335.957031 185 L 335.957031 374.773438 L 324 374.773438 Z M 324 185 " clip-rule="nonzero"/></clipPath><clipPath id="91234b37bf"><path d="M 20.15625 357.019531 L 70 357.019531 L 70 374.773438 L 20.15625 374.773438 Z M 20.15625 357.019531 " clip-rule="nonzero"/></clipPath><clipPath id="15bb49f982"><path d="M 305 357.019531 L 354.644531 357.019531 L 354.644531 374.773438 L 305 374.773438 Z M 305 357.019531 " clip-rule="nonzero"/></clipPath></defs><g clip-path="url(#f552c057d9)"><path fill="#9dab2c" d="M 45.765625 374.773438 L 44.117188 374.773438 C 41.398438 374.773438 39.191406 372.570312 39.191406 369.847656 L 39.191406 190.046875 C 39.191406 187.328125 41.398438 185.117188 44.117188 185.117188 L 45.765625 185.117188 C 48.488281 185.117188 50.691406 187.328125 50.691406 190.046875 L 50.691406 369.847656 C 50.691406 372.570312 48.488281 374.773438 45.765625 374.773438 " fill-opacity="1" fill-rule="nonzero"/></g><path fill="#9dab2c" d="M 330.238281 233.835938 L 330.238281 194.992188 L 44.566406 194.992188 L 44.566406 233.835938 L 330.238281 233.835938 " fill-opacity="1" fill-rule="nonzero"/><g clip-path="url(#620cde27a2)"><path fill="#9dab2c" d="M 329.035156 374.773438 L 330.6875 374.773438 C 333.40625 374.773438 335.613281 372.570312 335.613281 369.847656 L 335.613281 190.046875 C 335.613281 187.328125 333.40625 185.117188 330.6875 185.117188 L 329.035156 185.117188 C 326.316406 185.117188 324.109375 187.328125 324.109375 190.046875 L 324.109375 369.847656 C 324.109375 372.570312 326.316406 374.773438 329.035156 374.773438 " fill-opacity="1" fill-rule="nonzero"/></g><path fill="#9dab2c" d="M 271.121094 199.09375 L 271.121094 160.25 L 103.679688 160.25 L 103.679688 199.09375 L 271.121094 199.09375 " fill-opacity="1" fill-rule="nonzero"/><path fill="#e0e0de" d="M 246.863281 330.75 C 246.863281 328.425781 244.980469 326.546875 242.660156 326.546875 L 132.140625 326.546875 C 129.824219 326.546875 127.941406 328.425781 127.941406 330.75 C 127.941406 333.066406 129.824219 334.949219 132.140625 334.949219 L 242.660156 334.949219 C 244.980469 334.949219 246.863281 333.066406 246.863281 330.75 " fill-opacity="1" fill-rule="nonzero"/><path fill="#e0e0de" d="M 228.421875 349.375 C 228.421875 347.054688 226.539062 345.171875 224.21875 345.171875 L 150.585938 345.171875 C 148.265625 345.171875 146.382812 347.054688 146.382812 349.375 C 146.382812 351.699219 148.265625 353.578125 150.585938 353.578125 L 224.21875 353.578125 C 226.539062 353.578125 228.421875 351.699219 228.421875 349.375 " fill-opacity="1" fill-rule="nonzero"/><path fill="#e0e0de" d="M 213.945312 368.003906 C 213.945312 365.683594 212.066406 363.800781 209.746094 363.800781 L 165.058594 363.800781 C 162.738281 363.800781 160.855469 365.683594 160.855469 368.003906 C 160.855469 370.328125 162.738281 372.207031 165.058594 372.207031 L 209.746094 372.207031 C 212.066406 372.207031 213.945312 370.328125 213.945312 368.003906 " fill-opacity="1" fill-rule="nonzero"/><path fill="#ffce00" d="M 62.164062 256.492188 L 27.71875 256.492188 C 26.511719 256.492188 25.53125 255.511719 25.53125 254.304688 L 25.53125 174.527344 C 25.53125 173.316406 26.511719 172.335938 27.71875 172.335938 L 62.164062 172.335938 C 63.375 172.335938 64.355469 173.316406 64.355469 174.527344 L 64.355469 254.304688 C 64.355469 255.511719 63.375 256.492188 62.164062 256.492188 " fill-opacity="1" fill-rule="nonzero"/><path fill="#ffce00" d="M 347.460938 256.492188 L 313.015625 256.492188 C 311.804688 256.492188 310.824219 255.511719 310.824219 254.304688 L 310.824219 174.527344 C 310.824219 173.316406 311.804688 172.335938 313.015625 172.335938 L 347.460938 172.335938 C 348.671875 172.335938 349.648438 173.316406 349.648438 174.527344 L 349.648438 254.304688 C 349.648438 255.511719 348.671875 256.492188 347.460938 256.492188 " fill-opacity="1" fill-rule="nonzero"/><g clip-path="url(#91234b37bf)"><path fill="#ffce00" d="M 68.605469 374.773438 L 21.277344 374.773438 C 20.65625 374.773438 20.15625 374.273438 20.15625 373.652344 L 20.15625 358.589844 C 20.15625 357.96875 20.65625 357.464844 21.277344 357.464844 L 68.605469 357.464844 C 69.226562 357.464844 69.726562 357.96875 69.726562 358.589844 L 69.726562 373.652344 C 69.726562 374.273438 69.226562 374.773438 68.605469 374.773438 " fill-opacity="1" fill-rule="nonzero"/></g><path fill="#ffce00" d="M 58.972656 362.488281 L 30.914062 362.488281 C 30.433594 362.488281 30.042969 362.097656 30.042969 361.617188 L 30.042969 346.046875 C 30.042969 345.570312 30.433594 345.175781 30.914062 345.175781 L 58.972656 345.175781 C 59.449219 345.175781 59.839844 345.570312 59.839844 346.046875 L 59.839844 361.617188 C 59.839844 362.097656 59.449219 362.488281 58.972656 362.488281 " fill-opacity="1" fill-rule="nonzero"/><path fill="#ffce00" d="M 53.109375 350.203125 L 36.773438 350.203125 C 36.40625 350.203125 36.105469 349.898438 36.105469 349.53125 L 36.105469 333.5625 C 36.105469 333.191406 36.40625 332.890625 36.773438 332.890625 L 53.109375 332.890625 C 53.476562 332.890625 53.78125 333.191406 53.78125 333.5625 L 53.78125 349.53125 C 53.78125 349.898438 53.476562 350.203125 53.109375 350.203125 " fill-opacity="1" fill-rule="nonzero"/><g clip-path="url(#15bb49f982)"><path fill="#ffce00" d="M 353.527344 374.773438 L 306.195312 374.773438 C 305.578125 374.773438 305.074219 374.273438 305.074219 373.652344 L 305.074219 358.589844 C 305.074219 357.96875 305.578125 357.464844 306.195312 357.464844 L 353.527344 357.464844 C 354.144531 357.464844 354.648438 357.96875 354.648438 358.589844 L 354.648438 373.652344 C 354.648438 374.273438 354.144531 374.773438 353.527344 374.773438 " fill-opacity="1" fill-rule="nonzero"/></g><path fill="#ffce00" d="M 343.890625 362.488281 L 315.835938 362.488281 C 315.355469 362.488281 314.964844 362.097656 314.964844 361.617188 L 314.964844 346.046875 C 314.964844 345.570312 315.355469 345.175781 315.835938 345.175781 L 343.890625 345.175781 C 344.371094 345.175781 344.757812 345.570312 344.757812 346.046875 L 344.757812 361.617188 C 344.757812 362.097656 344.371094 362.488281 343.890625 362.488281 " fill-opacity="1" fill-rule="nonzero"/><path fill="#ffce00" d="M 338.027344 350.203125 L 321.695312 350.203125 C 321.324219 350.203125 321.027344 349.898438 321.027344 349.53125 L 321.027344 333.5625 C 321.027344 333.191406 321.324219 332.890625 321.695312 332.890625 L 338.027344 332.890625 C 338.398438 332.890625 338.699219 333.191406 338.699219 333.5625 L 338.699219 349.53125 C 338.699219 349.898438 338.398438 350.203125 338.027344 350.203125 " fill-opacity="1" fill-rule="nonzero"/><path fill="#d9db27" d="M 286.59375 161.398438 L 286.59375 99.5 C 286.59375 44.6875 242.183594 0.253906 187.402344 0.253906 C 132.621094 0.253906 88.210938 44.6875 88.210938 99.5 L 88.210938 162.484375 C 88.210938 166.839844 91.738281 170.371094 96.089844 170.371094 L 277.625 170.371094 C 282.578125 170.371094 286.59375 166.355469 286.59375 161.398438 " fill-opacity="1" fill-rule="nonzero"/><path fill="#ffffff" d="M 155.601562 30.929688 C 153.785156 30.929688 152.050781 29.894531 151.246094 28.136719 C 150.148438 25.734375 151.203125 22.890625 153.605469 21.789062 C 164.242188 16.914062 175.613281 14.441406 187.402344 14.441406 C 190.046875 14.441406 192.1875 16.582031 192.1875 19.226562 C 192.1875 21.871094 190.046875 24.015625 187.402344 24.015625 C 176.996094 24.015625 166.96875 26.195312 157.589844 30.496094 C 156.945312 30.789062 156.265625 30.929688 155.601562 30.929688 " fill-opacity="1" fill-rule="nonzero"/><path fill="#ffffff" d="M 216.339844 29.6875 C 215.738281 29.6875 215.125 29.574219 214.53125 29.332031 C 211.941406 28.269531 209.257812 27.351562 206.558594 26.601562 C 204.011719 25.898438 202.519531 23.261719 203.222656 20.710938 C 203.929688 18.164062 206.566406 16.671875 209.113281 17.375 C 212.175781 18.222656 215.21875 19.265625 218.15625 20.46875 C 220.601562 21.46875 221.773438 24.265625 220.773438 26.714844 C 220.011719 28.566406 218.226562 29.6875 216.339844 29.6875 " fill-opacity="1" fill-rule="nonzero"/><path fill="#d9db27" d="M 88.210938 192.890625 L 88.210938 299.238281 C 88.210938 307.246094 94.699219 313.742188 102.703125 313.742188 L 272.101562 313.742188 C 280.105469 313.742188 286.59375 307.246094 286.59375 299.238281 L 286.59375 193.980469 C 286.59375 189.023438 282.578125 185.007812 277.625 185.007812 L 96.089844 185.007812 C 91.738281 185.007812 88.210938 188.539062 88.210938 192.890625 " fill-opacity="1" fill-rule="nonzero"/><path fill="#9dab2c" d="M 151.964844 97.695312 C 151.964844 78.117188 167.832031 62.238281 187.402344 62.238281 C 206.972656 62.238281 222.839844 78.117188 222.839844 97.695312 C 222.839844 117.28125 206.972656 133.152344 187.402344 133.152344 C 167.832031 133.152344 151.964844 117.28125 151.964844 97.695312 " fill-opacity="1" fill-rule="nonzero"/><path fill="#404a54" d="M 161.410156 97.695312 C 161.410156 83.332031 173.046875 71.6875 187.402344 71.6875 C 201.757812 71.6875 213.394531 83.332031 213.394531 97.695312 C 213.394531 112.0625 201.757812 123.703125 187.402344 123.703125 C 173.046875 123.703125 161.410156 112.0625 161.410156 97.695312 " fill-opacity="1" fill-rule="nonzero"/><path fill="#ffffff" d="M 186.316406 91.457031 C 186.316406 87.523438 189.5 84.332031 193.433594 84.332031 C 197.367188 84.332031 200.554688 87.523438 200.554688 91.457031 C 200.554688 95.390625 197.367188 98.582031 193.433594 98.582031 C 189.5 98.582031 186.316406 95.390625 186.316406 91.457031 " fill-opacity="1" fill-rule="nonzero"/><path fill="#9dab2c" d="M 184.625 49.226562 C 184.625 46.691406 186.679688 44.640625 189.210938 44.640625 C 191.742188 44.640625 193.796875 46.691406 193.796875 49.226562 C 193.796875 51.761719 191.742188 53.8125 189.210938 53.8125 C 186.679688 53.8125 184.625 51.761719 184.625 49.226562 " fill-opacity="1" fill-rule="nonzero"/><path fill="#9dab2c" d="M 148.714844 49.226562 C 148.714844 46.691406 150.765625 44.640625 153.296875 44.640625 C 155.832031 44.640625 157.882812 46.691406 157.882812 49.226562 C 157.882812 51.761719 155.832031 53.8125 153.296875 53.8125 C 150.765625 53.8125 148.714844 51.761719 148.714844 49.226562 " fill-opacity="1" fill-rule="nonzero"/><path fill="#9dab2c" d="M 112.800781 49.226562 C 112.800781 46.691406 114.851562 44.640625 117.386719 44.640625 C 119.917969 44.640625 121.972656 46.691406 121.972656 49.226562 C 121.972656 51.761719 119.917969 53.8125 117.386719 53.8125 C 114.851562 53.8125 112.800781 51.761719 112.800781 49.226562 " fill-opacity="1" fill-rule="nonzero"/><path fill="#9dab2c" d="M 220.542969 49.226562 C 220.542969 46.691406 222.59375 44.640625 225.125 44.640625 C 227.65625 44.640625 229.710938 46.691406 229.710938 49.226562 C 229.710938 51.761719 227.65625 53.8125 225.125 53.8125 C 222.59375 53.8125 220.542969 51.761719 220.542969 49.226562 " fill-opacity="1" fill-rule="nonzero"/><path fill="#9dab2c" d="M 256.453125 49.226562 C 256.453125 46.691406 258.507812 44.640625 261.039062 44.640625 C 263.570312 44.640625 265.625 46.691406 265.625 49.226562 C 265.625 51.761719 263.570312 53.8125 261.039062 53.8125 C 258.507812 53.8125 256.453125 51.761719 256.453125 49.226562 " fill-opacity="1" fill-rule="nonzero"/><path fill="#9dab2c" d="M 184.625 289.734375 C 184.625 287.199219 186.679688 285.148438 189.210938 285.148438 C 191.742188 285.148438 193.796875 287.199219 193.796875 289.734375 C 193.796875 292.269531 191.742188 294.324219 189.210938 294.324219 C 186.679688 294.324219 184.625 292.269531 184.625 289.734375 " fill-opacity="1" fill-rule="nonzero"/><path fill="#9dab2c" d="M 148.714844 289.734375 C 148.714844 287.199219 150.765625 285.148438 153.296875 285.148438 C 155.832031 285.148438 157.882812 287.199219 157.882812 289.734375 C 157.882812 292.269531 155.832031 294.324219 153.296875 294.324219 C 150.765625 294.324219 148.714844 292.269531 148.714844 289.734375 " fill-opacity="1" fill-rule="nonzero"/><path fill="#9dab2c" d="M 112.800781 289.734375 C 112.800781 287.199219 114.851562 285.148438 117.386719 285.148438 C 119.917969 285.148438 121.972656 287.199219 121.972656 289.734375 C 121.972656 292.269531 119.917969 294.324219 117.386719 294.324219 C 114.851562 294.324219 112.800781 292.269531 112.800781 289.734375 " fill-opacity="1" fill-rule="nonzero"/><path fill="#9dab2c" d="M 220.542969 289.734375 C 220.542969 287.199219 222.59375 285.148438 225.125 285.148438 C 227.65625 285.148438 229.710938 287.199219 229.710938 289.734375 C 229.710938 292.269531 227.65625 294.324219 225.125 294.324219 C 222.59375 294.324219 220.542969 292.269531 220.542969 289.734375 " fill-opacity="1" fill-rule="nonzero"/><path fill="#9dab2c" d="M 256.453125 289.734375 C 256.453125 287.199219 258.507812 285.148438 261.039062 285.148438 C 263.570312 285.148438 265.625 287.199219 265.625 289.734375 C 265.625 292.269531 263.570312 294.324219 261.039062 294.324219 C 258.507812 294.324219 256.453125 292.269531 256.453125 289.734375 " fill-opacity="1" fill-rule="nonzero"/><path fill="#86acf7" d="M 216.722656 257.324219 L 155.90625 257.324219 C 151.785156 257.324219 148.441406 253.976562 148.441406 249.855469 L 148.441406 224.175781 C 148.441406 220.050781 151.785156 216.707031 155.90625 216.707031 L 216.722656 216.707031 C 220.84375 216.707031 224.183594 220.050781 224.183594 224.175781 L 224.183594 249.855469 C 224.183594 253.976562 220.84375 257.324219 216.722656 257.324219 " fill-opacity="1" fill-rule="nonzero"/><path fill="#ffffff" d="M 111.953125 241.527344 L 105.996094 241.527344 C 105.351562 241.527344 104.832031 241.007812 104.832031 240.363281 L 104.832031 233.667969 C 104.832031 233.023438 105.351562 232.503906 105.996094 232.503906 L 111.953125 232.503906 C 112.59375 232.503906 113.117188 233.023438 113.117188 233.667969 L 113.117188 240.363281 C 113.117188 241.007812 112.59375 241.527344 111.953125 241.527344 " fill-opacity="1" fill-rule="nonzero"/><path fill="#ffffff" d="M 127.09375 241.527344 L 121.136719 241.527344 C 120.492188 241.527344 119.972656 241.007812 119.972656 240.363281 L 119.972656 233.667969 C 119.972656 233.023438 120.492188 232.503906 121.136719 232.503906 L 127.09375 232.503906 C 127.738281 232.503906 128.257812 233.023438 128.257812 233.667969 L 128.257812 240.363281 C 128.257812 241.007812 127.738281 241.527344 127.09375 241.527344 " fill-opacity="1" fill-rule="nonzero"/><path fill="#ffffff" d="M 251.664062 241.527344 L 245.707031 241.527344 C 245.0625 241.527344 244.542969 241.007812 244.542969 240.363281 L 244.542969 233.667969 C 244.542969 233.023438 245.0625 232.503906 245.707031 232.503906 L 251.664062 232.503906 C 252.308594 232.503906 252.828125 233.023438 252.828125 233.667969 L 252.828125 240.363281 C 252.828125 241.007812 252.308594 241.527344 251.664062 241.527344 " fill-opacity="1" fill-rule="nonzero"/><path fill="#ffffff" d="M 266.804688 241.527344 L 260.847656 241.527344 C 260.207031 241.527344 259.683594 241.007812 259.683594 240.363281 L 259.683594 233.667969 C 259.683594 233.023438 260.207031 232.503906 260.847656 232.503906 L 266.804688 232.503906 C 267.449219 232.503906 267.96875 233.023438 267.96875 233.667969 L 267.96875 240.363281 C 267.96875 241.007812 267.449219 241.527344 266.804688 241.527344 " fill-opacity="1" fill-rule="nonzero"/><path fill="#5c91e5" d="M 194.445312 216.707031 L 175.304688 216.707031 L 160.765625 257.324219 L 179.90625 257.324219 L 194.445312 216.707031 " fill-opacity="1" fill-rule="nonzero"/><path fill="#5c91e5" d="M 212.445312 216.707031 L 203.398438 216.707031 L 188.855469 257.324219 L 197.902344 257.324219 L 212.445312 216.707031 " fill-opacity="1" fill-rule="nonzero"/><path fill="#404a54" d="M 186.890625 160.636719 C 176.609375 160.636719 167.019531 155.097656 161.867188 146.1875 C 160.542969 143.898438 161.324219 140.96875 163.613281 139.644531 C 165.902344 138.320312 168.828125 139.105469 170.148438 141.390625 C 173.597656 147.355469 180.015625 151.058594 186.890625 151.058594 C 193.320312 151.058594 199.3125 147.871094 202.917969 142.53125 C 204.398438 140.339844 207.371094 139.765625 209.5625 141.246094 C 211.75 142.726562 212.328125 145.703125 210.847656 147.894531 C 205.457031 155.871094 196.5 160.636719 186.890625 160.636719 " fill-opacity="1" fill-rule="nonzero"/><path fill="#9dab2c" d="M 155.589844 218.53125 C 153.769531 218.53125 152.289062 220.015625 152.289062 221.835938 L 152.289062 252.191406 C 152.289062 254.015625 153.769531 255.5 155.589844 255.5 L 217.035156 255.5 C 218.855469 255.5 220.339844 254.015625 220.339844 252.191406 L 220.339844 221.835938 C 220.339844 220.015625 218.855469 218.53125 217.035156 218.53125 Z M 217.035156 265.074219 L 155.589844 265.074219 C 148.492188 265.074219 142.71875 259.296875 142.71875 252.191406 L 142.71875 221.835938 C 142.71875 214.734375 148.492188 208.957031 155.589844 208.957031 L 217.035156 208.957031 C 224.136719 208.957031 229.910156 214.734375 229.910156 221.835938 L 229.910156 252.191406 C 229.910156 259.296875 224.136719 265.074219 217.035156 265.074219 " fill-opacity="1" fill-rule="nonzero"/><path fill="#9dab2c" d="M 119.152344 125.550781 L 119.152344 102.25 C 119.152344 91.398438 110.328125 82.570312 99.484375 82.570312 L 89.652344 82.570312 C 89.113281 85.714844 88.71875 88.90625 88.480469 92.144531 L 99.484375 92.144531 C 105.050781 92.144531 109.582031 96.679688 109.582031 102.25 L 109.582031 125.550781 C 109.582031 131.121094 105.050781 135.652344 99.484375 135.652344 L 88.210938 135.652344 L 88.210938 145.230469 L 99.484375 145.230469 C 110.328125 145.230469 119.152344 136.402344 119.152344 125.550781 " fill-opacity="1" fill-rule="nonzero"/><path fill="#9dab2c" d="M 275.324219 92.144531 L 286.324219 92.144531 C 286.085938 88.90625 285.691406 85.714844 285.152344 82.570312 L 275.324219 82.570312 C 264.476562 82.570312 255.652344 91.398438 255.652344 102.25 L 255.652344 125.550781 C 255.652344 136.402344 264.476562 145.230469 275.324219 145.230469 L 286.59375 145.230469 L 286.59375 135.652344 L 275.324219 135.652344 C 269.753906 135.652344 265.222656 131.121094 265.222656 125.550781 L 265.222656 102.25 C 265.222656 96.679688 269.753906 92.144531 275.324219 92.144531 " fill-opacity="1" fill-rule="nonzero"/></svg>