<svg xmlns="http://www.w3.org/2000/svg" xmlns:xlink="http://www.w3.org/1999/xlink" width="500" zoomAndPan="magnify" viewBox="0 0 375 374.999991" height="500" preserveAspectRatio="xMidYMid meet" version="1.0"><defs><clipPath id="ef8c83e616"><path d="M 15 217 L 69 217 L 69 249 L 15 249 Z M 15 217 " clip-rule="nonzero"/></clipPath><clipPath id="45c9573f0c"><path d="M -95.597656 193.53125 L 187.597656 -89.664062 L 470.792969 193.53125 L 187.597656 476.730469 Z M -95.597656 193.53125 " clip-rule="nonzero"/></clipPath><clipPath id="897ff6cf4b"><path d="M -95.597656 193.53125 L 187.597656 -89.664062 L 470.792969 193.53125 L 187.597656 476.730469 Z M -95.597656 193.53125 " clip-rule="nonzero"/></clipPath><clipPath id="f517ff30b0"><path d="M -95.597656 193.53125 L 187.597656 -89.664062 L 470.792969 193.53125 L 187.597656 476.730469 Z M -95.597656 193.53125 " clip-rule="nonzero"/></clipPath><clipPath id="bd1024276b"><path d="M 8 259 L 51 259 L 51 298 L 8 298 Z M 8 259 " clip-rule="nonzero"/></clipPath><clipPath id="4e76a0ab3a"><path d="M -95.597656 193.53125 L 187.597656 -89.664062 L 470.792969 193.53125 L 187.597656 476.730469 Z M -95.597656 193.53125 " clip-rule="nonzero"/></clipPath><clipPath id="e47eb2baaf"><path d="M -95.597656 193.53125 L 187.597656 -89.664062 L 470.792969 193.53125 L 187.597656 476.730469 Z M -95.597656 193.53125 " clip-rule="nonzero"/></clipPath><clipPath id="88bc9aac83"><path d="M -95.597656 193.53125 L 187.597656 -89.664062 L 470.792969 193.53125 L 187.597656 476.730469 Z M -95.597656 193.53125 " clip-rule="nonzero"/></clipPath><clipPath id="c086d4e2f0"><path d="M 51 256 L 90 256 L 90 279 L 51 279 Z M 51 256 " clip-rule="nonzero"/></clipPath><clipPath id="cb43510a8e"><path d="M -95.597656 193.53125 L 187.597656 -89.664062 L 470.792969 193.53125 L 187.597656 476.730469 Z M -95.597656 193.53125 " clip-rule="nonzero"/></clipPath><clipPath id="1dca665e4c"><path d="M -95.597656 193.53125 L 187.597656 -89.664062 L 470.792969 193.53125 L 187.597656 476.730469 Z M -95.597656 193.53125 " clip-rule="nonzero"/></clipPath><clipPath id="5cd27a7a99"><path d="M -95.597656 193.53125 L 187.597656 -89.664062 L 470.792969 193.53125 L 187.597656 476.730469 Z M -95.597656 193.53125 " clip-rule="nonzero"/></clipPath><clipPath id="c40217784b"><path d="M 46 203 L 149 203 L 149 239 L 46 239 Z M 46 203 " clip-rule="nonzero"/></clipPath><clipPath id="2c1442c3b3"><path d="M -95.597656 193.53125 L 187.597656 -89.664062 L 470.792969 193.53125 L 187.597656 476.730469 Z M -95.597656 193.53125 " clip-rule="nonzero"/></clipPath><clipPath id="aa6d8c71b2"><path d="M -95.597656 193.53125 L 187.597656 -89.664062 L 470.792969 193.53125 L 187.597656 476.730469 Z M -95.597656 193.53125 " clip-rule="nonzero"/></clipPath><clipPath id="9bcbce97c0"><path d="M -95.597656 193.53125 L 187.597656 -89.664062 L 470.792969 193.53125 L 187.597656 476.730469 Z M -95.597656 193.53125 " clip-rule="nonzero"/></clipPath><clipPath id="975df4ad4a"><path d="M 33 227 L 125 227 L 125 279 L 33 279 Z M 33 227 " clip-rule="nonzero"/></clipPath><clipPath id="b2e12262ef"><path d="M -95.597656 193.53125 L 187.597656 -89.664062 L 470.792969 193.53125 L 187.597656 476.730469 Z M -95.597656 193.53125 " clip-rule="nonzero"/></clipPath><clipPath id="155d3d87c9"><path d="M -95.597656 193.53125 L 187.597656 -89.664062 L 470.792969 193.53125 L 187.597656 476.730469 Z M -95.597656 193.53125 " clip-rule="nonzero"/></clipPath><clipPath id="a20874452c"><path d="M -95.597656 193.53125 L 187.597656 -89.664062 L 470.792969 193.53125 L 187.597656 476.730469 Z M -95.597656 193.53125 " clip-rule="nonzero"/></clipPath><clipPath id="3fcad1553e"><path d="M 211 21 L 243 21 L 243 75 L 211 75 Z M 211 21 " clip-rule="nonzero"/></clipPath><clipPath id="505b92d458"><path d="M -95.597656 193.53125 L 187.597656 -89.664062 L 470.792969 193.53125 L 187.597656 476.730469 Z M -95.597656 193.53125 " clip-rule="nonzero"/></clipPath><clipPath id="c72b505f9a"><path d="M -95.597656 193.53125 L 187.597656 -89.664062 L 470.792969 193.53125 L 187.597656 476.730469 Z M -95.597656 193.53125 " clip-rule="nonzero"/></clipPath><clipPath id="afa2240164"><path d="M -95.597656 193.53125 L 187.597656 -89.664062 L 470.792969 193.53125 L 187.597656 476.730469 Z M -95.597656 193.53125 " clip-rule="nonzero"/></clipPath><clipPath id="2a74dea4a5"><path d="M 253 14 L 292 14 L 292 57 L 253 57 Z M 253 14 " clip-rule="nonzero"/></clipPath><clipPath id="1c52060747"><path d="M -95.597656 193.53125 L 187.597656 -89.664062 L 470.792969 193.53125 L 187.597656 476.730469 Z M -95.597656 193.53125 " clip-rule="nonzero"/></clipPath><clipPath id="523399e6e7"><path d="M -95.597656 193.53125 L 187.597656 -89.664062 L 470.792969 193.53125 L 187.597656 476.730469 Z M -95.597656 193.53125 " clip-rule="nonzero"/></clipPath><clipPath id="923b86dec1"><path d="M -95.597656 193.53125 L 187.597656 -89.664062 L 470.792969 193.53125 L 187.597656 476.730469 Z M -95.597656 193.53125 " clip-rule="nonzero"/></clipPath><clipPath id="4d38528511"><path d="M 251 57 L 273 57 L 273 96 L 251 96 Z M 251 57 " clip-rule="nonzero"/></clipPath><clipPath id="258664801d"><path d="M -95.597656 193.53125 L 187.597656 -89.664062 L 470.792969 193.53125 L 187.597656 476.730469 Z M -95.597656 193.53125 " clip-rule="nonzero"/></clipPath><clipPath id="209359564e"><path d="M -95.597656 193.53125 L 187.597656 -89.664062 L 470.792969 193.53125 L 187.597656 476.730469 Z M -95.597656 193.53125 " clip-rule="nonzero"/></clipPath><clipPath id="d024fa1878"><path d="M -95.597656 193.53125 L 187.597656 -89.664062 L 470.792969 193.53125 L 187.597656 476.730469 Z M -95.597656 193.53125 " clip-rule="nonzero"/></clipPath><clipPath id="6f12c4a698"><path d="M 197 52 L 233 52 L 233 155 L 197 155 Z M 197 52 " clip-rule="nonzero"/></clipPath><clipPath id="3289b78a51"><path d="M -95.597656 193.53125 L 187.597656 -89.664062 L 470.792969 193.53125 L 187.597656 476.730469 Z M -95.597656 193.53125 " clip-rule="nonzero"/></clipPath><clipPath id="58f33b9ce9"><path d="M -95.597656 193.53125 L 187.597656 -89.664062 L 470.792969 193.53125 L 187.597656 476.730469 Z M -95.597656 193.53125 " clip-rule="nonzero"/></clipPath><clipPath id="9241e8e438"><path d="M -95.597656 193.53125 L 187.597656 -89.664062 L 470.792969 193.53125 L 187.597656 476.730469 Z M -95.597656 193.53125 " clip-rule="nonzero"/></clipPath><clipPath id="0e913b5aef"><path d="M 221 39 L 273 39 L 273 131 L 221 131 Z M 221 39 " clip-rule="nonzero"/></clipPath><clipPath id="b5d222693f"><path d="M -95.597656 193.53125 L 187.597656 -89.664062 L 470.792969 193.53125 L 187.597656 476.730469 Z M -95.597656 193.53125 " clip-rule="nonzero"/></clipPath><clipPath id="c76b8b7451"><path d="M -95.597656 193.53125 L 187.597656 -89.664062 L 470.792969 193.53125 L 187.597656 476.730469 Z M -95.597656 193.53125 " clip-rule="nonzero"/></clipPath><clipPath id="ffe0e98e32"><path d="M -95.597656 193.53125 L 187.597656 -89.664062 L 470.792969 193.53125 L 187.597656 476.730469 Z M -95.597656 193.53125 " clip-rule="nonzero"/></clipPath><clipPath id="66801984df"><path d="M 132 312 L 164 312 L 164 366 L 132 366 Z M 132 312 " clip-rule="nonzero"/></clipPath><clipPath id="ecd40ba03d"><path d="M -95.597656 193.53125 L 187.597656 -89.664062 L 470.792969 193.53125 L 187.597656 476.730469 Z M -95.597656 193.53125 " clip-rule="nonzero"/></clipPath><clipPath id="595f1ac3e2"><path d="M -95.597656 193.53125 L 187.597656 -89.664062 L 470.792969 193.53125 L 187.597656 476.730469 Z M -95.597656 193.53125 " clip-rule="nonzero"/></clipPath><clipPath id="4993ce4672"><path d="M -95.597656 193.53125 L 187.597656 -89.664062 L 470.792969 193.53125 L 187.597656 476.730469 Z M -95.597656 193.53125 " clip-rule="nonzero"/></clipPath><clipPath id="b9a2be6d88"><path d="M 83 330 L 122 330 L 122 374 L 83 374 Z M 83 330 " clip-rule="nonzero"/></clipPath><clipPath id="9c45c691b7"><path d="M -95.597656 193.53125 L 187.597656 -89.664062 L 470.792969 193.53125 L 187.597656 476.730469 Z M -95.597656 193.53125 " clip-rule="nonzero"/></clipPath><clipPath id="19f94ec0ad"><path d="M -95.597656 193.53125 L 187.597656 -89.664062 L 470.792969 193.53125 L 187.597656 476.730469 Z M -95.597656 193.53125 " clip-rule="nonzero"/></clipPath><clipPath id="04fc3d43ed"><path d="M -95.597656 193.53125 L 187.597656 -89.664062 L 470.792969 193.53125 L 187.597656 476.730469 Z M -95.597656 193.53125 " clip-rule="nonzero"/></clipPath><clipPath id="9704924b51"><path d="M 102 291 L 125 291 L 125 330 L 102 330 Z M 102 291 " clip-rule="nonzero"/></clipPath><clipPath id="b2aafc7d33"><path d="M -95.597656 193.53125 L 187.597656 -89.664062 L 470.792969 193.53125 L 187.597656 476.730469 Z M -95.597656 193.53125 " clip-rule="nonzero"/></clipPath><clipPath id="4580ed4577"><path d="M -95.597656 193.53125 L 187.597656 -89.664062 L 470.792969 193.53125 L 187.597656 476.730469 Z M -95.597656 193.53125 " clip-rule="nonzero"/></clipPath><clipPath id="9f2a66f411"><path d="M -95.597656 193.53125 L 187.597656 -89.664062 L 470.792969 193.53125 L 187.597656 476.730469 Z M -95.597656 193.53125 " clip-rule="nonzero"/></clipPath><clipPath id="adcede9c79"><path d="M 142 232 L 178 232 L 178 335 L 142 335 Z M 142 232 " clip-rule="nonzero"/></clipPath><clipPath id="bbc0acf43a"><path d="M -95.597656 193.53125 L 187.597656 -89.664062 L 470.792969 193.53125 L 187.597656 476.730469 Z M -95.597656 193.53125 " clip-rule="nonzero"/></clipPath><clipPath id="e6f99b4afe"><path d="M -95.597656 193.53125 L 187.597656 -89.664062 L 470.792969 193.53125 L 187.597656 476.730469 Z M -95.597656 193.53125 " clip-rule="nonzero"/></clipPath><clipPath id="530736510a"><path d="M -95.597656 193.53125 L 187.597656 -89.664062 L 470.792969 193.53125 L 187.597656 476.730469 Z M -95.597656 193.53125 " clip-rule="nonzero"/></clipPath><clipPath id="73d8c3b4bb"><path d="M 102 256 L 154 256 L 154 348 L 102 348 Z M 102 256 " clip-rule="nonzero"/></clipPath><clipPath id="b637702299"><path d="M -95.597656 193.53125 L 187.597656 -89.664062 L 470.792969 193.53125 L 187.597656 476.730469 Z M -95.597656 193.53125 " clip-rule="nonzero"/></clipPath><clipPath id="51fa35b85a"><path d="M -95.597656 193.53125 L 187.597656 -89.664062 L 470.792969 193.53125 L 187.597656 476.730469 Z M -95.597656 193.53125 " clip-rule="nonzero"/></clipPath><clipPath id="0f71d0ca03"><path d="M -95.597656 193.53125 L 187.597656 -89.664062 L 470.792969 193.53125 L 187.597656 476.730469 Z M -95.597656 193.53125 " clip-rule="nonzero"/></clipPath><clipPath id="810e5ec320"><path d="M 306 138 L 360 138 L 360 170 L 306 170 Z M 306 138 " clip-rule="nonzero"/></clipPath><clipPath id="c7601145ec"><path d="M -95.597656 193.53125 L 187.597656 -89.664062 L 470.792969 193.53125 L 187.597656 476.730469 Z M -95.597656 193.53125 " clip-rule="nonzero"/></clipPath><clipPath id="25ff376d09"><path d="M -95.597656 193.53125 L 187.597656 -89.664062 L 470.792969 193.53125 L 187.597656 476.730469 Z M -95.597656 193.53125 " clip-rule="nonzero"/></clipPath><clipPath id="de67e1b815"><path d="M -95.597656 193.53125 L 187.597656 -89.664062 L 470.792969 193.53125 L 187.597656 476.730469 Z M -95.597656 193.53125 " clip-rule="nonzero"/></clipPath><clipPath id="0f892ea360"><path d="M 324 89 L 368 89 L 368 128 L 324 128 Z M 324 89 " clip-rule="nonzero"/></clipPath><clipPath id="3f1bd592b2"><path d="M -95.597656 193.53125 L 187.597656 -89.664062 L 470.792969 193.53125 L 187.597656 476.730469 Z M -95.597656 193.53125 " clip-rule="nonzero"/></clipPath><clipPath id="4fc076fbea"><path d="M -95.597656 193.53125 L 187.597656 -89.664062 L 470.792969 193.53125 L 187.597656 476.730469 Z M -95.597656 193.53125 " clip-rule="nonzero"/></clipPath><clipPath id="773040e73e"><path d="M -95.597656 193.53125 L 187.597656 -89.664062 L 470.792969 193.53125 L 187.597656 476.730469 Z M -95.597656 193.53125 " clip-rule="nonzero"/></clipPath><clipPath id="9b7faea8ae"><path d="M 285 108 L 324 108 L 324 131 L 285 131 Z M 285 108 " clip-rule="nonzero"/></clipPath><clipPath id="f9bf7732db"><path d="M -95.597656 193.53125 L 187.597656 -89.664062 L 470.792969 193.53125 L 187.597656 476.730469 Z M -95.597656 193.53125 " clip-rule="nonzero"/></clipPath><clipPath id="f981c22812"><path d="M -95.597656 193.53125 L 187.597656 -89.664062 L 470.792969 193.53125 L 187.597656 476.730469 Z M -95.597656 193.53125 " clip-rule="nonzero"/></clipPath><clipPath id="0df19c17c9"><path d="M -95.597656 193.53125 L 187.597656 -89.664062 L 470.792969 193.53125 L 187.597656 476.730469 Z M -95.597656 193.53125 " clip-rule="nonzero"/></clipPath><clipPath id="dfbcb665ce"><path d="M 226 148 L 330 148 L 330 184 L 226 184 Z M 226 148 " clip-rule="nonzero"/></clipPath><clipPath id="57a37b1de8"><path d="M -95.597656 193.53125 L 187.597656 -89.664062 L 470.792969 193.53125 L 187.597656 476.730469 Z M -95.597656 193.53125 " clip-rule="nonzero"/></clipPath><clipPath id="8c1f6c10f7"><path d="M -95.597656 193.53125 L 187.597656 -89.664062 L 470.792969 193.53125 L 187.597656 476.730469 Z M -95.597656 193.53125 " clip-rule="nonzero"/></clipPath><clipPath id="fe1121067a"><path d="M -95.597656 193.53125 L 187.597656 -89.664062 L 470.792969 193.53125 L 187.597656 476.730469 Z M -95.597656 193.53125 " clip-rule="nonzero"/></clipPath><clipPath id="2b8dec416a"><path d="M 250 108 L 342 108 L 342 160 L 250 160 Z M 250 108 " clip-rule="nonzero"/></clipPath><clipPath id="9dc28aa249"><path d="M -95.597656 193.53125 L 187.597656 -89.664062 L 470.792969 193.53125 L 187.597656 476.730469 Z M -95.597656 193.53125 " clip-rule="nonzero"/></clipPath><clipPath id="446f43556b"><path d="M -95.597656 193.53125 L 187.597656 -89.664062 L 470.792969 193.53125 L 187.597656 476.730469 Z M -95.597656 193.53125 " clip-rule="nonzero"/></clipPath><clipPath id="b9abb733c3"><path d="M -95.597656 193.53125 L 187.597656 -89.664062 L 470.792969 193.53125 L 187.597656 476.730469 Z M -95.597656 193.53125 " clip-rule="nonzero"/></clipPath><clipPath id="29abf6d203"><path d="M 76 82 L 204 82 L 204 209 L 76 209 Z M 76 82 " clip-rule="nonzero"/></clipPath><clipPath id="b4acc7bbfa"><path d="M -95.597656 193.53125 L 187.597656 -89.664062 L 470.792969 193.53125 L 187.597656 476.730469 Z M -95.597656 193.53125 " clip-rule="nonzero"/></clipPath><clipPath id="524d4bec42"><path d="M -95.597656 193.53125 L 187.597656 -89.664062 L 470.792969 193.53125 L 187.597656 476.730469 Z M -95.597656 193.53125 " clip-rule="nonzero"/></clipPath><clipPath id="1c3c0be114"><path d="M -95.597656 193.53125 L 187.597656 -89.664062 L 470.792969 193.53125 L 187.597656 476.730469 Z M -95.597656 193.53125 " clip-rule="nonzero"/></clipPath><clipPath id="32371a0ab0"><path d="M 68 74 L 268 74 L 268 274 L 68 274 Z M 68 74 " clip-rule="nonzero"/></clipPath><clipPath id="b8d755a4a5"><path d="M -95.597656 193.53125 L 187.597656 -89.664062 L 470.792969 193.53125 L 187.597656 476.730469 Z M -95.597656 193.53125 " clip-rule="nonzero"/></clipPath><clipPath id="7159ec5a7a"><path d="M -95.597656 193.53125 L 187.597656 -89.664062 L 470.792969 193.53125 L 187.597656 476.730469 Z M -95.597656 193.53125 " clip-rule="nonzero"/></clipPath><clipPath id="8135fcfb7c"><path d="M -95.597656 193.53125 L 187.597656 -89.664062 L 470.792969 193.53125 L 187.597656 476.730469 Z M -95.597656 193.53125 " clip-rule="nonzero"/></clipPath><clipPath id="033354269f"><path d="M 172 178 L 300 178 L 300 305 L 172 305 Z M 172 178 " clip-rule="nonzero"/></clipPath><clipPath id="de285ba93d"><path d="M -95.597656 193.53125 L 187.597656 -89.664062 L 470.792969 193.53125 L 187.597656 476.730469 Z M -95.597656 193.53125 " clip-rule="nonzero"/></clipPath><clipPath id="89ce54df29"><path d="M -95.597656 193.53125 L 187.597656 -89.664062 L 470.792969 193.53125 L 187.597656 476.730469 Z M -95.597656 193.53125 " clip-rule="nonzero"/></clipPath><clipPath id="b14a18f5f9"><path d="M -95.597656 193.53125 L 187.597656 -89.664062 L 470.792969 193.53125 L 187.597656 476.730469 Z M -95.597656 193.53125 " clip-rule="nonzero"/></clipPath><clipPath id="46579eb1c5"><path d="M 107 113 L 308 113 L 308 314 L 107 314 Z M 107 113 " clip-rule="nonzero"/></clipPath><clipPath id="c6b0a885c4"><path d="M -95.597656 193.53125 L 187.597656 -89.664062 L 470.792969 193.53125 L 187.597656 476.730469 Z M -95.597656 193.53125 " clip-rule="nonzero"/></clipPath><clipPath id="61f632d1de"><path d="M -95.597656 193.53125 L 187.597656 -89.664062 L 470.792969 193.53125 L 187.597656 476.730469 Z M -95.597656 193.53125 " clip-rule="nonzero"/></clipPath><clipPath id="0173e8b58a"><path d="M -95.597656 193.53125 L 187.597656 -89.664062 L 470.792969 193.53125 L 187.597656 476.730469 Z M -95.597656 193.53125 " clip-rule="nonzero"/></clipPath><clipPath id="b5e36fb173"><path d="M 132 21 L 164 21 L 164 75 L 132 75 Z M 132 21 " clip-rule="nonzero"/></clipPath><clipPath id="ebb2a40c99"><path d="M -95.597656 193.53125 L 187.597656 -89.664062 L 470.792969 193.53125 L 187.597656 476.730469 Z M -95.597656 193.53125 " clip-rule="nonzero"/></clipPath><clipPath id="a3fae33f36"><path d="M -95.597656 193.53125 L 187.597656 -89.664062 L 470.792969 193.53125 L 187.597656 476.730469 Z M -95.597656 193.53125 " clip-rule="nonzero"/></clipPath><clipPath id="c3560fbe0a"><path d="M -95.597656 193.53125 L 187.597656 -89.664062 L 470.792969 193.53125 L 187.597656 476.730469 Z M -95.597656 193.53125 " clip-rule="nonzero"/></clipPath><clipPath id="fa541967ed"><path d="M 83 14 L 122 14 L 122 57 L 83 57 Z M 83 14 " clip-rule="nonzero"/></clipPath><clipPath id="34927af6ae"><path d="M -95.597656 193.53125 L 187.597656 -89.664062 L 470.792969 193.53125 L 187.597656 476.730469 Z M -95.597656 193.53125 " clip-rule="nonzero"/></clipPath><clipPath id="188b6209ca"><path d="M -95.597656 193.53125 L 187.597656 -89.664062 L 470.792969 193.53125 L 187.597656 476.730469 Z M -95.597656 193.53125 " clip-rule="nonzero"/></clipPath><clipPath id="ceb5e839cd"><path d="M -95.597656 193.53125 L 187.597656 -89.664062 L 470.792969 193.53125 L 187.597656 476.730469 Z M -95.597656 193.53125 " clip-rule="nonzero"/></clipPath><clipPath id="bdf68b426b"><path d="M 102 57 L 125 57 L 125 96 L 102 96 Z M 102 57 " clip-rule="nonzero"/></clipPath><clipPath id="04eda0c79d"><path d="M -95.597656 193.53125 L 187.597656 -89.664062 L 470.792969 193.53125 L 187.597656 476.730469 Z M -95.597656 193.53125 " clip-rule="nonzero"/></clipPath><clipPath id="76f1f1bd03"><path d="M -95.597656 193.53125 L 187.597656 -89.664062 L 470.792969 193.53125 L 187.597656 476.730469 Z M -95.597656 193.53125 " clip-rule="nonzero"/></clipPath><clipPath id="76c886326b"><path d="M -95.597656 193.53125 L 187.597656 -89.664062 L 470.792969 193.53125 L 187.597656 476.730469 Z M -95.597656 193.53125 " clip-rule="nonzero"/></clipPath><clipPath id="e8dcb3a8dc"><path d="M 142 52 L 178 52 L 178 155 L 142 155 Z M 142 52 " clip-rule="nonzero"/></clipPath><clipPath id="793385c950"><path d="M -95.597656 193.53125 L 187.597656 -89.664062 L 470.792969 193.53125 L 187.597656 476.730469 Z M -95.597656 193.53125 " clip-rule="nonzero"/></clipPath><clipPath id="774f4340d0"><path d="M -95.597656 193.53125 L 187.597656 -89.664062 L 470.792969 193.53125 L 187.597656 476.730469 Z M -95.597656 193.53125 " clip-rule="nonzero"/></clipPath><clipPath id="0b95198df5"><path d="M -95.597656 193.53125 L 187.597656 -89.664062 L 470.792969 193.53125 L 187.597656 476.730469 Z M -95.597656 193.53125 " clip-rule="nonzero"/></clipPath><clipPath id="da03a5275f"><path d="M 102 39 L 154 39 L 154 131 L 102 131 Z M 102 39 " clip-rule="nonzero"/></clipPath><clipPath id="ba2818c154"><path d="M -95.597656 193.53125 L 187.597656 -89.664062 L 470.792969 193.53125 L 187.597656 476.730469 Z M -95.597656 193.53125 " clip-rule="nonzero"/></clipPath><clipPath id="f960ccb026"><path d="M -95.597656 193.53125 L 187.597656 -89.664062 L 470.792969 193.53125 L 187.597656 476.730469 Z M -95.597656 193.53125 " clip-rule="nonzero"/></clipPath><clipPath id="49f0898a36"><path d="M -95.597656 193.53125 L 187.597656 -89.664062 L 470.792969 193.53125 L 187.597656 476.730469 Z M -95.597656 193.53125 " clip-rule="nonzero"/></clipPath><clipPath id="b0d392a0ae"><path d="M 306 217 L 360 217 L 360 249 L 306 249 Z M 306 217 " clip-rule="nonzero"/></clipPath><clipPath id="56d7092d65"><path d="M -95.597656 193.53125 L 187.597656 -89.664062 L 470.792969 193.53125 L 187.597656 476.730469 Z M -95.597656 193.53125 " clip-rule="nonzero"/></clipPath><clipPath id="93ae15a51f"><path d="M -95.597656 193.53125 L 187.597656 -89.664062 L 470.792969 193.53125 L 187.597656 476.730469 Z M -95.597656 193.53125 " clip-rule="nonzero"/></clipPath><clipPath id="f45b20c7b6"><path d="M -95.597656 193.53125 L 187.597656 -89.664062 L 470.792969 193.53125 L 187.597656 476.730469 Z M -95.597656 193.53125 " clip-rule="nonzero"/></clipPath><clipPath id="50d220ac8c"><path d="M 324 259 L 368 259 L 368 298 L 324 298 Z M 324 259 " clip-rule="nonzero"/></clipPath><clipPath id="f7f7ccb05c"><path d="M -95.597656 193.53125 L 187.597656 -89.664062 L 470.792969 193.53125 L 187.597656 476.730469 Z M -95.597656 193.53125 " clip-rule="nonzero"/></clipPath><clipPath id="51bbab1d00"><path d="M -95.597656 193.53125 L 187.597656 -89.664062 L 470.792969 193.53125 L 187.597656 476.730469 Z M -95.597656 193.53125 " clip-rule="nonzero"/></clipPath><clipPath id="353dd413dd"><path d="M -95.597656 193.53125 L 187.597656 -89.664062 L 470.792969 193.53125 L 187.597656 476.730469 Z M -95.597656 193.53125 " clip-rule="nonzero"/></clipPath><clipPath id="1b5283e2bd"><path d="M 285 256 L 324 256 L 324 279 L 285 279 Z M 285 256 " clip-rule="nonzero"/></clipPath><clipPath id="245ccb08b1"><path d="M -95.597656 193.53125 L 187.597656 -89.664062 L 470.792969 193.53125 L 187.597656 476.730469 Z M -95.597656 193.53125 " clip-rule="nonzero"/></clipPath><clipPath id="ff3c3ad990"><path d="M -95.597656 193.53125 L 187.597656 -89.664062 L 470.792969 193.53125 L 187.597656 476.730469 Z M -95.597656 193.53125 " clip-rule="nonzero"/></clipPath><clipPath id="fa94f6ace5"><path d="M -95.597656 193.53125 L 187.597656 -89.664062 L 470.792969 193.53125 L 187.597656 476.730469 Z M -95.597656 193.53125 " clip-rule="nonzero"/></clipPath><clipPath id="a84c362676"><path d="M 226 203 L 330 203 L 330 239 L 226 239 Z M 226 203 " clip-rule="nonzero"/></clipPath><clipPath id="36d6ed3d45"><path d="M -95.597656 193.53125 L 187.597656 -89.664062 L 470.792969 193.53125 L 187.597656 476.730469 Z M -95.597656 193.53125 " clip-rule="nonzero"/></clipPath><clipPath id="09be9970b8"><path d="M -95.597656 193.53125 L 187.597656 -89.664062 L 470.792969 193.53125 L 187.597656 476.730469 Z M -95.597656 193.53125 " clip-rule="nonzero"/></clipPath><clipPath id="d56da174b3"><path d="M -95.597656 193.53125 L 187.597656 -89.664062 L 470.792969 193.53125 L 187.597656 476.730469 Z M -95.597656 193.53125 " clip-rule="nonzero"/></clipPath><clipPath id="9e83b2f735"><path d="M 250 227 L 342 227 L 342 279 L 250 279 Z M 250 227 " clip-rule="nonzero"/></clipPath><clipPath id="215698d10d"><path d="M -95.597656 193.53125 L 187.597656 -89.664062 L 470.792969 193.53125 L 187.597656 476.730469 Z M -95.597656 193.53125 " clip-rule="nonzero"/></clipPath><clipPath id="e45262b832"><path d="M -95.597656 193.53125 L 187.597656 -89.664062 L 470.792969 193.53125 L 187.597656 476.730469 Z M -95.597656 193.53125 " clip-rule="nonzero"/></clipPath><clipPath id="d17d13aaf0"><path d="M -95.597656 193.53125 L 187.597656 -89.664062 L 470.792969 193.53125 L 187.597656 476.730469 Z M -95.597656 193.53125 " clip-rule="nonzero"/></clipPath><clipPath id="1accc933f4"><path d="M 15 138 L 69 138 L 69 170 L 15 170 Z M 15 138 " clip-rule="nonzero"/></clipPath><clipPath id="a3a9868e8a"><path d="M -95.597656 193.53125 L 187.597656 -89.664062 L 470.792969 193.53125 L 187.597656 476.730469 Z M -95.597656 193.53125 " clip-rule="nonzero"/></clipPath><clipPath id="2a88fa89f3"><path d="M -95.597656 193.53125 L 187.597656 -89.664062 L 470.792969 193.53125 L 187.597656 476.730469 Z M -95.597656 193.53125 " clip-rule="nonzero"/></clipPath><clipPath id="78bf86d599"><path d="M -95.597656 193.53125 L 187.597656 -89.664062 L 470.792969 193.53125 L 187.597656 476.730469 Z M -95.597656 193.53125 " clip-rule="nonzero"/></clipPath><clipPath id="cc3c0968d6"><path d="M 8 89 L 51 89 L 51 128 L 8 128 Z M 8 89 " clip-rule="nonzero"/></clipPath><clipPath id="bf69e4b692"><path d="M -95.597656 193.53125 L 187.597656 -89.664062 L 470.792969 193.53125 L 187.597656 476.730469 Z M -95.597656 193.53125 " clip-rule="nonzero"/></clipPath><clipPath id="7eaceeb062"><path d="M -95.597656 193.53125 L 187.597656 -89.664062 L 470.792969 193.53125 L 187.597656 476.730469 Z M -95.597656 193.53125 " clip-rule="nonzero"/></clipPath><clipPath id="6c4d188469"><path d="M -95.597656 193.53125 L 187.597656 -89.664062 L 470.792969 193.53125 L 187.597656 476.730469 Z M -95.597656 193.53125 " clip-rule="nonzero"/></clipPath><clipPath id="22835ba011"><path d="M 51 108 L 90 108 L 90 131 L 51 131 Z M 51 108 " clip-rule="nonzero"/></clipPath><clipPath id="6fbc603862"><path d="M -95.597656 193.53125 L 187.597656 -89.664062 L 470.792969 193.53125 L 187.597656 476.730469 Z M -95.597656 193.53125 " clip-rule="nonzero"/></clipPath><clipPath id="7da2ed9838"><path d="M -95.597656 193.53125 L 187.597656 -89.664062 L 470.792969 193.53125 L 187.597656 476.730469 Z M -95.597656 193.53125 " clip-rule="nonzero"/></clipPath><clipPath id="bdf3c3a6c6"><path d="M -95.597656 193.53125 L 187.597656 -89.664062 L 470.792969 193.53125 L 187.597656 476.730469 Z M -95.597656 193.53125 " clip-rule="nonzero"/></clipPath><clipPath id="971b472cac"><path d="M 46 148 L 149 148 L 149 184 L 46 184 Z M 46 148 " clip-rule="nonzero"/></clipPath><clipPath id="ead60d9b2a"><path d="M -95.597656 193.53125 L 187.597656 -89.664062 L 470.792969 193.53125 L 187.597656 476.730469 Z M -95.597656 193.53125 " clip-rule="nonzero"/></clipPath><clipPath id="3878a64639"><path d="M -95.597656 193.53125 L 187.597656 -89.664062 L 470.792969 193.53125 L 187.597656 476.730469 Z M -95.597656 193.53125 " clip-rule="nonzero"/></clipPath><clipPath id="a086796bef"><path d="M -95.597656 193.53125 L 187.597656 -89.664062 L 470.792969 193.53125 L 187.597656 476.730469 Z M -95.597656 193.53125 " clip-rule="nonzero"/></clipPath><clipPath id="f0883e592b"><path d="M 33 108 L 125 108 L 125 160 L 33 160 Z M 33 108 " clip-rule="nonzero"/></clipPath><clipPath id="8d28b3dbfa"><path d="M -95.597656 193.53125 L 187.597656 -89.664062 L 470.792969 193.53125 L 187.597656 476.730469 Z M -95.597656 193.53125 " clip-rule="nonzero"/></clipPath><clipPath id="5db4f97c8f"><path d="M -95.597656 193.53125 L 187.597656 -89.664062 L 470.792969 193.53125 L 187.597656 476.730469 Z M -95.597656 193.53125 " clip-rule="nonzero"/></clipPath><clipPath id="8d435bf032"><path d="M -95.597656 193.53125 L 187.597656 -89.664062 L 470.792969 193.53125 L 187.597656 476.730469 Z M -95.597656 193.53125 " clip-rule="nonzero"/></clipPath><clipPath id="3c9b6b0540"><path d="M 211 312 L 243 312 L 243 366 L 211 366 Z M 211 312 " clip-rule="nonzero"/></clipPath><clipPath id="277fff43d6"><path d="M -95.597656 193.53125 L 187.597656 -89.664062 L 470.792969 193.53125 L 187.597656 476.730469 Z M -95.597656 193.53125 " clip-rule="nonzero"/></clipPath><clipPath id="a89a52ca75"><path d="M -95.597656 193.53125 L 187.597656 -89.664062 L 470.792969 193.53125 L 187.597656 476.730469 Z M -95.597656 193.53125 " clip-rule="nonzero"/></clipPath><clipPath id="54a87c333c"><path d="M -95.597656 193.53125 L 187.597656 -89.664062 L 470.792969 193.53125 L 187.597656 476.730469 Z M -95.597656 193.53125 " clip-rule="nonzero"/></clipPath><clipPath id="03518b3415"><path d="M 253 330 L 292 330 L 292 374 L 253 374 Z M 253 330 " clip-rule="nonzero"/></clipPath><clipPath id="6d886eb4eb"><path d="M -95.597656 193.53125 L 187.597656 -89.664062 L 470.792969 193.53125 L 187.597656 476.730469 Z M -95.597656 193.53125 " clip-rule="nonzero"/></clipPath><clipPath id="ed6012a80d"><path d="M -95.597656 193.53125 L 187.597656 -89.664062 L 470.792969 193.53125 L 187.597656 476.730469 Z M -95.597656 193.53125 " clip-rule="nonzero"/></clipPath><clipPath id="99b98d0b21"><path d="M -95.597656 193.53125 L 187.597656 -89.664062 L 470.792969 193.53125 L 187.597656 476.730469 Z M -95.597656 193.53125 " clip-rule="nonzero"/></clipPath><clipPath id="79472457a3"><path d="M 251 291 L 273 291 L 273 330 L 251 330 Z M 251 291 " clip-rule="nonzero"/></clipPath><clipPath id="303b2e2516"><path d="M -95.597656 193.53125 L 187.597656 -89.664062 L 470.792969 193.53125 L 187.597656 476.730469 Z M -95.597656 193.53125 " clip-rule="nonzero"/></clipPath><clipPath id="caff8862c7"><path d="M -95.597656 193.53125 L 187.597656 -89.664062 L 470.792969 193.53125 L 187.597656 476.730469 Z M -95.597656 193.53125 " clip-rule="nonzero"/></clipPath><clipPath id="9d3567b514"><path d="M -95.597656 193.53125 L 187.597656 -89.664062 L 470.792969 193.53125 L 187.597656 476.730469 Z M -95.597656 193.53125 " clip-rule="nonzero"/></clipPath><clipPath id="3c90f18df5"><path d="M 197 232 L 233 232 L 233 335 L 197 335 Z M 197 232 " clip-rule="nonzero"/></clipPath><clipPath id="a341a6e668"><path d="M -95.597656 193.53125 L 187.597656 -89.664062 L 470.792969 193.53125 L 187.597656 476.730469 Z M -95.597656 193.53125 " clip-rule="nonzero"/></clipPath><clipPath id="6848950ff4"><path d="M -95.597656 193.53125 L 187.597656 -89.664062 L 470.792969 193.53125 L 187.597656 476.730469 Z M -95.597656 193.53125 " clip-rule="nonzero"/></clipPath><clipPath id="69de388057"><path d="M -95.597656 193.53125 L 187.597656 -89.664062 L 470.792969 193.53125 L 187.597656 476.730469 Z M -95.597656 193.53125 " clip-rule="nonzero"/></clipPath><clipPath id="8a4d267d72"><path d="M 221 256 L 273 256 L 273 348 L 221 348 Z M 221 256 " clip-rule="nonzero"/></clipPath><clipPath id="9ae9d85f62"><path d="M -95.597656 193.53125 L 187.597656 -89.664062 L 470.792969 193.53125 L 187.597656 476.730469 Z M -95.597656 193.53125 " clip-rule="nonzero"/></clipPath><clipPath id="54e2c31276"><path d="M -95.597656 193.53125 L 187.597656 -89.664062 L 470.792969 193.53125 L 187.597656 476.730469 Z M -95.597656 193.53125 " clip-rule="nonzero"/></clipPath><clipPath id="617bca8c00"><path d="M -95.597656 193.53125 L 187.597656 -89.664062 L 470.792969 193.53125 L 187.597656 476.730469 Z M -95.597656 193.53125 " clip-rule="nonzero"/></clipPath><clipPath id="fac3a320a7"><path d="M 172 82 L 300 82 L 300 209 L 172 209 Z M 172 82 " clip-rule="nonzero"/></clipPath><clipPath id="66d6d273ea"><path d="M -95.597656 193.53125 L 187.597656 -89.664062 L 470.792969 193.53125 L 187.597656 476.730469 Z M -95.597656 193.53125 " clip-rule="nonzero"/></clipPath><clipPath id="011fcef2b3"><path d="M -95.597656 193.53125 L 187.597656 -89.664062 L 470.792969 193.53125 L 187.597656 476.730469 Z M -95.597656 193.53125 " clip-rule="nonzero"/></clipPath><clipPath id="3652118eec"><path d="M -95.597656 193.53125 L 187.597656 -89.664062 L 470.792969 193.53125 L 187.597656 476.730469 Z M -95.597656 193.53125 " clip-rule="nonzero"/></clipPath><clipPath id="06e84841d9"><path d="M 107 74 L 308 74 L 308 274 L 107 274 Z M 107 74 " clip-rule="nonzero"/></clipPath><clipPath id="51678b063b"><path d="M -95.597656 193.53125 L 187.597656 -89.664062 L 470.792969 193.53125 L 187.597656 476.730469 Z M -95.597656 193.53125 " clip-rule="nonzero"/></clipPath><clipPath id="7ed7143431"><path d="M -95.597656 193.53125 L 187.597656 -89.664062 L 470.792969 193.53125 L 187.597656 476.730469 Z M -95.597656 193.53125 " clip-rule="nonzero"/></clipPath><clipPath id="94f9201708"><path d="M -95.597656 193.53125 L 187.597656 -89.664062 L 470.792969 193.53125 L 187.597656 476.730469 Z M -95.597656 193.53125 " clip-rule="nonzero"/></clipPath><clipPath id="1850521f23"><path d="M 76 178 L 204 178 L 204 305 L 76 305 Z M 76 178 " clip-rule="nonzero"/></clipPath><clipPath id="f3cd38b4c2"><path d="M -95.597656 193.53125 L 187.597656 -89.664062 L 470.792969 193.53125 L 187.597656 476.730469 Z M -95.597656 193.53125 " clip-rule="nonzero"/></clipPath><clipPath id="e274b85dae"><path d="M -95.597656 193.53125 L 187.597656 -89.664062 L 470.792969 193.53125 L 187.597656 476.730469 Z M -95.597656 193.53125 " clip-rule="nonzero"/></clipPath><clipPath id="0726c8efa1"><path d="M -95.597656 193.53125 L 187.597656 -89.664062 L 470.792969 193.53125 L 187.597656 476.730469 Z M -95.597656 193.53125 " clip-rule="nonzero"/></clipPath><clipPath id="6b3fe5849d"><path d="M 68 113 L 268 113 L 268 314 L 68 314 Z M 68 113 " clip-rule="nonzero"/></clipPath><clipPath id="81f344397d"><path d="M -95.597656 193.53125 L 187.597656 -89.664062 L 470.792969 193.53125 L 187.597656 476.730469 Z M -95.597656 193.53125 " clip-rule="nonzero"/></clipPath><clipPath id="f34a4950f4"><path d="M -95.597656 193.53125 L 187.597656 -89.664062 L 470.792969 193.53125 L 187.597656 476.730469 Z M -95.597656 193.53125 " clip-rule="nonzero"/></clipPath><clipPath id="1d0ded4d4b"><path d="M -95.597656 193.53125 L 187.597656 -89.664062 L 470.792969 193.53125 L 187.597656 476.730469 Z M -95.597656 193.53125 " clip-rule="nonzero"/></clipPath><clipPath id="1e8d461e11"><path d="M 125.261719 135.554688 L 241.511719 135.554688 L 241.511719 251.804688 L 125.261719 251.804688 Z M 125.261719 135.554688 " clip-rule="nonzero"/></clipPath></defs><g clip-path="url(#ef8c83e616)"><g clip-path="url(#45c9573f0c)"><g clip-path="url(#897ff6cf4b)"><g clip-path="url(#f517ff30b0)"><path fill="#80cc28" d="M 15.320312 229.304688 C 15.320312 229.304688 48.753906 268.628906 68.910156 233.667969 C 59.738281 209.351562 42.035156 217.957031 29.253906 224.734375 C 22.1875 228.484375 15.320312 229.304688 15.320312 229.304688 " fill-opacity="1" fill-rule="nonzero"/></g></g></g></g><g clip-path="url(#bd1024276b)"><g clip-path="url(#4e76a0ab3a)"><g clip-path="url(#e47eb2baaf)"><g clip-path="url(#88bc9aac83)"><path fill="#80cc28" d="M 8.101562 297.226562 C 8.101562 297.226562 59.546875 301.386719 49.078125 262.414062 C 25.398438 251.703125 18.964844 270.304688 14.722656 284.140625 C 12.375 291.785156 8.101562 297.226562 8.101562 297.226562 " fill-opacity="1" fill-rule="nonzero"/></g></g></g></g><g clip-path="url(#c086d4e2f0)"><g clip-path="url(#cb43510a8e)"><g clip-path="url(#1dca665e4c)"><g clip-path="url(#5cd27a7a99)"><path fill="#80cc28" d="M 51.554688 265.660156 C 51.554688 265.660156 75.765625 293.371094 89.800781 268.257812 C 83.03125 251.011719 70.492188 257.3125 61.445312 262.269531 C 56.441406 265.007812 51.554688 265.660156 51.554688 265.660156 " fill-opacity="1" fill-rule="nonzero"/></g></g></g></g><g clip-path="url(#c40217784b)"><g clip-path="url(#2c1442c3b3)"><g clip-path="url(#aa6d8c71b2)"><g clip-path="url(#9bcbce97c0)"><path fill="#1c6434" d="M 53.777344 231.308594 C 54.980469 232.511719 54.980469 234.457031 53.777344 235.65625 C 52.578125 236.859375 50.628906 236.859375 49.429688 235.660156 C 48.226562 234.457031 48.226562 232.511719 49.429688 231.308594 C 50.628906 230.109375 52.578125 230.109375 53.777344 231.308594 Z M 47.757812 237.328125 C 49.882812 239.453125 53.324219 239.449219 55.445312 237.328125 C 56.085938 236.6875 56.527344 235.929688 56.78125 235.125 L 97.984375 235.125 L 110.808594 222.304688 L 132.503906 222.304688 L 148.789062 206.019531 L 146.359375 203.59375 L 131.082031 218.871094 L 109.386719 218.871094 L 96.5625 231.691406 L 56.730469 231.695312 C 56.46875 230.945312 56.046875 230.238281 55.449219 229.640625 C 53.324219 227.515625 49.882812 227.519531 47.761719 229.640625 C 45.636719 231.765625 45.636719 235.203125 47.757812 237.328125 " fill-opacity="1" fill-rule="nonzero"/></g></g></g></g><g clip-path="url(#975df4ad4a)"><g clip-path="url(#b2e12262ef)"><g clip-path="url(#155d3d87c9)"><g clip-path="url(#a20874452c)"><path fill="#1c6434" d="M 36.605469 275.257812 C 35.40625 274.058594 35.40625 272.109375 36.605469 270.910156 C 37.808594 269.707031 39.757812 269.710938 40.957031 270.910156 C 42.160156 272.109375 42.160156 274.058594 40.957031 275.261719 C 39.757812 276.460938 37.808594 276.460938 36.605469 275.257812 Z M 43.734375 270.855469 L 65.378906 249.210938 L 105.597656 249.210938 L 124.511719 230.296875 L 122.082031 227.871094 L 104.175781 245.777344 L 63.953125 245.777344 L 41.402344 268.324219 C 39.339844 267.1875 36.691406 267.488281 34.9375 269.242188 C 32.816406 271.363281 32.816406 274.808594 34.9375 276.929688 C 37.0625 279.050781 40.503906 279.050781 42.625 276.929688 C 44.269531 275.285156 44.636719 272.855469 43.734375 270.855469 " fill-opacity="1" fill-rule="nonzero"/></g></g></g></g><g clip-path="url(#3fcad1553e)"><g clip-path="url(#505b92d458)"><g clip-path="url(#c72b505f9a)"><g clip-path="url(#afa2240164)"><path fill="#80cc28" d="M 223.371094 21.253906 C 223.371094 21.253906 262.691406 54.6875 227.730469 74.847656 C 203.414062 65.675781 212.019531 47.972656 218.796875 35.191406 C 222.546875 28.125 223.371094 21.253906 223.371094 21.253906 " fill-opacity="1" fill-rule="nonzero"/></g></g></g></g><g clip-path="url(#2a74dea4a5)"><g clip-path="url(#1c52060747)"><g clip-path="url(#523399e6e7)"><g clip-path="url(#923b86dec1)"><path fill="#80cc28" d="M 291.289062 14.035156 C 291.289062 14.035156 295.453125 65.480469 256.480469 55.015625 C 245.765625 31.335938 264.371094 24.898438 278.203125 20.65625 C 285.851562 18.308594 291.289062 14.035156 291.289062 14.035156 " fill-opacity="1" fill-rule="nonzero"/></g></g></g></g><g clip-path="url(#4d38528511)"><g clip-path="url(#258664801d)"><g clip-path="url(#209359564e)"><g clip-path="url(#d024fa1878)"><path fill="#80cc28" d="M 259.722656 57.492188 C 259.722656 57.492188 287.433594 81.703125 262.320312 95.738281 C 245.074219 88.96875 251.375 76.429688 256.332031 67.382812 C 259.070312 62.378906 259.722656 57.492188 259.722656 57.492188 " fill-opacity="1" fill-rule="nonzero"/></g></g></g></g><g clip-path="url(#6f12c4a698)"><g clip-path="url(#3289b78a51)"><g clip-path="url(#58f33b9ce9)"><g clip-path="url(#9241e8e438)"><path fill="#1c6434" d="M 225.375 55.363281 C 226.574219 54.164062 228.519531 54.164062 229.722656 55.363281 C 230.925781 56.566406 230.921875 58.511719 229.722656 59.714844 C 228.519531 60.914062 226.574219 60.914062 225.375 59.714844 C 224.171875 58.511719 224.171875 56.566406 225.375 55.363281 Z M 223.707031 53.695312 C 221.582031 55.820312 221.578125 59.261719 223.703125 61.382812 C 224.300781 61.984375 225.007812 62.40625 225.757812 62.667969 L 225.757812 102.5 L 212.933594 115.320312 L 212.9375 137.019531 L 197.660156 152.296875 L 200.085938 154.722656 L 216.367188 138.441406 L 216.367188 116.742188 L 229.1875 103.921875 L 229.1875 62.71875 C 229.992188 62.464844 230.753906 62.019531 231.390625 61.382812 C 233.511719 59.261719 233.515625 55.820312 231.390625 53.695312 C 229.269531 51.574219 225.828125 51.574219 223.707031 53.695312 " fill-opacity="1" fill-rule="nonzero"/></g></g></g></g><g clip-path="url(#0e913b5aef)"><g clip-path="url(#b5d222693f)"><g clip-path="url(#c76b8b7451)"><g clip-path="url(#ffe0e98e32)"><path fill="#1c6434" d="M 269.324219 46.894531 C 268.121094 48.097656 266.175781 48.09375 264.972656 46.890625 C 263.773438 45.691406 263.773438 43.746094 264.972656 42.542969 C 266.175781 41.34375 268.125 41.34375 269.324219 42.542969 C 270.523438 43.742188 270.523438 45.695312 269.324219 46.894531 Z M 270.992188 48.5625 C 273.117188 46.441406 273.117188 42.996094 270.992188 40.875 C 268.871094 38.753906 265.429688 38.75 263.304688 40.875 C 261.554688 42.628906 261.253906 45.273438 262.390625 47.339844 L 239.839844 69.886719 L 239.839844 110.113281 L 221.9375 128.019531 L 224.363281 130.445312 L 243.277344 111.535156 L 243.277344 71.3125 L 264.917969 49.667969 C 266.917969 50.570312 269.351562 50.207031 270.992188 48.5625 " fill-opacity="1" fill-rule="nonzero"/></g></g></g></g><g clip-path="url(#66801984df)"><g clip-path="url(#ecd40ba03d)"><g clip-path="url(#595f1ac3e2)"><g clip-path="url(#4993ce4672)"><path fill="#80cc28" d="M 151.824219 365.8125 C 151.824219 365.8125 112.503906 332.378906 147.460938 312.21875 C 171.78125 321.390625 163.175781 339.09375 156.394531 351.875 C 152.648438 358.941406 151.824219 365.8125 151.824219 365.8125 " fill-opacity="1" fill-rule="nonzero"/></g></g></g></g><g clip-path="url(#b9a2be6d88)"><g clip-path="url(#9c45c691b7)"><g clip-path="url(#19f94ec0ad)"><g clip-path="url(#04fc3d43ed)"><path fill="#80cc28" d="M 83.902344 373.03125 C 83.902344 373.03125 79.742188 321.585938 118.714844 332.050781 C 129.425781 355.730469 110.824219 362.164062 96.988281 366.410156 C 89.34375 368.753906 83.902344 373.03125 83.902344 373.03125 " fill-opacity="1" fill-rule="nonzero"/></g></g></g></g><g clip-path="url(#9704924b51)"><g clip-path="url(#b2aafc7d33)"><g clip-path="url(#4580ed4577)"><g clip-path="url(#9f2a66f411)"><path fill="#80cc28" d="M 115.46875 329.578125 C 115.46875 329.578125 87.757812 305.363281 112.875 291.328125 C 130.121094 298.097656 123.816406 310.636719 118.863281 319.683594 C 116.121094 324.683594 115.46875 329.578125 115.46875 329.578125 " fill-opacity="1" fill-rule="nonzero"/></g></g></g></g><g clip-path="url(#adcede9c79)"><g clip-path="url(#bbc0acf43a)"><g clip-path="url(#e6f99b4afe)"><g clip-path="url(#530736510a)"><path fill="#1c6434" d="M 149.820312 331.699219 C 148.617188 332.902344 146.671875 332.902344 145.472656 331.699219 C 144.269531 330.5 144.269531 328.554688 145.472656 327.351562 C 146.671875 326.152344 148.617188 326.148438 149.820312 327.351562 C 151.023438 328.554688 151.023438 330.5 149.820312 331.699219 Z M 151.488281 333.367188 C 153.613281 331.246094 153.613281 327.804688 151.488281 325.683594 C 150.890625 325.082031 150.1875 324.660156 149.4375 324.398438 L 149.4375 284.566406 L 162.257812 271.746094 L 162.257812 250.046875 L 177.535156 234.769531 L 175.109375 232.34375 L 158.824219 248.625 L 158.828125 270.324219 L 146.003906 283.144531 L 146.003906 324.347656 C 145.199219 324.601562 144.441406 325.042969 143.800781 325.683594 C 141.679688 327.804688 141.679688 331.246094 143.800781 333.371094 C 145.925781 335.496094 149.367188 335.492188 151.488281 333.367188 " fill-opacity="1" fill-rule="nonzero"/></g></g></g></g><g clip-path="url(#73d8c3b4bb)"><g clip-path="url(#b637702299)"><g clip-path="url(#51fa35b85a)"><g clip-path="url(#0f71d0ca03)"><path fill="#1c6434" d="M 105.867188 340.171875 C 107.070312 338.96875 109.019531 338.972656 110.21875 340.171875 C 111.421875 341.371094 111.421875 343.320312 110.21875 344.523438 C 109.019531 345.722656 107.070312 345.722656 105.867188 344.519531 C 104.667969 343.320312 104.667969 341.371094 105.867188 340.171875 Z M 104.199219 338.503906 C 102.078125 340.625 102.078125 344.070312 104.199219 346.191406 C 106.324219 348.3125 109.765625 348.3125 111.886719 346.191406 C 113.640625 344.4375 113.941406 341.789062 112.804688 339.726562 L 135.351562 317.175781 L 135.351562 276.953125 L 153.257812 259.046875 L 150.832031 256.621094 L 131.917969 275.53125 L 131.917969 315.753906 L 110.277344 337.394531 C 108.277344 336.496094 105.84375 336.859375 104.199219 338.503906 " fill-opacity="1" fill-rule="nonzero"/></g></g></g></g><g clip-path="url(#810e5ec320)"><g clip-path="url(#c7601145ec)"><g clip-path="url(#25ff376d09)"><g clip-path="url(#de67e1b815)"><path fill="#80cc28" d="M 359.875 157.761719 C 359.875 157.761719 326.441406 118.4375 306.285156 153.398438 C 315.453125 177.71875 333.15625 169.109375 345.9375 162.332031 C 353.003906 158.585938 359.875 157.761719 359.875 157.761719 " fill-opacity="1" fill-rule="nonzero"/></g></g></g></g><g clip-path="url(#0f892ea360)"><g clip-path="url(#3f1bd592b2)"><g clip-path="url(#4fc076fbea)"><g clip-path="url(#773040e73e)"><path fill="#80cc28" d="M 367.09375 89.839844 C 367.09375 89.839844 315.648438 85.675781 326.113281 124.652344 C 349.792969 135.363281 356.230469 116.757812 360.472656 102.925781 C 362.820312 95.28125 367.09375 89.839844 367.09375 89.839844 " fill-opacity="1" fill-rule="nonzero"/></g></g></g></g><g clip-path="url(#9b7faea8ae)"><g clip-path="url(#f9bf7732db)"><g clip-path="url(#f981c22812)"><g clip-path="url(#0df19c17c9)"><path fill="#80cc28" d="M 323.640625 121.40625 C 323.640625 121.40625 299.425781 93.695312 285.390625 118.808594 C 292.164062 136.054688 304.703125 129.753906 313.75 124.796875 C 318.75 122.058594 323.640625 121.40625 323.640625 121.40625 " fill-opacity="1" fill-rule="nonzero"/></g></g></g></g><g clip-path="url(#dfbcb665ce)"><g clip-path="url(#57a37b1de8)"><g clip-path="url(#8c1f6c10f7)"><g clip-path="url(#fe1121067a)"><path fill="#1c6434" d="M 321.417969 155.753906 C 320.214844 154.554688 320.214844 152.609375 321.417969 151.40625 C 322.617188 150.207031 324.5625 150.207031 325.765625 151.40625 C 326.96875 152.609375 326.964844 154.554688 325.765625 155.753906 C 324.5625 156.957031 322.617188 156.957031 321.417969 155.753906 Z M 327.433594 149.738281 C 325.308594 147.613281 321.867188 147.617188 319.746094 149.738281 C 319.105469 150.375 318.664062 151.136719 318.410156 151.941406 L 277.207031 151.941406 L 264.386719 164.761719 L 242.6875 164.761719 L 226.40625 181.042969 L 228.835938 183.472656 L 244.113281 168.195312 L 265.808594 168.195312 L 278.628906 155.375 L 318.464844 155.371094 C 318.722656 156.121094 319.148438 156.828125 319.746094 157.425781 C 321.871094 159.550781 325.308594 159.546875 327.433594 157.425781 C 329.554688 155.304688 329.558594 151.863281 327.433594 149.738281 " fill-opacity="1" fill-rule="nonzero"/></g></g></g></g><g clip-path="url(#2b8dec416a)"><g clip-path="url(#9dc28aa249)"><g clip-path="url(#446f43556b)"><g clip-path="url(#b9abb733c3)"><path fill="#1c6434" d="M 338.585938 111.804688 C 339.785156 113.007812 339.785156 114.957031 338.585938 116.15625 C 337.382812 117.359375 335.4375 117.355469 334.234375 116.152344 C 333.035156 114.953125 333.035156 113.007812 334.234375 111.804688 C 335.4375 110.605469 337.386719 110.605469 338.585938 111.804688 Z M 331.460938 116.210938 L 309.816406 137.855469 L 269.597656 137.855469 L 250.683594 156.765625 L 253.113281 159.195312 L 271.015625 141.289062 L 311.242188 141.289062 L 333.789062 118.738281 C 335.855469 119.878906 338.503906 119.578125 340.253906 117.824219 C 342.378906 115.703125 342.378906 112.257812 340.253906 110.136719 C 338.132812 108.015625 334.691406 108.011719 332.566406 110.136719 C 330.925781 111.78125 330.558594 114.210938 331.460938 116.210938 " fill-opacity="1" fill-rule="nonzero"/></g></g></g></g><g clip-path="url(#29abf6d203)"><g clip-path="url(#b4acc7bbfa)"><g clip-path="url(#524d4bec42)"><g clip-path="url(#1c3c0be114)"><path fill="#1c6434" d="M 79.40625 201.332031 C 80.609375 200.128906 82.554688 200.128906 83.757812 201.332031 C 84.957031 202.53125 84.957031 204.480469 83.757812 205.679688 C 82.554688 206.882812 80.609375 206.882812 79.40625 205.679688 C 78.207031 204.476562 78.207031 202.53125 79.40625 201.332031 Z M 195.394531 85.34375 C 196.597656 84.140625 198.542969 84.140625 199.746094 85.34375 C 200.945312 86.546875 200.945312 88.492188 199.746094 89.691406 C 198.542969 90.894531 196.597656 90.894531 195.394531 89.695312 C 194.191406 88.492188 194.195312 86.542969 195.394531 85.34375 Z M 85.425781 207.347656 C 86.0625 206.710938 86.503906 205.953125 86.761719 205.148438 L 127.964844 205.148438 L 140.785156 192.324219 L 162.484375 192.324219 L 186.390625 168.417969 L 186.390625 146.722656 L 199.210938 133.902344 L 199.210938 92.699219 C 200.015625 92.441406 200.773438 92 201.414062 91.359375 C 203.535156 89.238281 203.535156 85.796875 201.414062 83.675781 C 199.289062 81.550781 195.847656 81.554688 193.726562 83.675781 C 191.601562 85.796875 191.601562 89.238281 193.726562 91.363281 C 194.324219 91.960938 195.03125 92.382812 195.777344 92.648438 L 195.777344 132.476562 L 182.957031 145.300781 L 182.957031 166.996094 L 161.0625 188.894531 L 139.363281 188.890625 L 126.542969 201.714844 L 86.710938 201.714844 C 86.449219 200.964844 86.023438 200.261719 85.425781 199.660156 C 83.300781 197.539062 79.863281 197.539062 77.738281 199.664062 C 75.617188 201.785156 75.613281 205.226562 77.738281 207.347656 C 79.863281 209.472656 83.300781 209.472656 85.425781 207.347656 " fill-opacity="1" fill-rule="nonzero"/></g></g></g></g><g clip-path="url(#32371a0ab0)"><g clip-path="url(#b8d755a4a5)"><g clip-path="url(#7159ec5a7a)"><g clip-path="url(#8135fcfb7c)"><path fill="#1c6434" d="M 71.347656 266.050781 C 72.550781 264.847656 74.5 264.851562 75.699219 266.050781 C 76.898438 267.25 76.898438 269.199219 75.699219 270.398438 C 74.496094 271.601562 72.550781 271.601562 71.347656 270.398438 C 70.148438 269.199219 70.148438 267.25 71.347656 266.050781 Z M 260.113281 77.285156 C 261.316406 76.085938 263.265625 76.085938 264.464844 77.285156 C 265.664062 78.484375 265.664062 80.433594 264.464844 81.636719 C 263.261719 82.835938 261.3125 82.835938 260.113281 81.632812 C 258.914062 80.433594 258.914062 78.488281 260.113281 77.285156 Z M 77.367188 272.070312 C 77.960938 271.472656 78.382812 270.773438 78.648438 270.03125 L 103.898438 270.03125 L 264.09375 109.832031 L 264.09375 84.582031 C 264.839844 84.320312 265.539062 83.898438 266.132812 83.304688 C 268.253906 81.179688 268.257812 77.738281 266.132812 75.613281 C 264.011719 73.492188 260.566406 73.492188 258.445312 75.617188 C 256.324219 77.738281 256.324219 81.179688 258.445312 83.304688 C 259.085938 83.945312 259.851562 84.386719 260.660156 84.644531 L 260.660156 108.410156 L 102.476562 266.597656 L 78.707031 266.597656 C 78.453125 265.785156 78.011719 265.023438 77.367188 264.378906 C 75.246094 262.257812 71.804688 262.257812 69.679688 264.382812 C 67.558594 266.503906 67.558594 269.945312 69.679688 272.066406 C 71.804688 274.191406 75.246094 274.191406 77.367188 272.070312 " fill-opacity="1" fill-rule="nonzero"/></g></g></g></g><g clip-path="url(#033354269f)"><g clip-path="url(#de285ba93d)"><g clip-path="url(#89ce54df29)"><g clip-path="url(#b14a18f5f9)"><path fill="#1c6434" d="M 295.785156 185.734375 C 294.585938 186.933594 292.636719 186.9375 291.4375 185.734375 C 290.234375 184.535156 290.238281 182.585938 291.4375 181.386719 C 292.640625 180.183594 294.585938 180.183594 295.785156 181.386719 C 296.988281 182.585938 296.988281 184.53125 295.785156 185.734375 Z M 179.796875 301.722656 C 178.597656 302.921875 176.652344 302.925781 175.449219 301.722656 C 174.25 300.519531 174.25 298.574219 175.449219 297.375 C 176.652344 296.171875 178.597656 296.171875 179.800781 297.375 C 181 298.574219 181 300.523438 179.796875 301.722656 Z M 289.769531 179.714844 C 289.128906 180.355469 288.6875 181.113281 288.433594 181.921875 L 247.230469 181.921875 L 234.410156 194.742188 L 212.710938 194.742188 L 188.804688 218.648438 L 188.804688 240.34375 L 175.984375 253.167969 L 175.984375 294.371094 C 175.179688 294.625 174.417969 295.066406 173.78125 295.703125 C 171.65625 297.828125 171.65625 301.269531 173.78125 303.390625 C 175.90625 305.515625 179.34375 305.515625 181.46875 303.390625 C 183.589844 301.269531 183.59375 297.828125 181.46875 295.703125 C 180.871094 295.105469 180.164062 294.679688 179.414062 294.421875 L 179.417969 254.585938 L 192.238281 241.765625 L 192.238281 220.070312 L 214.132812 198.171875 L 235.832031 198.171875 L 248.652344 185.351562 L 288.484375 185.351562 C 288.746094 186.101562 289.167969 186.804688 289.769531 187.40625 C 291.890625 189.527344 295.332031 189.527344 297.457031 187.402344 C 299.578125 185.28125 299.578125 181.839844 297.457031 179.71875 C 295.332031 177.59375 291.890625 177.59375 289.769531 179.714844 " fill-opacity="1" fill-rule="nonzero"/></g></g></g></g><g clip-path="url(#46579eb1c5)"><g clip-path="url(#c6b0a885c4)"><g clip-path="url(#61f632d1de)"><g clip-path="url(#0173e8b58a)"><path fill="#1c6434" d="M 303.84375 121.015625 C 302.644531 122.21875 300.699219 122.21875 299.496094 121.015625 C 298.292969 119.816406 298.292969 117.867188 299.496094 116.667969 C 300.695312 115.464844 302.644531 115.464844 303.847656 116.667969 C 305.046875 117.867188 305.046875 119.816406 303.84375 121.015625 Z M 115.082031 309.78125 C 113.878906 310.984375 111.933594 310.984375 110.730469 309.78125 C 109.53125 308.582031 109.527344 306.632812 110.730469 305.429688 C 111.929688 304.230469 113.878906 304.230469 115.082031 305.433594 C 116.28125 306.632812 116.28125 308.582031 115.082031 309.78125 Z M 297.824219 115 C 297.230469 115.59375 296.808594 116.292969 296.546875 117.035156 L 271.296875 117.035156 L 111.101562 277.234375 L 111.101562 302.484375 C 110.355469 302.746094 109.65625 303.167969 109.0625 303.761719 C 106.9375 305.886719 106.9375 309.328125 109.0625 311.449219 C 111.183594 313.574219 114.625 313.574219 116.75 311.449219 C 118.871094 309.328125 118.871094 305.886719 116.75 303.761719 C 116.105469 303.121094 115.34375 302.675781 114.535156 302.421875 L 114.535156 278.65625 L 272.71875 120.46875 L 296.488281 120.472656 C 296.742188 121.28125 297.183594 122.042969 297.828125 122.6875 C 299.949219 124.808594 303.390625 124.808594 305.511719 122.6875 C 307.636719 120.5625 307.636719 117.121094 305.515625 114.996094 C 303.390625 112.875 299.949219 112.875 297.824219 115 " fill-opacity="1" fill-rule="nonzero"/></g></g></g></g><g clip-path="url(#b5e36fb173)"><g clip-path="url(#ebb2a40c99)"><g clip-path="url(#a3fae33f36)"><g clip-path="url(#c3560fbe0a)"><path fill="#80cc28" d="M 151.824219 21.253906 C 151.824219 21.253906 112.503906 54.6875 147.460938 74.847656 C 171.78125 65.675781 163.175781 47.972656 156.394531 35.191406 C 152.648438 28.125 151.824219 21.253906 151.824219 21.253906 " fill-opacity="1" fill-rule="nonzero"/></g></g></g></g><g clip-path="url(#fa541967ed)"><g clip-path="url(#34927af6ae)"><g clip-path="url(#188b6209ca)"><g clip-path="url(#ceb5e839cd)"><path fill="#80cc28" d="M 83.902344 14.035156 C 83.902344 14.035156 79.742188 65.480469 118.714844 55.011719 C 129.425781 31.332031 110.824219 24.898438 96.988281 20.65625 C 89.34375 18.308594 83.902344 14.035156 83.902344 14.035156 " fill-opacity="1" fill-rule="nonzero"/></g></g></g></g><g clip-path="url(#bdf68b426b)"><g clip-path="url(#04eda0c79d)"><g clip-path="url(#76f1f1bd03)"><g clip-path="url(#76c886326b)"><path fill="#80cc28" d="M 115.472656 57.492188 C 115.472656 57.492188 87.757812 81.699219 112.875 95.738281 C 130.121094 88.96875 123.816406 76.429688 118.863281 67.382812 C 116.121094 62.378906 115.472656 57.492188 115.472656 57.492188 " fill-opacity="1" fill-rule="nonzero"/></g></g></g></g><g clip-path="url(#e8dcb3a8dc)"><g clip-path="url(#793385c950)"><g clip-path="url(#774f4340d0)"><g clip-path="url(#0b95198df5)"><path fill="#1c6434" d="M 149.820312 59.714844 C 148.617188 60.914062 146.671875 60.914062 145.472656 59.714844 C 144.269531 58.511719 144.269531 56.566406 145.472656 55.363281 C 146.671875 54.164062 148.617188 54.164062 149.820312 55.363281 C 151.023438 56.566406 151.023438 58.511719 149.820312 59.714844 Z M 143.804688 53.695312 C 141.679688 55.820312 141.679688 59.261719 143.800781 61.382812 C 144.441406 62.023438 145.203125 62.464844 146.003906 62.71875 L 146.003906 103.921875 L 158.828125 116.742188 L 158.828125 138.441406 L 175.109375 154.722656 L 177.535156 152.296875 L 162.257812 137.019531 L 162.257812 115.320312 L 149.4375 102.5 L 149.4375 62.667969 C 150.1875 62.40625 150.890625 61.984375 151.492188 61.382812 C 153.613281 59.261719 153.613281 55.820312 151.488281 53.695312 C 149.367188 51.574219 145.925781 51.574219 143.804688 53.695312 " fill-opacity="1" fill-rule="nonzero"/></g></g></g></g><g clip-path="url(#da03a5275f)"><g clip-path="url(#ba2818c154)"><g clip-path="url(#f960ccb026)"><g clip-path="url(#49f0898a36)"><path fill="#1c6434" d="M 105.871094 42.542969 C 107.070312 41.34375 109.019531 41.34375 110.21875 42.542969 C 111.421875 43.742188 111.421875 45.691406 110.21875 46.890625 C 109.019531 48.09375 107.070312 48.09375 105.871094 46.894531 C 104.667969 45.695312 104.667969 43.742188 105.871094 42.542969 Z M 110.277344 49.671875 L 131.917969 71.3125 L 131.917969 111.535156 L 150.832031 130.445312 L 153.257812 128.019531 L 135.351562 110.109375 L 135.351562 69.886719 L 112.804688 47.339844 C 113.941406 45.273438 113.640625 42.628906 111.890625 40.875 C 109.765625 38.75 106.324219 38.753906 104.203125 40.875 C 102.078125 42.996094 102.078125 46.441406 104.203125 48.5625 C 105.84375 50.207031 108.277344 50.570312 110.277344 49.671875 " fill-opacity="1" fill-rule="nonzero"/></g></g></g></g><g clip-path="url(#b0d392a0ae)"><g clip-path="url(#56d7092d65)"><g clip-path="url(#93ae15a51f)"><g clip-path="url(#f45b20c7b6)"><path fill="#80cc28" d="M 359.875 229.304688 C 359.875 229.304688 326.441406 268.628906 306.285156 233.667969 C 315.453125 209.347656 333.15625 217.957031 345.9375 224.734375 C 353.003906 228.480469 359.875 229.304688 359.875 229.304688 " fill-opacity="1" fill-rule="nonzero"/></g></g></g></g><g clip-path="url(#50d220ac8c)"><g clip-path="url(#f7f7ccb05c)"><g clip-path="url(#51bbab1d00)"><g clip-path="url(#353dd413dd)"><path fill="#80cc28" d="M 367.09375 297.226562 C 367.09375 297.226562 315.648438 301.390625 326.113281 262.414062 C 349.796875 251.703125 356.230469 270.308594 360.472656 284.140625 C 362.820312 291.785156 367.09375 297.226562 367.09375 297.226562 " fill-opacity="1" fill-rule="nonzero"/></g></g></g></g><g clip-path="url(#1b5283e2bd)"><g clip-path="url(#245ccb08b1)"><g clip-path="url(#ff3c3ad990)"><g clip-path="url(#fa94f6ace5)"><path fill="#80cc28" d="M 323.640625 265.660156 C 323.640625 265.660156 299.425781 293.371094 285.390625 268.253906 C 292.164062 251.007812 304.703125 257.3125 313.75 262.269531 C 318.75 265.007812 323.640625 265.660156 323.640625 265.660156 " fill-opacity="1" fill-rule="nonzero"/></g></g></g></g><g clip-path="url(#a84c362676)"><g clip-path="url(#36d6ed3d45)"><g clip-path="url(#09be9970b8)"><g clip-path="url(#d56da174b3)"><path fill="#1c6434" d="M 325.765625 231.308594 C 326.964844 232.511719 326.96875 234.457031 325.765625 235.660156 C 324.5625 236.859375 322.617188 236.859375 321.417969 235.660156 C 320.214844 234.457031 320.214844 232.511719 321.417969 231.308594 C 322.617188 230.109375 324.5625 230.109375 325.765625 231.308594 Z M 327.433594 229.640625 C 325.308594 227.519531 321.871094 227.515625 319.746094 229.640625 C 319.148438 230.238281 318.722656 230.945312 318.464844 231.695312 L 278.628906 231.691406 L 265.808594 218.871094 L 244.113281 218.871094 L 228.835938 203.59375 L 226.40625 206.023438 L 242.6875 222.304688 L 264.386719 222.304688 L 277.207031 235.125 L 318.410156 235.125 C 318.664062 235.929688 319.105469 236.691406 319.746094 237.328125 C 321.867188 239.449219 325.308594 239.449219 327.433594 237.328125 C 329.558594 235.203125 329.554688 231.761719 327.433594 229.640625 " fill-opacity="1" fill-rule="nonzero"/></g></g></g></g><g clip-path="url(#9e83b2f735)"><g clip-path="url(#215698d10d)"><g clip-path="url(#e45262b832)"><g clip-path="url(#d17d13aaf0)"><path fill="#1c6434" d="M 334.234375 275.261719 C 333.035156 274.058594 333.035156 272.109375 334.238281 270.910156 C 335.4375 269.710938 337.382812 269.707031 338.585938 270.910156 C 339.785156 272.109375 339.785156 274.058594 338.585938 275.257812 C 337.386719 276.460938 335.4375 276.460938 334.234375 275.261719 Z M 332.566406 276.929688 C 334.691406 279.050781 338.132812 279.050781 340.257812 276.929688 C 342.378906 274.808594 342.378906 271.363281 340.253906 269.242188 C 338.503906 267.488281 335.855469 267.1875 333.789062 268.324219 L 311.242188 245.777344 L 271.015625 245.777344 L 253.113281 227.871094 L 250.683594 230.300781 L 269.597656 249.210938 L 309.816406 249.210938 L 331.460938 270.855469 C 330.558594 272.855469 330.925781 275.285156 332.566406 276.929688 " fill-opacity="1" fill-rule="nonzero"/></g></g></g></g><g clip-path="url(#1accc933f4)"><g clip-path="url(#a3a9868e8a)"><g clip-path="url(#2a88fa89f3)"><g clip-path="url(#78bf86d599)"><path fill="#80cc28" d="M 15.320312 157.761719 C 15.320312 157.761719 48.75 118.4375 68.910156 153.398438 C 59.742188 177.714844 42.035156 169.113281 29.253906 162.332031 C 22.1875 158.585938 15.320312 157.761719 15.320312 157.761719 " fill-opacity="1" fill-rule="nonzero"/></g></g></g></g><g clip-path="url(#cc3c0968d6)"><g clip-path="url(#bf69e4b692)"><g clip-path="url(#7eaceeb062)"><g clip-path="url(#6c4d188469)"><path fill="#80cc28" d="M 8.097656 89.839844 C 8.097656 89.839844 59.542969 85.675781 49.078125 124.648438 C 25.398438 135.359375 18.964844 116.757812 14.71875 102.925781 C 12.375 95.28125 8.097656 89.839844 8.097656 89.839844 " fill-opacity="1" fill-rule="nonzero"/></g></g></g></g><g clip-path="url(#22835ba011)"><g clip-path="url(#6fbc603862)"><g clip-path="url(#7da2ed9838)"><g clip-path="url(#bdf3c3a6c6)"><path fill="#80cc28" d="M 51.554688 121.40625 C 51.554688 121.40625 75.765625 93.695312 89.800781 118.808594 C 83.03125 136.058594 70.492188 129.753906 61.445312 124.796875 C 56.445312 122.058594 51.554688 121.40625 51.554688 121.40625 " fill-opacity="1" fill-rule="nonzero"/></g></g></g></g><g clip-path="url(#971b472cac)"><g clip-path="url(#ead60d9b2a)"><g clip-path="url(#3878a64639)"><g clip-path="url(#a086796bef)"><path fill="#1c6434" d="M 49.429688 155.757812 C 48.226562 154.554688 48.226562 152.609375 49.429688 151.40625 C 50.628906 150.207031 52.578125 150.207031 53.777344 151.40625 C 54.980469 152.609375 54.976562 154.554688 53.777344 155.753906 C 52.578125 156.957031 50.628906 156.957031 49.429688 155.757812 Z M 47.757812 157.425781 C 49.882812 159.550781 53.324219 159.550781 55.449219 157.425781 C 56.046875 156.828125 56.46875 156.121094 56.730469 155.371094 L 96.566406 155.375 L 109.386719 168.195312 L 131.082031 168.195312 L 146.359375 183.472656 L 148.785156 181.042969 L 132.503906 164.761719 L 110.808594 164.761719 L 97.988281 151.941406 L 56.785156 151.941406 C 56.53125 151.136719 56.085938 150.378906 55.445312 149.738281 C 53.324219 147.617188 49.882812 147.617188 47.761719 149.738281 C 45.636719 151.863281 45.636719 155.304688 47.757812 157.425781 " fill-opacity="1" fill-rule="nonzero"/></g></g></g></g><g clip-path="url(#f0883e592b)"><g clip-path="url(#8d28b3dbfa)"><g clip-path="url(#5db4f97c8f)"><g clip-path="url(#8d435bf032)"><path fill="#1c6434" d="M 40.957031 111.804688 C 42.15625 113.007812 42.160156 114.953125 40.957031 116.15625 C 39.757812 117.355469 37.808594 117.355469 36.609375 116.15625 C 35.40625 114.953125 35.40625 113.007812 36.605469 111.804688 C 37.808594 110.605469 39.757812 110.605469 40.957031 111.804688 Z M 42.628906 110.136719 C 40.503906 108.011719 37.0625 108.015625 34.9375 110.136719 C 32.816406 112.261719 32.816406 115.703125 34.941406 117.824219 C 36.691406 119.578125 39.339844 119.878906 41.40625 118.738281 L 63.953125 141.289062 L 104.175781 141.285156 L 122.082031 159.195312 L 124.507812 156.765625 L 105.597656 137.855469 L 65.375 137.855469 L 43.734375 116.214844 C 44.636719 114.210938 44.269531 111.78125 42.628906 110.136719 " fill-opacity="1" fill-rule="nonzero"/></g></g></g></g><g clip-path="url(#3c9b6b0540)"><g clip-path="url(#277fff43d6)"><g clip-path="url(#a89a52ca75)"><g clip-path="url(#54a87c333c)"><path fill="#80cc28" d="M 223.371094 365.8125 C 223.371094 365.8125 262.691406 332.378906 227.734375 312.21875 C 203.414062 321.390625 212.019531 339.09375 218.796875 351.875 C 222.546875 358.941406 223.371094 365.8125 223.371094 365.8125 " fill-opacity="1" fill-rule="nonzero"/></g></g></g></g><g clip-path="url(#03518b3415)"><g clip-path="url(#6d886eb4eb)"><g clip-path="url(#ed6012a80d)"><g clip-path="url(#99b98d0b21)"><path fill="#80cc28" d="M 291.289062 373.03125 C 291.289062 373.03125 295.453125 321.585938 256.480469 332.050781 C 245.769531 355.730469 264.371094 362.164062 278.203125 366.410156 C 285.851562 368.753906 291.289062 373.03125 291.289062 373.03125 " fill-opacity="1" fill-rule="nonzero"/></g></g></g></g><g clip-path="url(#79472457a3)"><g clip-path="url(#303b2e2516)"><g clip-path="url(#caff8862c7)"><g clip-path="url(#9d3567b514)"><path fill="#80cc28" d="M 259.722656 329.574219 C 259.722656 329.574219 287.433594 305.363281 262.320312 291.328125 C 245.074219 298.097656 251.375 310.636719 256.332031 319.6875 C 259.070312 324.6875 259.722656 329.574219 259.722656 329.574219 " fill-opacity="1" fill-rule="nonzero"/></g></g></g></g><g clip-path="url(#3c90f18df5)"><g clip-path="url(#a341a6e668)"><g clip-path="url(#6848950ff4)"><g clip-path="url(#69de388057)"><path fill="#1c6434" d="M 225.375 327.351562 C 226.574219 326.152344 228.523438 326.148438 229.722656 327.351562 C 230.925781 328.550781 230.921875 330.5 229.722656 331.699219 C 228.523438 332.902344 226.574219 332.902344 225.375 331.703125 C 224.171875 330.5 224.171875 328.554688 225.375 327.351562 Z M 231.390625 333.371094 C 233.515625 331.246094 233.511719 327.804688 231.390625 325.683594 C 230.753906 325.042969 229.992188 324.601562 229.191406 324.347656 L 229.191406 283.144531 L 216.367188 270.324219 L 216.367188 248.625 L 200.085938 232.34375 L 197.660156 234.769531 L 212.9375 250.046875 L 212.933594 271.746094 L 225.757812 284.566406 L 225.757812 324.398438 C 225.007812 324.660156 224.300781 325.082031 223.703125 325.683594 C 221.582031 327.804688 221.582031 331.246094 223.703125 333.371094 C 225.828125 335.492188 229.269531 335.492188 231.390625 333.371094 " fill-opacity="1" fill-rule="nonzero"/></g></g></g></g><g clip-path="url(#8a4d267d72)"><g clip-path="url(#9ae9d85f62)"><g clip-path="url(#54e2c31276)"><g clip-path="url(#617bca8c00)"><path fill="#1c6434" d="M 269.324219 344.523438 C 268.125 345.722656 266.175781 345.722656 264.972656 344.519531 C 263.773438 343.320312 263.773438 341.375 264.972656 340.171875 C 266.175781 338.972656 268.121094 338.96875 269.324219 340.171875 C 270.523438 341.371094 270.527344 343.320312 269.324219 344.523438 Z M 264.917969 337.398438 L 243.273438 315.753906 L 243.277344 275.53125 L 224.363281 256.621094 L 221.9375 259.046875 L 239.839844 276.953125 L 239.84375 317.175781 L 262.390625 339.726562 C 261.253906 341.792969 261.554688 344.4375 263.304688 346.191406 C 265.429688 348.3125 268.871094 348.3125 270.992188 346.191406 C 273.117188 344.070312 273.117188 340.625 270.992188 338.503906 C 269.351562 336.859375 266.917969 336.496094 264.917969 337.398438 " fill-opacity="1" fill-rule="nonzero"/></g></g></g></g><g clip-path="url(#fac3a320a7)"><g clip-path="url(#66d6d273ea)"><g clip-path="url(#011fcef2b3)"><g clip-path="url(#3652118eec)"><path fill="#1c6434" d="M 179.796875 85.34375 C 181 86.542969 181 88.492188 179.796875 89.691406 C 178.597656 90.894531 176.652344 90.894531 175.449219 89.691406 C 174.25 88.492188 174.25 86.546875 175.449219 85.34375 C 176.652344 84.140625 178.597656 84.140625 179.796875 85.34375 Z M 295.785156 201.332031 C 296.988281 202.535156 296.988281 204.476562 295.785156 205.679688 C 294.585938 206.882812 292.640625 206.882812 291.4375 205.679688 C 290.238281 204.480469 290.234375 202.53125 291.4375 201.332031 C 292.636719 200.128906 294.585938 200.128906 295.785156 201.332031 Z M 173.78125 91.363281 C 174.417969 92 175.179688 92.441406 175.984375 92.699219 L 175.984375 133.902344 L 188.804688 146.722656 L 188.804688 168.417969 L 212.710938 192.324219 L 234.410156 192.324219 L 247.230469 205.144531 L 288.433594 205.144531 C 288.6875 205.949219 289.128906 206.710938 289.769531 207.351562 C 291.890625 209.472656 295.332031 209.472656 297.457031 207.347656 C 299.578125 205.226562 299.578125 201.785156 297.457031 199.664062 C 295.332031 197.539062 291.890625 197.539062 289.769531 199.660156 C 289.167969 200.261719 288.746094 200.964844 288.484375 201.714844 L 248.652344 201.714844 L 235.832031 188.894531 L 214.132812 188.894531 L 192.238281 166.996094 L 192.238281 145.300781 L 179.417969 132.476562 L 179.417969 92.648438 C 180.164062 92.382812 180.871094 91.960938 181.46875 91.363281 C 183.59375 89.238281 183.589844 85.796875 181.46875 83.675781 C 179.34375 81.554688 175.90625 81.550781 173.78125 83.675781 C 171.65625 85.796875 171.65625 89.242188 173.78125 91.363281 " fill-opacity="1" fill-rule="nonzero"/></g></g></g></g><g clip-path="url(#06e84841d9)"><g clip-path="url(#51678b063b)"><g clip-path="url(#7ed7143431)"><g clip-path="url(#94f9201708)"><path fill="#1c6434" d="M 115.082031 77.285156 C 116.28125 78.484375 116.28125 80.433594 115.082031 81.632812 C 113.878906 82.835938 111.929688 82.835938 110.730469 81.636719 C 109.53125 80.433594 109.53125 78.484375 110.730469 77.285156 C 111.933594 76.082031 113.878906 76.085938 115.082031 77.285156 Z M 303.84375 266.050781 C 305.046875 267.25 305.046875 269.199219 303.847656 270.398438 C 302.644531 271.601562 300.695312 271.601562 299.496094 270.398438 C 298.292969 269.199219 298.292969 267.25 299.496094 266.050781 C 300.699219 264.847656 302.644531 264.847656 303.84375 266.050781 Z M 109.0625 83.304688 C 109.65625 83.898438 110.355469 84.320312 111.101562 84.582031 L 111.101562 109.832031 L 271.296875 270.03125 L 296.546875 270.03125 C 296.808594 270.773438 297.230469 271.472656 297.824219 272.066406 C 299.949219 274.191406 303.390625 274.191406 305.515625 272.070312 C 307.636719 269.945312 307.636719 266.503906 305.511719 264.378906 C 303.390625 262.257812 299.949219 262.257812 297.828125 264.378906 C 297.183594 265.023438 296.742188 265.785156 296.488281 266.59375 L 272.71875 266.597656 L 114.53125 108.410156 L 114.535156 84.644531 C 115.34375 84.386719 116.105469 83.945312 116.75 83.304688 C 118.871094 81.179688 118.871094 77.738281 116.75 75.617188 C 114.625 73.492188 111.183594 73.492188 109.0625 75.613281 C 106.9375 77.738281 106.9375 81.179688 109.0625 83.304688 " fill-opacity="1" fill-rule="nonzero"/></g></g></g></g><g clip-path="url(#1850521f23)"><g clip-path="url(#f3cd38b4c2)"><g clip-path="url(#e274b85dae)"><g clip-path="url(#0726c8efa1)"><path fill="#1c6434" d="M 195.394531 301.722656 C 194.195312 300.523438 194.191406 298.574219 195.394531 297.371094 C 196.59375 296.171875 198.542969 296.171875 199.746094 297.375 C 200.945312 298.574219 200.945312 300.523438 199.746094 301.722656 C 198.542969 302.921875 196.597656 302.925781 195.394531 301.722656 Z M 79.40625 185.734375 C 78.207031 184.535156 78.207031 182.585938 79.40625 181.386719 C 80.609375 180.183594 82.554688 180.183594 83.757812 181.386719 C 84.957031 182.585938 84.957031 184.535156 83.757812 185.734375 C 82.554688 186.933594 80.609375 186.9375 79.40625 185.734375 Z M 201.414062 295.703125 C 200.773438 295.066406 200.015625 294.621094 199.210938 294.367188 L 199.210938 253.164062 L 186.390625 240.34375 L 186.390625 218.648438 L 162.484375 194.742188 L 140.785156 194.742188 L 127.964844 181.917969 L 86.761719 181.917969 C 86.507812 181.113281 86.066406 180.355469 85.425781 179.714844 C 83.304688 177.59375 79.863281 177.59375 77.738281 179.71875 C 75.617188 181.839844 75.617188 185.28125 77.738281 187.402344 C 79.863281 189.527344 83.304688 189.527344 85.425781 187.40625 C 86.023438 186.804688 86.449219 186.101562 86.710938 185.351562 L 126.542969 185.351562 L 139.363281 198.171875 L 161.0625 198.171875 L 182.957031 220.070312 L 182.957031 241.765625 L 195.777344 254.585938 L 195.777344 294.421875 C 195.03125 294.683594 194.324219 295.105469 193.726562 295.703125 C 191.601562 297.828125 191.601562 301.269531 193.726562 303.390625 C 195.847656 305.515625 199.289062 305.515625 201.414062 303.390625 C 203.535156 301.269531 203.535156 297.828125 201.414062 295.703125 " fill-opacity="1" fill-rule="nonzero"/></g></g></g></g><g clip-path="url(#6b3fe5849d)"><g clip-path="url(#81f344397d)"><g clip-path="url(#f34a4950f4)"><g clip-path="url(#1d0ded4d4b)"><path fill="#1c6434" d="M 260.113281 309.78125 C 258.914062 308.578125 258.914062 306.632812 260.113281 305.429688 C 261.316406 304.230469 263.261719 304.230469 264.460938 305.429688 C 265.664062 306.632812 265.664062 308.582031 264.464844 309.78125 C 263.261719 310.984375 261.316406 310.980469 260.113281 309.78125 Z M 71.351562 121.015625 C 70.148438 119.816406 70.148438 117.867188 71.347656 116.664062 C 72.550781 115.464844 74.496094 115.464844 75.699219 116.667969 C 76.898438 117.867188 76.898438 119.816406 75.699219 121.015625 C 74.496094 122.21875 72.550781 122.214844 71.351562 121.015625 Z M 266.132812 303.761719 C 265.539062 303.167969 264.839844 302.746094 264.09375 302.484375 L 264.09375 277.234375 L 103.894531 117.035156 L 78.644531 117.039062 C 78.382812 116.292969 77.960938 115.59375 77.367188 115 C 75.246094 112.875 71.800781 112.875 69.679688 114.996094 C 67.558594 117.121094 67.558594 120.5625 69.679688 122.6875 C 71.800781 124.808594 75.246094 124.808594 77.367188 122.683594 C 78.007812 122.042969 78.453125 121.28125 78.707031 120.472656 L 102.472656 120.46875 L 260.660156 278.65625 L 260.660156 302.421875 C 259.851562 302.675781 259.085938 303.121094 258.445312 303.761719 C 256.324219 305.886719 256.324219 309.328125 258.445312 311.449219 C 260.566406 313.574219 264.011719 313.574219 266.132812 311.449219 C 268.257812 309.328125 268.253906 305.886719 266.132812 303.761719 " fill-opacity="1" fill-rule="nonzero"/></g></g></g></g><g clip-path="url(#1e8d461e11)"><path fill="#ffffff" d="M 241.21875 193.53125 C 241.21875 177.523438 234.734375 163.027344 224.238281 152.535156 C 213.742188 142.042969 199.25 135.554688 183.242188 135.554688 C 167.230469 135.554688 152.734375 142.042969 142.246094 152.535156 C 131.753906 163.03125 125.261719 177.523438 125.261719 193.53125 C 125.261719 209.542969 131.75 224.039062 142.246094 234.53125 C 152.738281 245.019531 167.230469 251.511719 183.242188 251.511719 C 199.25 251.511719 213.746094 245.023438 224.238281 234.53125 C 234.734375 224.039062 241.21875 209.546875 241.21875 193.53125 Z M 241.21875 193.53125 " fill-opacity="1" fill-rule="evenodd"/></g><path fill="#ffffff" d="M 171.117188 167.808594 L 158.574219 167.808594 C 158.691406 167.339844 158.757812 166.855469 158.757812 166.347656 C 158.757812 165.84375 158.695312 165.355469 158.574219 164.886719 L 171.117188 164.886719 C 171.921875 164.886719 172.574219 165.539062 172.574219 166.34375 C 172.574219 167.152344 171.921875 167.808594 171.117188 167.808594 Z M 208.085938 167.808594 L 195.414062 167.808594 C 194.609375 167.808594 193.953125 167.152344 193.953125 166.347656 C 193.953125 165.542969 194.605469 164.886719 195.414062 164.886719 L 208.085938 164.886719 C 207.960938 165.355469 207.894531 165.84375 207.894531 166.347656 C 207.898438 166.855469 207.964844 167.34375 208.085938 167.808594 Z M 208.085938 167.808594 " fill-opacity="1" fill-rule="evenodd"/><path fill="#ffffff" d="M 200.917969 198.558594 C 200.917969 208.277344 193.011719 216.179688 183.296875 216.179688 C 173.582031 216.179688 165.675781 208.277344 165.675781 198.558594 C 165.675781 198.207031 165.886719 197.902344 166.191406 197.777344 C 164.542969 197.179688 162.910156 196.34375 161.304688 195.28125 L 155.722656 195.28125 L 155.722656 201.839844 L 164.261719 201.839844 C 164.664062 201.839844 165.007812 202.117188 165.09375 202.511719 C 165.21875 203.09375 165.375 203.675781 165.558594 204.238281 C 165.679688 204.617188 165.519531 205.035156 165.175781 205.234375 L 157.78125 209.503906 L 161.058594 215.183594 L 168.460938 210.910156 C 168.808594 210.710938 169.25 210.777344 169.515625 211.074219 C 169.917969 211.515625 170.339844 211.941406 170.777344 212.339844 C 171.074219 212.605469 171.144531 213.046875 170.945312 213.394531 L 166.671875 220.792969 L 172.351562 224.074219 L 176.621094 216.675781 C 176.820312 216.332031 177.234375 216.171875 177.617188 216.292969 C 178.191406 216.476562 178.769531 216.632812 179.339844 216.757812 C 179.734375 216.84375 180.011719 217.1875 180.011719 217.589844 L 180.011719 226.128906 L 186.574219 226.128906 L 186.574219 217.589844 C 186.574219 217.1875 186.851562 216.84375 187.246094 216.757812 C 187.824219 216.632812 188.40625 216.476562 188.972656 216.292969 C 189.351562 216.175781 189.769531 216.332031 189.96875 216.679688 L 194.238281 224.074219 L 199.917969 220.792969 L 195.648438 213.394531 C 195.449219 213.046875 195.515625 212.605469 195.816406 212.339844 C 196.257812 211.9375 196.683594 211.515625 197.078125 211.074219 C 197.347656 210.777344 197.789062 210.710938 198.132812 210.910156 L 205.535156 215.179688 L 208.8125 209.503906 L 201.414062 205.226562 C 201.066406 205.027344 200.90625 204.609375 201.027344 204.230469 C 201.210938 203.660156 201.363281 203.078125 201.488281 202.503906 C 201.574219 202.109375 201.921875 201.828125 202.324219 201.828125 L 210.863281 201.828125 L 210.863281 195.269531 L 205.277344 195.269531 C 203.671875 196.335938 202.042969 197.164062 200.390625 197.765625 C 200.703125 197.90625 200.917969 198.207031 200.917969 198.558594 Z M 200.917969 198.558594 " fill-opacity="1" fill-rule="evenodd"/><path fill="#ffffff" d="M 180.667969 196.804688 C 179.65625 197.40625 176.703125 198.921875 172.519531 198.921875 C 171.234375 198.921875 169.824219 198.78125 168.328125 198.417969 C 167.96875 198.335938 167.617188 198.238281 167.257812 198.128906 C 167.332031 198.253906 167.375 198.402344 167.375 198.554688 C 167.375 207.332031 174.515625 214.476562 183.296875 214.476562 C 192.074219 214.476562 199.21875 207.335938 199.21875 198.554688 C 199.21875 198.398438 199.257812 198.253906 199.335938 198.128906 C 198.976562 198.234375 198.621094 198.332031 198.265625 198.417969 C 196.769531 198.777344 195.363281 198.917969 194.078125 198.917969 C 189.898438 198.917969 186.9375 197.40625 185.925781 196.800781 C 182.71875 198.527344 183.617188 198.503906 180.667969 196.804688 Z M 180.667969 196.804688 " fill-opacity="1" fill-rule="evenodd"/><path fill="#ffffff" d="M 217.503906 178.570312 L 187.664062 195.796875 C 189.449219 196.636719 193.175781 197.898438 197.902344 196.753906 C 200.117188 196.21875 202.296875 195.242188 204.421875 193.832031 C 204.496094 193.753906 204.59375 193.6875 204.695312 193.644531 C 209.199219 190.566406 213.484375 185.523438 217.503906 178.570312 Z M 217.503906 178.570312 " fill-opacity="1" fill-rule="evenodd"/><path fill="#ffffff" d="M 191.722656 185.414062 C 190.707031 188.859375 188.832031 191.242188 187.148438 192.796875 C 187.035156 193.339844 186.96875 193.832031 186.925781 194.253906 L 216.363281 177.257812 C 205.210938 177.316406 197.027344 179.703125 191.996094 184.355469 C 191.917969 184.710938 191.824219 185.066406 191.722656 185.414062 Z M 191.722656 185.414062 " fill-opacity="1" fill-rule="evenodd"/><path fill="#ffffff" d="M 184.050781 160.929688 L 184.050781 193.03125 C 185.699219 191.964844 188.769531 189.453125 190.101562 184.894531 C 190.207031 184.53125 190.300781 184.160156 190.378906 183.785156 C 190.386719 183.753906 190.390625 183.71875 190.398438 183.683594 C 191.695312 177.496094 189.5625 169.855469 184.050781 160.929688 Z M 184.050781 160.929688 " fill-opacity="1" fill-rule="evenodd"/><path fill="#ffffff" d="M 176.5 184.9375 C 177.792969 189.320312 180.667969 191.792969 182.347656 192.914062 L 182.347656 161.246094 C 176.976562 170.027344 174.910156 177.554688 176.183594 183.671875 C 176.199219 183.714844 176.207031 183.761719 176.210938 183.8125 C 176.292969 184.191406 176.390625 184.566406 176.5 184.9375 Z M 176.5 184.9375 " fill-opacity="1" fill-rule="evenodd"/><path fill="#ffffff" d="M 150.222656 177.257812 L 179.65625 194.253906 C 179.617188 193.832031 179.550781 193.34375 179.4375 192.796875 C 177.746094 191.242188 175.878906 188.859375 174.863281 185.414062 C 174.761719 185.066406 174.667969 184.710938 174.585938 184.355469 C 169.558594 179.703125 161.371094 177.316406 150.222656 177.257812 Z M 150.222656 177.257812 " fill-opacity="1" fill-rule="evenodd"/><path fill="#ffffff" d="M 149.082031 178.570312 C 153.101562 185.523438 157.382812 190.5625 161.882812 193.640625 C 161.992188 193.683594 162.085938 193.746094 162.167969 193.832031 C 164.292969 195.242188 166.464844 196.21875 168.679688 196.753906 C 173.410156 197.894531 177.136719 196.636719 178.917969 195.796875 Z M 149.082031 178.570312 " fill-opacity="1" fill-rule="evenodd"/><path fill="#ffffff" d="M 209.835938 166.347656 C 209.835938 168.378906 211.488281 170.027344 213.515625 170.027344 C 215.546875 170.027344 217.199219 168.378906 217.199219 166.347656 C 217.203125 164.316406 215.546875 162.664062 213.515625 162.664062 C 211.492188 162.664062 209.835938 164.316406 209.835938 166.347656 Z M 209.835938 166.347656 " fill-opacity="1" fill-rule="evenodd"/><path fill="#ffffff" d="M 152.894531 162.429688 C 150.734375 162.429688 148.972656 164.191406 148.972656 166.351562 C 148.972656 168.507812 150.734375 170.265625 152.894531 170.265625 C 155.054688 170.265625 156.8125 168.507812 156.8125 166.351562 C 156.8125 164.1875 155.054688 162.429688 152.894531 162.429688 Z M 152.894531 162.429688 " fill-opacity="1" fill-rule="evenodd"/></svg>