<svg xmlns="http://www.w3.org/2000/svg" xmlns:xlink="http://www.w3.org/1999/xlink" width="500" zoomAndPan="magnify" viewBox="0 0 375 374.999991" height="500" preserveAspectRatio="xMidYMid meet" version="1.0"><defs><clipPath id="8014fcf15d"><path d="M 76 202 L 112 202 L 112 223 L 76 223 Z M 76 202 " clip-rule="nonzero"/></clipPath><clipPath id="f63e1de986"><path d="M 5.554688 187.5 L 187.457031 5.597656 L 369.359375 187.5 L 187.457031 369.402344 Z M 5.554688 187.5 " clip-rule="nonzero"/></clipPath><clipPath id="81ff77f07d"><path d="M 5.554688 187.5 L 187.457031 5.597656 L 369.359375 187.5 L 187.457031 369.402344 Z M 5.554688 187.5 " clip-rule="nonzero"/></clipPath><clipPath id="d7714909d5"><path d="M 5.554688 187.5 L 187.457031 5.597656 L 369.359375 187.5 L 187.457031 369.402344 Z M 5.554688 187.5 " clip-rule="nonzero"/></clipPath><clipPath id="36f76531d0"><path d="M 72 229 L 100 229 L 100 255 L 72 255 Z M 72 229 " clip-rule="nonzero"/></clipPath><clipPath id="f6eba7a630"><path d="M 5.554688 187.5 L 187.457031 5.597656 L 369.359375 187.5 L 187.457031 369.402344 Z M 5.554688 187.5 " clip-rule="nonzero"/></clipPath><clipPath id="0d1db52f3c"><path d="M 5.554688 187.5 L 187.457031 5.597656 L 369.359375 187.5 L 187.457031 369.402344 Z M 5.554688 187.5 " clip-rule="nonzero"/></clipPath><clipPath id="b8d7953b7e"><path d="M 5.554688 187.5 L 187.457031 5.597656 L 369.359375 187.5 L 187.457031 369.402344 Z M 5.554688 187.5 " clip-rule="nonzero"/></clipPath><clipPath id="3691c0d560"><path d="M 100 228 L 125 228 L 125 243 L 100 243 Z M 100 228 " clip-rule="nonzero"/></clipPath><clipPath id="7c239d354f"><path d="M 5.554688 187.5 L 187.457031 5.597656 L 369.359375 187.5 L 187.457031 369.402344 Z M 5.554688 187.5 " clip-rule="nonzero"/></clipPath><clipPath id="b66deef610"><path d="M 5.554688 187.5 L 187.457031 5.597656 L 369.359375 187.5 L 187.457031 369.402344 Z M 5.554688 187.5 " clip-rule="nonzero"/></clipPath><clipPath id="e5466f2cfd"><path d="M 5.554688 187.5 L 187.457031 5.597656 L 369.359375 187.5 L 187.457031 369.402344 Z M 5.554688 187.5 " clip-rule="nonzero"/></clipPath><clipPath id="019b48410a"><path d="M 96 193 L 163 193 L 163 217 L 96 217 Z M 96 193 " clip-rule="nonzero"/></clipPath><clipPath id="54083ff391"><path d="M 5.554688 187.5 L 187.457031 5.597656 L 369.359375 187.5 L 187.457031 369.402344 Z M 5.554688 187.5 " clip-rule="nonzero"/></clipPath><clipPath id="e9c4eac764"><path d="M 5.554688 187.5 L 187.457031 5.597656 L 369.359375 187.5 L 187.457031 369.402344 Z M 5.554688 187.5 " clip-rule="nonzero"/></clipPath><clipPath id="4e44d2227d"><path d="M 5.554688 187.5 L 187.457031 5.597656 L 369.359375 187.5 L 187.457031 369.402344 Z M 5.554688 187.5 " clip-rule="nonzero"/></clipPath><clipPath id="538069c4da"><path d="M 88 209 L 147 209 L 147 243 L 88 243 Z M 88 209 " clip-rule="nonzero"/></clipPath><clipPath id="27f3df90c8"><path d="M 5.554688 187.5 L 187.457031 5.597656 L 369.359375 187.5 L 187.457031 369.402344 Z M 5.554688 187.5 " clip-rule="nonzero"/></clipPath><clipPath id="72dda25fc4"><path d="M 5.554688 187.5 L 187.457031 5.597656 L 369.359375 187.5 L 187.457031 369.402344 Z M 5.554688 187.5 " clip-rule="nonzero"/></clipPath><clipPath id="16708dbab7"><path d="M 5.554688 187.5 L 187.457031 5.597656 L 369.359375 187.5 L 187.457031 369.402344 Z M 5.554688 187.5 " clip-rule="nonzero"/></clipPath><clipPath id="75811af823"><path d="M 202 76 L 223 76 L 223 112 L 202 112 Z M 202 76 " clip-rule="nonzero"/></clipPath><clipPath id="174cf49398"><path d="M 5.554688 187.5 L 187.457031 5.597656 L 369.359375 187.5 L 187.457031 369.402344 Z M 5.554688 187.5 " clip-rule="nonzero"/></clipPath><clipPath id="9ca1d80f75"><path d="M 5.554688 187.5 L 187.457031 5.597656 L 369.359375 187.5 L 187.457031 369.402344 Z M 5.554688 187.5 " clip-rule="nonzero"/></clipPath><clipPath id="105f08f41e"><path d="M 5.554688 187.5 L 187.457031 5.597656 L 369.359375 187.5 L 187.457031 369.402344 Z M 5.554688 187.5 " clip-rule="nonzero"/></clipPath><clipPath id="31a2a6a533"><path d="M 229 72 L 255 72 L 255 100 L 229 100 Z M 229 72 " clip-rule="nonzero"/></clipPath><clipPath id="0128234b68"><path d="M 5.554688 187.5 L 187.457031 5.597656 L 369.359375 187.5 L 187.457031 369.402344 Z M 5.554688 187.5 " clip-rule="nonzero"/></clipPath><clipPath id="667e563e18"><path d="M 5.554688 187.5 L 187.457031 5.597656 L 369.359375 187.5 L 187.457031 369.402344 Z M 5.554688 187.5 " clip-rule="nonzero"/></clipPath><clipPath id="95506c4f9a"><path d="M 5.554688 187.5 L 187.457031 5.597656 L 369.359375 187.5 L 187.457031 369.402344 Z M 5.554688 187.5 " clip-rule="nonzero"/></clipPath><clipPath id="a4ac98bad0"><path d="M 228 100 L 243 100 L 243 125 L 228 125 Z M 228 100 " clip-rule="nonzero"/></clipPath><clipPath id="deef07010e"><path d="M 5.554688 187.5 L 187.457031 5.597656 L 369.359375 187.5 L 187.457031 369.402344 Z M 5.554688 187.5 " clip-rule="nonzero"/></clipPath><clipPath id="54337ff4be"><path d="M 5.554688 187.5 L 187.457031 5.597656 L 369.359375 187.5 L 187.457031 369.402344 Z M 5.554688 187.5 " clip-rule="nonzero"/></clipPath><clipPath id="fc78ccc51f"><path d="M 5.554688 187.5 L 187.457031 5.597656 L 369.359375 187.5 L 187.457031 369.402344 Z M 5.554688 187.5 " clip-rule="nonzero"/></clipPath><clipPath id="d231aef120"><path d="M 193 96 L 217 96 L 217 163 L 193 163 Z M 193 96 " clip-rule="nonzero"/></clipPath><clipPath id="e8821166a5"><path d="M 5.554688 187.5 L 187.457031 5.597656 L 369.359375 187.5 L 187.457031 369.402344 Z M 5.554688 187.5 " clip-rule="nonzero"/></clipPath><clipPath id="7c0f7e96ec"><path d="M 5.554688 187.5 L 187.457031 5.597656 L 369.359375 187.5 L 187.457031 369.402344 Z M 5.554688 187.5 " clip-rule="nonzero"/></clipPath><clipPath id="75f36bcc5a"><path d="M 5.554688 187.5 L 187.457031 5.597656 L 369.359375 187.5 L 187.457031 369.402344 Z M 5.554688 187.5 " clip-rule="nonzero"/></clipPath><clipPath id="fe15e666dd"><path d="M 209 88 L 243 88 L 243 147 L 209 147 Z M 209 88 " clip-rule="nonzero"/></clipPath><clipPath id="ccb9c5fbdf"><path d="M 5.554688 187.5 L 187.457031 5.597656 L 369.359375 187.5 L 187.457031 369.402344 Z M 5.554688 187.5 " clip-rule="nonzero"/></clipPath><clipPath id="74d24222d6"><path d="M 5.554688 187.5 L 187.457031 5.597656 L 369.359375 187.5 L 187.457031 369.402344 Z M 5.554688 187.5 " clip-rule="nonzero"/></clipPath><clipPath id="8f4567fa07"><path d="M 5.554688 187.5 L 187.457031 5.597656 L 369.359375 187.5 L 187.457031 369.402344 Z M 5.554688 187.5 " clip-rule="nonzero"/></clipPath><clipPath id="fe744b92b4"><path d="M 152 263 L 173 263 L 173 299 L 152 299 Z M 152 263 " clip-rule="nonzero"/></clipPath><clipPath id="9c373f8f14"><path d="M 5.554688 187.5 L 187.457031 5.597656 L 369.359375 187.5 L 187.457031 369.402344 Z M 5.554688 187.5 " clip-rule="nonzero"/></clipPath><clipPath id="c2484ef9b1"><path d="M 5.554688 187.5 L 187.457031 5.597656 L 369.359375 187.5 L 187.457031 369.402344 Z M 5.554688 187.5 " clip-rule="nonzero"/></clipPath><clipPath id="0f3f0bfd3f"><path d="M 5.554688 187.5 L 187.457031 5.597656 L 369.359375 187.5 L 187.457031 369.402344 Z M 5.554688 187.5 " clip-rule="nonzero"/></clipPath><clipPath id="066776ea9a"><path d="M 120 275 L 146 275 L 146 303 L 120 303 Z M 120 275 " clip-rule="nonzero"/></clipPath><clipPath id="a860c61e09"><path d="M 5.554688 187.5 L 187.457031 5.597656 L 369.359375 187.5 L 187.457031 369.402344 Z M 5.554688 187.5 " clip-rule="nonzero"/></clipPath><clipPath id="58e82906f2"><path d="M 5.554688 187.5 L 187.457031 5.597656 L 369.359375 187.5 L 187.457031 369.402344 Z M 5.554688 187.5 " clip-rule="nonzero"/></clipPath><clipPath id="1b39cd2d87"><path d="M 5.554688 187.5 L 187.457031 5.597656 L 369.359375 187.5 L 187.457031 369.402344 Z M 5.554688 187.5 " clip-rule="nonzero"/></clipPath><clipPath id="48e764c5c2"><path d="M 132 250 L 147 250 L 147 275 L 132 275 Z M 132 250 " clip-rule="nonzero"/></clipPath><clipPath id="bf0bc7fd8a"><path d="M 5.554688 187.5 L 187.457031 5.597656 L 369.359375 187.5 L 187.457031 369.402344 Z M 5.554688 187.5 " clip-rule="nonzero"/></clipPath><clipPath id="12067b1606"><path d="M 5.554688 187.5 L 187.457031 5.597656 L 369.359375 187.5 L 187.457031 369.402344 Z M 5.554688 187.5 " clip-rule="nonzero"/></clipPath><clipPath id="7371309beb"><path d="M 5.554688 187.5 L 187.457031 5.597656 L 369.359375 187.5 L 187.457031 369.402344 Z M 5.554688 187.5 " clip-rule="nonzero"/></clipPath><clipPath id="26033a1c7c"><path d="M 158 212 L 181 212 L 181 279 L 158 279 Z M 158 212 " clip-rule="nonzero"/></clipPath><clipPath id="6652c77861"><path d="M 5.554688 187.5 L 187.457031 5.597656 L 369.359375 187.5 L 187.457031 369.402344 Z M 5.554688 187.5 " clip-rule="nonzero"/></clipPath><clipPath id="538daa5e6b"><path d="M 5.554688 187.5 L 187.457031 5.597656 L 369.359375 187.5 L 187.457031 369.402344 Z M 5.554688 187.5 " clip-rule="nonzero"/></clipPath><clipPath id="7d6cc0bc13"><path d="M 5.554688 187.5 L 187.457031 5.597656 L 369.359375 187.5 L 187.457031 369.402344 Z M 5.554688 187.5 " clip-rule="nonzero"/></clipPath><clipPath id="5fc7fd0e06"><path d="M 132 228 L 166 228 L 166 287 L 132 287 Z M 132 228 " clip-rule="nonzero"/></clipPath><clipPath id="d51e312501"><path d="M 5.554688 187.5 L 187.457031 5.597656 L 369.359375 187.5 L 187.457031 369.402344 Z M 5.554688 187.5 " clip-rule="nonzero"/></clipPath><clipPath id="c866cb6b37"><path d="M 5.554688 187.5 L 187.457031 5.597656 L 369.359375 187.5 L 187.457031 369.402344 Z M 5.554688 187.5 " clip-rule="nonzero"/></clipPath><clipPath id="e83b3e15d1"><path d="M 5.554688 187.5 L 187.457031 5.597656 L 369.359375 187.5 L 187.457031 369.402344 Z M 5.554688 187.5 " clip-rule="nonzero"/></clipPath><clipPath id="66aece5df9"><path d="M 263 152 L 299 152 L 299 173 L 263 173 Z M 263 152 " clip-rule="nonzero"/></clipPath><clipPath id="c4f29ae937"><path d="M 5.554688 187.5 L 187.457031 5.597656 L 369.359375 187.5 L 187.457031 369.402344 Z M 5.554688 187.5 " clip-rule="nonzero"/></clipPath><clipPath id="c32bfc9171"><path d="M 5.554688 187.5 L 187.457031 5.597656 L 369.359375 187.5 L 187.457031 369.402344 Z M 5.554688 187.5 " clip-rule="nonzero"/></clipPath><clipPath id="985d7d13a0"><path d="M 5.554688 187.5 L 187.457031 5.597656 L 369.359375 187.5 L 187.457031 369.402344 Z M 5.554688 187.5 " clip-rule="nonzero"/></clipPath><clipPath id="1245292951"><path d="M 275 120 L 303 120 L 303 146 L 275 146 Z M 275 120 " clip-rule="nonzero"/></clipPath><clipPath id="c0c0d4ed87"><path d="M 5.554688 187.5 L 187.457031 5.597656 L 369.359375 187.5 L 187.457031 369.402344 Z M 5.554688 187.5 " clip-rule="nonzero"/></clipPath><clipPath id="b2ae844c09"><path d="M 5.554688 187.5 L 187.457031 5.597656 L 369.359375 187.5 L 187.457031 369.402344 Z M 5.554688 187.5 " clip-rule="nonzero"/></clipPath><clipPath id="bc6638e299"><path d="M 5.554688 187.5 L 187.457031 5.597656 L 369.359375 187.5 L 187.457031 369.402344 Z M 5.554688 187.5 " clip-rule="nonzero"/></clipPath><clipPath id="641371a17e"><path d="M 250 132 L 275 132 L 275 147 L 250 147 Z M 250 132 " clip-rule="nonzero"/></clipPath><clipPath id="94d021b402"><path d="M 5.554688 187.5 L 187.457031 5.597656 L 369.359375 187.5 L 187.457031 369.402344 Z M 5.554688 187.5 " clip-rule="nonzero"/></clipPath><clipPath id="647574f4a2"><path d="M 5.554688 187.5 L 187.457031 5.597656 L 369.359375 187.5 L 187.457031 369.402344 Z M 5.554688 187.5 " clip-rule="nonzero"/></clipPath><clipPath id="ce4ad0b7b4"><path d="M 5.554688 187.5 L 187.457031 5.597656 L 369.359375 187.5 L 187.457031 369.402344 Z M 5.554688 187.5 " clip-rule="nonzero"/></clipPath><clipPath id="ebdc1d065b"><path d="M 212 158 L 279 158 L 279 182 L 212 182 Z M 212 158 " clip-rule="nonzero"/></clipPath><clipPath id="9defcd965d"><path d="M 5.554688 187.5 L 187.457031 5.597656 L 369.359375 187.5 L 187.457031 369.402344 Z M 5.554688 187.5 " clip-rule="nonzero"/></clipPath><clipPath id="c8622c0716"><path d="M 5.554688 187.5 L 187.457031 5.597656 L 369.359375 187.5 L 187.457031 369.402344 Z M 5.554688 187.5 " clip-rule="nonzero"/></clipPath><clipPath id="fb0aae0b41"><path d="M 5.554688 187.5 L 187.457031 5.597656 L 369.359375 187.5 L 187.457031 369.402344 Z M 5.554688 187.5 " clip-rule="nonzero"/></clipPath><clipPath id="45c516391b"><path d="M 227 132 L 287 132 L 287 166 L 227 166 Z M 227 132 " clip-rule="nonzero"/></clipPath><clipPath id="8f5f6f7889"><path d="M 5.554688 187.5 L 187.457031 5.597656 L 369.359375 187.5 L 187.457031 369.402344 Z M 5.554688 187.5 " clip-rule="nonzero"/></clipPath><clipPath id="802f0f6651"><path d="M 5.554688 187.5 L 187.457031 5.597656 L 369.359375 187.5 L 187.457031 369.402344 Z M 5.554688 187.5 " clip-rule="nonzero"/></clipPath><clipPath id="7ababc9588"><path d="M 5.554688 187.5 L 187.457031 5.597656 L 369.359375 187.5 L 187.457031 369.402344 Z M 5.554688 187.5 " clip-rule="nonzero"/></clipPath><clipPath id="7cd11c4368"><path d="M 115 115 L 198 115 L 198 198 L 115 198 Z M 115 115 " clip-rule="nonzero"/></clipPath><clipPath id="9248bfbf15"><path d="M 5.554688 187.5 L 187.457031 5.597656 L 369.359375 187.5 L 187.457031 369.402344 Z M 5.554688 187.5 " clip-rule="nonzero"/></clipPath><clipPath id="25dddd7e54"><path d="M 5.554688 187.5 L 187.457031 5.597656 L 369.359375 187.5 L 187.457031 369.402344 Z M 5.554688 187.5 " clip-rule="nonzero"/></clipPath><clipPath id="ac7c8bc918"><path d="M 5.554688 187.5 L 187.457031 5.597656 L 369.359375 187.5 L 187.457031 369.402344 Z M 5.554688 187.5 " clip-rule="nonzero"/></clipPath><clipPath id="58045d8132"><path d="M 110 110 L 239 110 L 239 239 L 110 239 Z M 110 110 " clip-rule="nonzero"/></clipPath><clipPath id="860fe45a26"><path d="M 5.554688 187.5 L 187.457031 5.597656 L 369.359375 187.5 L 187.457031 369.402344 Z M 5.554688 187.5 " clip-rule="nonzero"/></clipPath><clipPath id="229d55fcc8"><path d="M 5.554688 187.5 L 187.457031 5.597656 L 369.359375 187.5 L 187.457031 369.402344 Z M 5.554688 187.5 " clip-rule="nonzero"/></clipPath><clipPath id="6855aa2050"><path d="M 5.554688 187.5 L 187.457031 5.597656 L 369.359375 187.5 L 187.457031 369.402344 Z M 5.554688 187.5 " clip-rule="nonzero"/></clipPath><clipPath id="1cc91a4fc9"><path d="M 177 177 L 260 177 L 260 260 L 177 260 Z M 177 177 " clip-rule="nonzero"/></clipPath><clipPath id="681c0916d4"><path d="M 5.554688 187.5 L 187.457031 5.597656 L 369.359375 187.5 L 187.457031 369.402344 Z M 5.554688 187.5 " clip-rule="nonzero"/></clipPath><clipPath id="f1d8145123"><path d="M 5.554688 187.5 L 187.457031 5.597656 L 369.359375 187.5 L 187.457031 369.402344 Z M 5.554688 187.5 " clip-rule="nonzero"/></clipPath><clipPath id="d46b3cd64d"><path d="M 5.554688 187.5 L 187.457031 5.597656 L 369.359375 187.5 L 187.457031 369.402344 Z M 5.554688 187.5 " clip-rule="nonzero"/></clipPath><clipPath id="83b8886293"><path d="M 135 136 L 265 136 L 265 265 L 135 265 Z M 135 136 " clip-rule="nonzero"/></clipPath><clipPath id="994abcc868"><path d="M 5.554688 187.5 L 187.457031 5.597656 L 369.359375 187.5 L 187.457031 369.402344 Z M 5.554688 187.5 " clip-rule="nonzero"/></clipPath><clipPath id="f4335083ce"><path d="M 5.554688 187.5 L 187.457031 5.597656 L 369.359375 187.5 L 187.457031 369.402344 Z M 5.554688 187.5 " clip-rule="nonzero"/></clipPath><clipPath id="3f5838e396"><path d="M 5.554688 187.5 L 187.457031 5.597656 L 369.359375 187.5 L 187.457031 369.402344 Z M 5.554688 187.5 " clip-rule="nonzero"/></clipPath><clipPath id="304aa96314"><path d="M 152 76 L 173 76 L 173 112 L 152 112 Z M 152 76 " clip-rule="nonzero"/></clipPath><clipPath id="ac842ae020"><path d="M 5.554688 187.5 L 187.457031 5.597656 L 369.359375 187.5 L 187.457031 369.402344 Z M 5.554688 187.5 " clip-rule="nonzero"/></clipPath><clipPath id="a3deab0ee2"><path d="M 5.554688 187.5 L 187.457031 5.597656 L 369.359375 187.5 L 187.457031 369.402344 Z M 5.554688 187.5 " clip-rule="nonzero"/></clipPath><clipPath id="f544a0b2d9"><path d="M 5.554688 187.5 L 187.457031 5.597656 L 369.359375 187.5 L 187.457031 369.402344 Z M 5.554688 187.5 " clip-rule="nonzero"/></clipPath><clipPath id="1a7c464c33"><path d="M 120 72 L 146 72 L 146 100 L 120 100 Z M 120 72 " clip-rule="nonzero"/></clipPath><clipPath id="351c656711"><path d="M 5.554688 187.5 L 187.457031 5.597656 L 369.359375 187.5 L 187.457031 369.402344 Z M 5.554688 187.5 " clip-rule="nonzero"/></clipPath><clipPath id="779c7fc030"><path d="M 5.554688 187.5 L 187.457031 5.597656 L 369.359375 187.5 L 187.457031 369.402344 Z M 5.554688 187.5 " clip-rule="nonzero"/></clipPath><clipPath id="6d35e5b73e"><path d="M 5.554688 187.5 L 187.457031 5.597656 L 369.359375 187.5 L 187.457031 369.402344 Z M 5.554688 187.5 " clip-rule="nonzero"/></clipPath><clipPath id="597effbdc3"><path d="M 132 100 L 147 100 L 147 125 L 132 125 Z M 132 100 " clip-rule="nonzero"/></clipPath><clipPath id="a577581604"><path d="M 5.554688 187.5 L 187.457031 5.597656 L 369.359375 187.5 L 187.457031 369.402344 Z M 5.554688 187.5 " clip-rule="nonzero"/></clipPath><clipPath id="21b4b30804"><path d="M 5.554688 187.5 L 187.457031 5.597656 L 369.359375 187.5 L 187.457031 369.402344 Z M 5.554688 187.5 " clip-rule="nonzero"/></clipPath><clipPath id="90eb860727"><path d="M 5.554688 187.5 L 187.457031 5.597656 L 369.359375 187.5 L 187.457031 369.402344 Z M 5.554688 187.5 " clip-rule="nonzero"/></clipPath><clipPath id="d8fa2c0549"><path d="M 158 96 L 181 96 L 181 163 L 158 163 Z M 158 96 " clip-rule="nonzero"/></clipPath><clipPath id="0421e2d3a0"><path d="M 5.554688 187.5 L 187.457031 5.597656 L 369.359375 187.5 L 187.457031 369.402344 Z M 5.554688 187.5 " clip-rule="nonzero"/></clipPath><clipPath id="96efa9b85a"><path d="M 5.554688 187.5 L 187.457031 5.597656 L 369.359375 187.5 L 187.457031 369.402344 Z M 5.554688 187.5 " clip-rule="nonzero"/></clipPath><clipPath id="64ac60d7b7"><path d="M 5.554688 187.5 L 187.457031 5.597656 L 369.359375 187.5 L 187.457031 369.402344 Z M 5.554688 187.5 " clip-rule="nonzero"/></clipPath><clipPath id="4c4dbb5876"><path d="M 132 88 L 166 88 L 166 147 L 132 147 Z M 132 88 " clip-rule="nonzero"/></clipPath><clipPath id="1b6f7e83da"><path d="M 5.554688 187.5 L 187.457031 5.597656 L 369.359375 187.5 L 187.457031 369.402344 Z M 5.554688 187.5 " clip-rule="nonzero"/></clipPath><clipPath id="d7ea2435bb"><path d="M 5.554688 187.5 L 187.457031 5.597656 L 369.359375 187.5 L 187.457031 369.402344 Z M 5.554688 187.5 " clip-rule="nonzero"/></clipPath><clipPath id="5e5c2134b9"><path d="M 5.554688 187.5 L 187.457031 5.597656 L 369.359375 187.5 L 187.457031 369.402344 Z M 5.554688 187.5 " clip-rule="nonzero"/></clipPath><clipPath id="6311dfb8e0"><path d="M 263 202 L 299 202 L 299 223 L 263 223 Z M 263 202 " clip-rule="nonzero"/></clipPath><clipPath id="ace96f52a9"><path d="M 5.554688 187.5 L 187.457031 5.597656 L 369.359375 187.5 L 187.457031 369.402344 Z M 5.554688 187.5 " clip-rule="nonzero"/></clipPath><clipPath id="799f239d9f"><path d="M 5.554688 187.5 L 187.457031 5.597656 L 369.359375 187.5 L 187.457031 369.402344 Z M 5.554688 187.5 " clip-rule="nonzero"/></clipPath><clipPath id="660af64397"><path d="M 5.554688 187.5 L 187.457031 5.597656 L 369.359375 187.5 L 187.457031 369.402344 Z M 5.554688 187.5 " clip-rule="nonzero"/></clipPath><clipPath id="de1c911853"><path d="M 275 229 L 303 229 L 303 255 L 275 255 Z M 275 229 " clip-rule="nonzero"/></clipPath><clipPath id="4284086aa7"><path d="M 5.554688 187.5 L 187.457031 5.597656 L 369.359375 187.5 L 187.457031 369.402344 Z M 5.554688 187.5 " clip-rule="nonzero"/></clipPath><clipPath id="22bd86d9c9"><path d="M 5.554688 187.5 L 187.457031 5.597656 L 369.359375 187.5 L 187.457031 369.402344 Z M 5.554688 187.5 " clip-rule="nonzero"/></clipPath><clipPath id="b26692651f"><path d="M 5.554688 187.5 L 187.457031 5.597656 L 369.359375 187.5 L 187.457031 369.402344 Z M 5.554688 187.5 " clip-rule="nonzero"/></clipPath><clipPath id="76f1df8e65"><path d="M 250 228 L 275 228 L 275 243 L 250 243 Z M 250 228 " clip-rule="nonzero"/></clipPath><clipPath id="3c69fc34ca"><path d="M 5.554688 187.5 L 187.457031 5.597656 L 369.359375 187.5 L 187.457031 369.402344 Z M 5.554688 187.5 " clip-rule="nonzero"/></clipPath><clipPath id="d1f56c5fca"><path d="M 5.554688 187.5 L 187.457031 5.597656 L 369.359375 187.5 L 187.457031 369.402344 Z M 5.554688 187.5 " clip-rule="nonzero"/></clipPath><clipPath id="605852ddab"><path d="M 5.554688 187.5 L 187.457031 5.597656 L 369.359375 187.5 L 187.457031 369.402344 Z M 5.554688 187.5 " clip-rule="nonzero"/></clipPath><clipPath id="6f40d07cd4"><path d="M 212 193 L 279 193 L 279 217 L 212 217 Z M 212 193 " clip-rule="nonzero"/></clipPath><clipPath id="861aca66d4"><path d="M 5.554688 187.5 L 187.457031 5.597656 L 369.359375 187.5 L 187.457031 369.402344 Z M 5.554688 187.5 " clip-rule="nonzero"/></clipPath><clipPath id="17940f537d"><path d="M 5.554688 187.5 L 187.457031 5.597656 L 369.359375 187.5 L 187.457031 369.402344 Z M 5.554688 187.5 " clip-rule="nonzero"/></clipPath><clipPath id="5d63eae6e9"><path d="M 5.554688 187.5 L 187.457031 5.597656 L 369.359375 187.5 L 187.457031 369.402344 Z M 5.554688 187.5 " clip-rule="nonzero"/></clipPath><clipPath id="889cdfdbeb"><path d="M 227 209 L 287 209 L 287 243 L 227 243 Z M 227 209 " clip-rule="nonzero"/></clipPath><clipPath id="2914234de5"><path d="M 5.554688 187.5 L 187.457031 5.597656 L 369.359375 187.5 L 187.457031 369.402344 Z M 5.554688 187.5 " clip-rule="nonzero"/></clipPath><clipPath id="1022e94fbe"><path d="M 5.554688 187.5 L 187.457031 5.597656 L 369.359375 187.5 L 187.457031 369.402344 Z M 5.554688 187.5 " clip-rule="nonzero"/></clipPath><clipPath id="bb2bb47f8d"><path d="M 5.554688 187.5 L 187.457031 5.597656 L 369.359375 187.5 L 187.457031 369.402344 Z M 5.554688 187.5 " clip-rule="nonzero"/></clipPath><clipPath id="6e20d9ca95"><path d="M 76 152 L 112 152 L 112 173 L 76 173 Z M 76 152 " clip-rule="nonzero"/></clipPath><clipPath id="bb5208aa63"><path d="M 5.554688 187.5 L 187.457031 5.597656 L 369.359375 187.5 L 187.457031 369.402344 Z M 5.554688 187.5 " clip-rule="nonzero"/></clipPath><clipPath id="47d9b00ab1"><path d="M 5.554688 187.5 L 187.457031 5.597656 L 369.359375 187.5 L 187.457031 369.402344 Z M 5.554688 187.5 " clip-rule="nonzero"/></clipPath><clipPath id="3bc33acc76"><path d="M 5.554688 187.5 L 187.457031 5.597656 L 369.359375 187.5 L 187.457031 369.402344 Z M 5.554688 187.5 " clip-rule="nonzero"/></clipPath><clipPath id="52ac2681c2"><path d="M 72 120 L 100 120 L 100 146 L 72 146 Z M 72 120 " clip-rule="nonzero"/></clipPath><clipPath id="073d5c1de2"><path d="M 5.554688 187.5 L 187.457031 5.597656 L 369.359375 187.5 L 187.457031 369.402344 Z M 5.554688 187.5 " clip-rule="nonzero"/></clipPath><clipPath id="69064cca90"><path d="M 5.554688 187.5 L 187.457031 5.597656 L 369.359375 187.5 L 187.457031 369.402344 Z M 5.554688 187.5 " clip-rule="nonzero"/></clipPath><clipPath id="95ab3b55c1"><path d="M 5.554688 187.5 L 187.457031 5.597656 L 369.359375 187.5 L 187.457031 369.402344 Z M 5.554688 187.5 " clip-rule="nonzero"/></clipPath><clipPath id="a39816b550"><path d="M 100 132 L 125 132 L 125 147 L 100 147 Z M 100 132 " clip-rule="nonzero"/></clipPath><clipPath id="0ac7ebafcf"><path d="M 5.554688 187.5 L 187.457031 5.597656 L 369.359375 187.5 L 187.457031 369.402344 Z M 5.554688 187.5 " clip-rule="nonzero"/></clipPath><clipPath id="a5e2c7ed83"><path d="M 5.554688 187.5 L 187.457031 5.597656 L 369.359375 187.5 L 187.457031 369.402344 Z M 5.554688 187.5 " clip-rule="nonzero"/></clipPath><clipPath id="43f37bdfcf"><path d="M 5.554688 187.5 L 187.457031 5.597656 L 369.359375 187.5 L 187.457031 369.402344 Z M 5.554688 187.5 " clip-rule="nonzero"/></clipPath><clipPath id="1bc3865635"><path d="M 96 158 L 163 158 L 163 182 L 96 182 Z M 96 158 " clip-rule="nonzero"/></clipPath><clipPath id="f90d8498d7"><path d="M 5.554688 187.5 L 187.457031 5.597656 L 369.359375 187.5 L 187.457031 369.402344 Z M 5.554688 187.5 " clip-rule="nonzero"/></clipPath><clipPath id="627aa8ba13"><path d="M 5.554688 187.5 L 187.457031 5.597656 L 369.359375 187.5 L 187.457031 369.402344 Z M 5.554688 187.5 " clip-rule="nonzero"/></clipPath><clipPath id="752ab265dc"><path d="M 5.554688 187.5 L 187.457031 5.597656 L 369.359375 187.5 L 187.457031 369.402344 Z M 5.554688 187.5 " clip-rule="nonzero"/></clipPath><clipPath id="12bee86184"><path d="M 88 132 L 147 132 L 147 166 L 88 166 Z M 88 132 " clip-rule="nonzero"/></clipPath><clipPath id="cd295ec48a"><path d="M 5.554688 187.5 L 187.457031 5.597656 L 369.359375 187.5 L 187.457031 369.402344 Z M 5.554688 187.5 " clip-rule="nonzero"/></clipPath><clipPath id="f07d57a15a"><path d="M 5.554688 187.5 L 187.457031 5.597656 L 369.359375 187.5 L 187.457031 369.402344 Z M 5.554688 187.5 " clip-rule="nonzero"/></clipPath><clipPath id="05e047c4d2"><path d="M 5.554688 187.5 L 187.457031 5.597656 L 369.359375 187.5 L 187.457031 369.402344 Z M 5.554688 187.5 " clip-rule="nonzero"/></clipPath><clipPath id="09e1dba3a4"><path d="M 202 263 L 223 263 L 223 299 L 202 299 Z M 202 263 " clip-rule="nonzero"/></clipPath><clipPath id="876778a21e"><path d="M 5.554688 187.5 L 187.457031 5.597656 L 369.359375 187.5 L 187.457031 369.402344 Z M 5.554688 187.5 " clip-rule="nonzero"/></clipPath><clipPath id="488916c308"><path d="M 5.554688 187.5 L 187.457031 5.597656 L 369.359375 187.5 L 187.457031 369.402344 Z M 5.554688 187.5 " clip-rule="nonzero"/></clipPath><clipPath id="46d40cdd43"><path d="M 5.554688 187.5 L 187.457031 5.597656 L 369.359375 187.5 L 187.457031 369.402344 Z M 5.554688 187.5 " clip-rule="nonzero"/></clipPath><clipPath id="77bac54af9"><path d="M 229 275 L 255 275 L 255 303 L 229 303 Z M 229 275 " clip-rule="nonzero"/></clipPath><clipPath id="f8802e02c9"><path d="M 5.554688 187.5 L 187.457031 5.597656 L 369.359375 187.5 L 187.457031 369.402344 Z M 5.554688 187.5 " clip-rule="nonzero"/></clipPath><clipPath id="d1e29a2789"><path d="M 5.554688 187.5 L 187.457031 5.597656 L 369.359375 187.5 L 187.457031 369.402344 Z M 5.554688 187.5 " clip-rule="nonzero"/></clipPath><clipPath id="54a908967b"><path d="M 5.554688 187.5 L 187.457031 5.597656 L 369.359375 187.5 L 187.457031 369.402344 Z M 5.554688 187.5 " clip-rule="nonzero"/></clipPath><clipPath id="c8646fcac2"><path d="M 228 250 L 243 250 L 243 275 L 228 275 Z M 228 250 " clip-rule="nonzero"/></clipPath><clipPath id="92d708020d"><path d="M 5.554688 187.5 L 187.457031 5.597656 L 369.359375 187.5 L 187.457031 369.402344 Z M 5.554688 187.5 " clip-rule="nonzero"/></clipPath><clipPath id="4d6403e001"><path d="M 5.554688 187.5 L 187.457031 5.597656 L 369.359375 187.5 L 187.457031 369.402344 Z M 5.554688 187.5 " clip-rule="nonzero"/></clipPath><clipPath id="125256ec63"><path d="M 5.554688 187.5 L 187.457031 5.597656 L 369.359375 187.5 L 187.457031 369.402344 Z M 5.554688 187.5 " clip-rule="nonzero"/></clipPath><clipPath id="d1c6e316c1"><path d="M 193 212 L 217 212 L 217 279 L 193 279 Z M 193 212 " clip-rule="nonzero"/></clipPath><clipPath id="89a1aab9ad"><path d="M 5.554688 187.5 L 187.457031 5.597656 L 369.359375 187.5 L 187.457031 369.402344 Z M 5.554688 187.5 " clip-rule="nonzero"/></clipPath><clipPath id="07484bfc3d"><path d="M 5.554688 187.5 L 187.457031 5.597656 L 369.359375 187.5 L 187.457031 369.402344 Z M 5.554688 187.5 " clip-rule="nonzero"/></clipPath><clipPath id="6f5db877f9"><path d="M 5.554688 187.5 L 187.457031 5.597656 L 369.359375 187.5 L 187.457031 369.402344 Z M 5.554688 187.5 " clip-rule="nonzero"/></clipPath><clipPath id="8294a7d00e"><path d="M 209 228 L 243 228 L 243 287 L 209 287 Z M 209 228 " clip-rule="nonzero"/></clipPath><clipPath id="b5b4215e5b"><path d="M 5.554688 187.5 L 187.457031 5.597656 L 369.359375 187.5 L 187.457031 369.402344 Z M 5.554688 187.5 " clip-rule="nonzero"/></clipPath><clipPath id="0ca9d6d852"><path d="M 5.554688 187.5 L 187.457031 5.597656 L 369.359375 187.5 L 187.457031 369.402344 Z M 5.554688 187.5 " clip-rule="nonzero"/></clipPath><clipPath id="5dcae97075"><path d="M 5.554688 187.5 L 187.457031 5.597656 L 369.359375 187.5 L 187.457031 369.402344 Z M 5.554688 187.5 " clip-rule="nonzero"/></clipPath><clipPath id="9c785e8e37"><path d="M 177 115 L 260 115 L 260 198 L 177 198 Z M 177 115 " clip-rule="nonzero"/></clipPath><clipPath id="9694e87ea3"><path d="M 5.554688 187.5 L 187.457031 5.597656 L 369.359375 187.5 L 187.457031 369.402344 Z M 5.554688 187.5 " clip-rule="nonzero"/></clipPath><clipPath id="a717236454"><path d="M 5.554688 187.5 L 187.457031 5.597656 L 369.359375 187.5 L 187.457031 369.402344 Z M 5.554688 187.5 " clip-rule="nonzero"/></clipPath><clipPath id="e4cdaa1e40"><path d="M 5.554688 187.5 L 187.457031 5.597656 L 369.359375 187.5 L 187.457031 369.402344 Z M 5.554688 187.5 " clip-rule="nonzero"/></clipPath><clipPath id="574113566a"><path d="M 135 110 L 265 110 L 265 239 L 135 239 Z M 135 110 " clip-rule="nonzero"/></clipPath><clipPath id="8f1ca80522"><path d="M 5.554688 187.5 L 187.457031 5.597656 L 369.359375 187.5 L 187.457031 369.402344 Z M 5.554688 187.5 " clip-rule="nonzero"/></clipPath><clipPath id="cdf4b1a898"><path d="M 5.554688 187.5 L 187.457031 5.597656 L 369.359375 187.5 L 187.457031 369.402344 Z M 5.554688 187.5 " clip-rule="nonzero"/></clipPath><clipPath id="87425e5d90"><path d="M 5.554688 187.5 L 187.457031 5.597656 L 369.359375 187.5 L 187.457031 369.402344 Z M 5.554688 187.5 " clip-rule="nonzero"/></clipPath><clipPath id="0ecbf84749"><path d="M 115 177 L 198 177 L 198 260 L 115 260 Z M 115 177 " clip-rule="nonzero"/></clipPath><clipPath id="2543c70387"><path d="M 5.554688 187.5 L 187.457031 5.597656 L 369.359375 187.5 L 187.457031 369.402344 Z M 5.554688 187.5 " clip-rule="nonzero"/></clipPath><clipPath id="80b08ffb16"><path d="M 5.554688 187.5 L 187.457031 5.597656 L 369.359375 187.5 L 187.457031 369.402344 Z M 5.554688 187.5 " clip-rule="nonzero"/></clipPath><clipPath id="548ac6184b"><path d="M 5.554688 187.5 L 187.457031 5.597656 L 369.359375 187.5 L 187.457031 369.402344 Z M 5.554688 187.5 " clip-rule="nonzero"/></clipPath><clipPath id="007916a17b"><path d="M 110 136 L 239 136 L 239 265 L 110 265 Z M 110 136 " clip-rule="nonzero"/></clipPath><clipPath id="d29c8c10ad"><path d="M 5.554688 187.5 L 187.457031 5.597656 L 369.359375 187.5 L 187.457031 369.402344 Z M 5.554688 187.5 " clip-rule="nonzero"/></clipPath><clipPath id="3b298db21b"><path d="M 5.554688 187.5 L 187.457031 5.597656 L 369.359375 187.5 L 187.457031 369.402344 Z M 5.554688 187.5 " clip-rule="nonzero"/></clipPath><clipPath id="df3e54ee58"><path d="M 5.554688 187.5 L 187.457031 5.597656 L 369.359375 187.5 L 187.457031 369.402344 Z M 5.554688 187.5 " clip-rule="nonzero"/></clipPath><clipPath id="8d00a24ef5"><path d="M 149.667969 149.667969 L 225.417969 149.667969 L 225.417969 225.417969 L 149.667969 225.417969 Z M 149.667969 149.667969 " clip-rule="nonzero"/></clipPath><clipPath id="2f811da8db"><path d="M 161.363281 182.160156 L 163.484375 182.160156 L 163.484375 215.628906 L 161.363281 215.628906 Z M 161.363281 182.160156 " clip-rule="nonzero"/></clipPath><clipPath id="770574f5d0"><path d="M 211.816406 182.160156 L 213.933594 182.160156 L 213.933594 215.628906 L 211.816406 215.628906 Z M 211.816406 182.160156 " clip-rule="nonzero"/></clipPath><clipPath id="f232465b35"><path d="M 182 213 L 193 213 L 193 215.667969 L 182 215.667969 Z M 182 213 " clip-rule="nonzero"/></clipPath><clipPath id="7f52a4634a"><path d="M 157.996094 212.503906 L 166.851562 212.503906 L 166.851562 215.628906 L 157.996094 215.628906 Z M 157.996094 212.503906 " clip-rule="nonzero"/></clipPath><clipPath id="a36bfcfe8b"><path d="M 208.445312 212.503906 L 217.242188 212.503906 L 217.242188 215.628906 L 208.445312 215.628906 Z M 208.445312 212.503906 " clip-rule="nonzero"/></clipPath><clipPath id="78a0f99cb1"><path d="M 170 149.667969 L 206 149.667969 L 206 180 L 170 180 Z M 170 149.667969 " clip-rule="nonzero"/></clipPath></defs><g clip-path="url(#8014fcf15d)"><g clip-path="url(#f63e1de986)"><g clip-path="url(#81ff77f07d)"><g clip-path="url(#d7714909d5)"><path fill="#80cc28" d="M 76.800781 210.476562 C 76.800781 210.476562 98.273438 235.734375 111.222656 213.277344 C 105.332031 197.660156 93.960938 203.1875 85.75 207.542969 C 81.210938 209.949219 76.800781 210.476562 76.800781 210.476562 " fill-opacity="1" fill-rule="nonzero"/></g></g></g></g><g clip-path="url(#36f76531d0)"><g clip-path="url(#f6eba7a630)"><g clip-path="url(#0d1db52f3c)"><g clip-path="url(#b8d7953b7e)"><path fill="#80cc28" d="M 72.164062 254.105469 C 72.164062 254.105469 105.207031 256.777344 98.484375 231.742188 C 83.273438 224.863281 79.140625 236.8125 76.414062 245.699219 C 74.910156 250.609375 72.164062 254.105469 72.164062 254.105469 " fill-opacity="1" fill-rule="nonzero"/></g></g></g></g><g clip-path="url(#3691c0d560)"><g clip-path="url(#7c239d354f)"><g clip-path="url(#b66deef610)"><g clip-path="url(#e5466f2cfd)"><path fill="#80cc28" d="M 100.074219 233.828125 C 100.074219 233.828125 115.625 251.628906 124.640625 235.496094 C 120.292969 224.417969 112.238281 228.464844 106.425781 231.648438 C 103.214844 233.40625 100.074219 233.828125 100.074219 233.828125 " fill-opacity="1" fill-rule="nonzero"/></g></g></g></g><g clip-path="url(#019b48410a)"><g clip-path="url(#54083ff391)"><g clip-path="url(#e9c4eac764)"><g clip-path="url(#4e44d2227d)"><path fill="#1c6434" d="M 101.503906 211.765625 C 102.273438 212.535156 102.273438 213.785156 101.503906 214.558594 C 100.730469 215.328125 99.480469 215.328125 98.710938 214.558594 C 97.9375 213.785156 97.9375 212.535156 98.710938 211.765625 C 99.480469 210.992188 100.730469 210.992188 101.503906 211.765625 Z M 97.636719 215.628906 C 99 216.992188 101.210938 216.992188 102.574219 215.628906 C 102.984375 215.21875 103.269531 214.730469 103.433594 214.214844 L 129.898438 214.214844 L 138.132812 205.980469 L 152.070312 205.980469 L 162.527344 195.519531 L 160.96875 193.960938 L 151.15625 203.773438 L 137.21875 203.773438 L 128.984375 212.011719 L 103.398438 212.011719 C 103.230469 211.527344 102.960938 211.074219 102.574219 210.691406 C 101.210938 209.328125 99 209.328125 97.636719 210.691406 C 96.273438 212.054688 96.273438 214.265625 97.636719 215.628906 " fill-opacity="1" fill-rule="nonzero"/></g></g></g></g><g clip-path="url(#538069c4da)"><g clip-path="url(#27f3df90c8)"><g clip-path="url(#72dda25fc4)"><g clip-path="url(#16708dbab7)"><path fill="#1c6434" d="M 90.472656 239.992188 C 89.703125 239.222656 89.703125 237.972656 90.472656 237.199219 C 91.246094 236.429688 92.496094 236.429688 93.265625 237.199219 C 94.039062 237.972656 94.039062 239.222656 93.269531 239.996094 C 92.496094 240.765625 91.246094 240.765625 90.472656 239.992188 Z M 95.050781 237.164062 L 108.953125 223.261719 L 134.789062 223.261719 L 146.9375 211.113281 L 145.375 209.554688 L 133.875 221.058594 L 108.039062 221.054688 L 93.554688 235.539062 C 92.226562 234.808594 90.527344 235.003906 89.402344 236.128906 C 88.039062 237.492188 88.039062 239.703125 89.402344 241.066406 C 90.765625 242.429688 92.976562 242.429688 94.339844 241.066406 C 95.394531 240.011719 95.628906 238.449219 95.050781 237.164062 " fill-opacity="1" fill-rule="nonzero"/></g></g></g></g><g clip-path="url(#75811af823)"><g clip-path="url(#174cf49398)"><g clip-path="url(#9ca1d80f75)"><g clip-path="url(#105f08f41e)"><path fill="#80cc28" d="M 210.433594 76.839844 C 210.433594 76.839844 235.691406 98.316406 213.238281 111.265625 C 197.617188 105.375 203.144531 94.003906 207.5 85.792969 C 209.90625 81.253906 210.433594 76.839844 210.433594 76.839844 " fill-opacity="1" fill-rule="nonzero"/></g></g></g></g><g clip-path="url(#31a2a6a533)"><g clip-path="url(#0128234b68)"><g clip-path="url(#667e563e18)"><g clip-path="url(#95506c4f9a)"><path fill="#80cc28" d="M 254.0625 72.203125 C 254.0625 72.203125 256.734375 105.246094 231.703125 98.527344 C 224.820312 83.316406 236.769531 79.183594 245.65625 76.457031 C 250.566406 74.949219 254.0625 72.203125 254.0625 72.203125 " fill-opacity="1" fill-rule="nonzero"/></g></g></g></g><g clip-path="url(#a4ac98bad0)"><g clip-path="url(#deef07010e)"><g clip-path="url(#54337ff4be)"><g clip-path="url(#fc78ccc51f)"><path fill="#80cc28" d="M 233.785156 100.117188 C 233.785156 100.117188 251.585938 115.667969 235.453125 124.683594 C 224.375 120.335938 228.425781 112.28125 231.609375 106.46875 C 233.367188 103.257812 233.785156 100.117188 233.785156 100.117188 " fill-opacity="1" fill-rule="nonzero"/></g></g></g></g><g clip-path="url(#d231aef120)"><g clip-path="url(#e8821166a5)"><g clip-path="url(#7c0f7e96ec)"><g clip-path="url(#75f36bcc5a)"><path fill="#1c6434" d="M 211.722656 98.75 C 212.496094 97.980469 213.742188 97.980469 214.515625 98.75 C 215.289062 99.523438 215.289062 100.773438 214.515625 101.542969 C 213.742188 102.316406 212.496094 102.316406 211.722656 101.542969 C 210.949219 100.773438 210.949219 99.523438 211.722656 98.75 Z M 210.652344 97.679688 C 209.285156 99.042969 209.285156 101.253906 210.648438 102.617188 C 211.035156 103 211.488281 103.273438 211.96875 103.441406 L 211.96875 129.027344 L 203.734375 137.261719 L 203.734375 151.199219 L 193.921875 161.011719 L 195.480469 162.570312 L 205.9375 152.113281 L 205.9375 138.175781 L 214.171875 129.941406 L 214.171875 103.472656 C 214.691406 103.3125 215.175781 103.027344 215.585938 102.617188 C 216.949219 101.253906 216.953125 99.042969 215.585938 97.679688 C 214.222656 96.316406 212.011719 96.316406 210.652344 97.679688 " fill-opacity="1" fill-rule="nonzero"/></g></g></g></g><g clip-path="url(#fe15e666dd)"><g clip-path="url(#ccb9c5fbdf)"><g clip-path="url(#74d24222d6)"><g clip-path="url(#8f4567fa07)"><path fill="#1c6434" d="M 239.953125 93.308594 C 239.179688 94.082031 237.929688 94.082031 237.160156 93.308594 C 236.386719 92.539062 236.386719 91.289062 237.160156 90.515625 C 237.929688 89.746094 239.183594 89.746094 239.953125 90.515625 C 240.722656 91.285156 240.722656 92.539062 239.953125 93.308594 Z M 241.023438 94.382812 C 242.390625 93.019531 242.386719 90.808594 241.023438 89.441406 C 239.660156 88.082031 237.449219 88.078125 236.085938 89.445312 C 234.960938 90.570312 234.769531 92.269531 235.5 93.597656 L 221.015625 108.078125 L 221.015625 133.917969 L 209.515625 145.417969 L 211.074219 146.976562 L 223.222656 134.828125 L 223.222656 108.996094 L 237.125 95.09375 C 238.40625 95.671875 239.96875 95.4375 241.023438 94.382812 " fill-opacity="1" fill-rule="nonzero"/></g></g></g></g><g clip-path="url(#fe744b92b4)"><g clip-path="url(#9c373f8f14)"><g clip-path="url(#c2484ef9b1)"><g clip-path="url(#0f3f0bfd3f)"><path fill="#80cc28" d="M 164.480469 298.15625 C 164.480469 298.15625 139.222656 276.683594 161.679688 263.734375 C 177.296875 269.625 171.769531 280.996094 167.414062 289.207031 C 165.007812 293.746094 164.480469 298.15625 164.480469 298.15625 " fill-opacity="1" fill-rule="nonzero"/></g></g></g></g><g clip-path="url(#066776ea9a)"><g clip-path="url(#a860c61e09)"><g clip-path="url(#58e82906f2)"><g clip-path="url(#1b39cd2d87)"><path fill="#80cc28" d="M 120.851562 302.792969 C 120.851562 302.792969 118.179688 269.75 143.214844 276.472656 C 150.09375 291.683594 138.144531 295.816406 129.257812 298.542969 C 124.347656 300.046875 120.851562 302.792969 120.851562 302.792969 " fill-opacity="1" fill-rule="nonzero"/></g></g></g></g><g clip-path="url(#48e764c5c2)"><g clip-path="url(#bf0bc7fd8a)"><g clip-path="url(#12067b1606)"><g clip-path="url(#7371309beb)"><path fill="#80cc28" d="M 141.128906 274.882812 C 141.128906 274.882812 123.328125 259.332031 139.460938 250.316406 C 150.539062 254.664062 146.492188 262.71875 143.308594 268.53125 C 141.546875 271.742188 141.128906 274.882812 141.128906 274.882812 " fill-opacity="1" fill-rule="nonzero"/></g></g></g></g><g clip-path="url(#26033a1c7c)"><g clip-path="url(#6652c77861)"><g clip-path="url(#538daa5e6b)"><g clip-path="url(#7d6cc0bc13)"><path fill="#1c6434" d="M 163.191406 276.246094 C 162.421875 277.019531 161.171875 277.019531 160.398438 276.246094 C 159.628906 275.476562 159.628906 274.226562 160.398438 273.453125 C 161.171875 272.683594 162.421875 272.683594 163.191406 273.453125 C 163.964844 274.226562 163.964844 275.476562 163.191406 276.246094 Z M 164.265625 277.320312 C 165.628906 275.957031 165.628906 273.746094 164.265625 272.382812 C 163.878906 271.996094 163.429688 271.726562 162.945312 271.558594 L 162.945312 245.972656 L 171.183594 237.734375 L 171.183594 223.800781 L 180.996094 213.988281 L 179.4375 212.425781 L 168.976562 222.886719 L 168.976562 236.824219 L 160.742188 245.058594 L 160.742188 271.523438 C 160.226562 271.6875 159.738281 271.972656 159.328125 272.382812 C 157.964844 273.746094 157.964844 275.957031 159.328125 277.320312 C 160.691406 278.683594 162.902344 278.683594 164.265625 277.320312 " fill-opacity="1" fill-rule="nonzero"/></g></g></g></g><g clip-path="url(#5fc7fd0e06)"><g clip-path="url(#d51e312501)"><g clip-path="url(#c866cb6b37)"><g clip-path="url(#e83b3e15d1)"><path fill="#1c6434" d="M 134.960938 281.6875 C 135.734375 280.917969 136.984375 280.917969 137.753906 281.6875 C 138.527344 282.460938 138.527344 283.710938 137.757812 284.484375 C 136.984375 285.253906 135.734375 285.253906 134.960938 284.480469 C 134.191406 283.710938 134.191406 282.460938 134.960938 281.6875 Z M 133.890625 280.617188 C 132.527344 281.980469 132.527344 284.191406 133.890625 285.554688 C 135.253906 286.917969 137.464844 286.917969 138.828125 285.554688 C 139.953125 284.429688 140.148438 282.726562 139.417969 281.402344 L 153.898438 266.917969 L 153.898438 241.082031 L 165.402344 229.578125 L 163.84375 228.019531 L 151.695312 240.167969 L 151.695312 266.003906 L 137.792969 279.90625 C 136.507812 279.328125 134.945312 279.5625 133.890625 280.617188 " fill-opacity="1" fill-rule="nonzero"/></g></g></g></g><g clip-path="url(#66aece5df9)"><g clip-path="url(#c4f29ae937)"><g clip-path="url(#c32bfc9171)"><g clip-path="url(#985d7d13a0)"><path fill="#80cc28" d="M 298.117188 164.523438 C 298.117188 164.523438 276.640625 139.265625 263.691406 161.71875 C 269.582031 177.339844 280.953125 171.8125 289.164062 167.457031 C 293.703125 165.050781 298.117188 164.523438 298.117188 164.523438 " fill-opacity="1" fill-rule="nonzero"/></g></g></g></g><g clip-path="url(#1245292951)"><g clip-path="url(#c0c0d4ed87)"><g clip-path="url(#b2ae844c09)"><g clip-path="url(#bc6638e299)"><path fill="#80cc28" d="M 302.753906 120.894531 C 302.753906 120.894531 269.707031 118.222656 276.429688 143.253906 C 291.640625 150.136719 295.773438 138.1875 298.5 129.300781 C 300.007812 124.390625 302.753906 120.894531 302.753906 120.894531 " fill-opacity="1" fill-rule="nonzero"/></g></g></g></g><g clip-path="url(#641371a17e)"><g clip-path="url(#94d021b402)"><g clip-path="url(#647574f4a2)"><g clip-path="url(#ce4ad0b7b4)"><path fill="#80cc28" d="M 274.839844 141.171875 C 274.839844 141.171875 259.289062 123.371094 250.273438 139.503906 C 254.621094 150.582031 262.675781 146.53125 268.488281 143.347656 C 271.699219 141.589844 274.839844 141.171875 274.839844 141.171875 " fill-opacity="1" fill-rule="nonzero"/></g></g></g></g><g clip-path="url(#ebdc1d065b)"><g clip-path="url(#9defcd965d)"><g clip-path="url(#c8622c0716)"><g clip-path="url(#fb0aae0b41)"><path fill="#1c6434" d="M 273.414062 163.234375 C 272.640625 162.460938 272.640625 161.210938 273.414062 160.441406 C 274.183594 159.667969 275.433594 159.667969 276.207031 160.441406 C 276.976562 161.210938 276.976562 162.460938 276.207031 163.234375 C 275.433594 164.003906 274.183594 164.003906 273.414062 163.234375 Z M 277.277344 159.367188 C 275.914062 158.003906 273.703125 158.003906 272.339844 159.367188 C 271.929688 159.777344 271.644531 160.265625 271.484375 160.785156 L 245.015625 160.785156 L 236.78125 169.019531 L 222.84375 169.019531 L 212.386719 179.476562 L 213.945312 181.035156 L 223.757812 171.222656 L 237.695312 171.222656 L 245.929688 162.988281 L 271.515625 162.988281 C 271.683594 163.46875 271.953125 163.921875 272.339844 164.308594 C 273.703125 165.671875 275.914062 165.667969 277.277344 164.304688 C 278.640625 162.941406 278.640625 160.734375 277.277344 159.367188 " fill-opacity="1" fill-rule="nonzero"/></g></g></g></g><g clip-path="url(#45c516391b)"><g clip-path="url(#8f5f6f7889)"><g clip-path="url(#802f0f6651)"><g clip-path="url(#7ababc9588)"><path fill="#1c6434" d="M 284.441406 135.003906 C 285.210938 135.773438 285.210938 137.027344 284.441406 137.796875 C 283.667969 138.570312 282.417969 138.570312 281.648438 137.796875 C 280.875 137.027344 280.875 135.777344 281.648438 135.003906 C 282.417969 134.234375 283.671875 134.234375 284.441406 135.003906 Z M 279.863281 137.832031 L 265.960938 151.734375 L 240.128906 151.734375 L 227.980469 163.882812 L 229.539062 165.441406 L 241.039062 153.941406 L 266.878906 153.941406 L 281.359375 139.457031 C 282.6875 140.1875 284.386719 139.996094 285.511719 138.871094 C 286.878906 137.507812 286.875 135.296875 285.511719 133.929688 C 284.148438 132.570312 281.9375 132.566406 280.574219 133.933594 C 279.519531 134.988281 279.285156 136.550781 279.863281 137.832031 " fill-opacity="1" fill-rule="nonzero"/></g></g></g></g><g clip-path="url(#7cd11c4368)"><g clip-path="url(#9248bfbf15)"><g clip-path="url(#25dddd7e54)"><g clip-path="url(#ac7c8bc918)"><path fill="#1c6434" d="M 117.964844 192.507812 C 118.738281 191.738281 119.988281 191.734375 120.757812 192.507812 C 121.53125 193.28125 121.53125 194.53125 120.757812 195.300781 C 119.988281 196.074219 118.738281 196.074219 117.964844 195.300781 C 117.195312 194.53125 117.195312 193.28125 117.964844 192.507812 Z M 192.46875 118.007812 C 193.238281 117.234375 194.488281 117.234375 195.261719 118.007812 C 196.03125 118.777344 196.03125 120.027344 195.261719 120.800781 C 194.488281 121.570312 193.238281 121.574219 192.464844 120.800781 C 191.695312 120.027344 191.695312 118.777344 192.46875 118.007812 Z M 121.832031 196.375 C 122.238281 195.964844 122.523438 195.476562 122.6875 194.957031 L 149.152344 194.957031 L 157.390625 186.722656 L 171.328125 186.722656 L 186.683594 171.367188 L 186.683594 157.429688 L 194.917969 149.195312 L 194.917969 122.730469 C 195.433594 122.566406 195.921875 122.28125 196.332031 121.871094 C 197.695312 120.507812 197.695312 118.300781 196.332031 116.933594 C 194.96875 115.570312 192.757812 115.570312 191.394531 116.933594 C 190.03125 118.300781 190.03125 120.507812 191.394531 121.871094 C 191.777344 122.257812 192.230469 122.527344 192.710938 122.699219 L 192.710938 148.28125 L 184.476562 156.515625 L 184.476562 170.453125 L 170.414062 184.519531 L 156.476562 184.519531 L 148.242188 192.753906 L 122.65625 192.753906 C 122.488281 192.273438 122.214844 191.820312 121.832031 191.4375 C 120.46875 190.070312 118.257812 190.074219 116.894531 191.4375 C 115.53125 192.800781 115.527344 195.007812 116.894531 196.375 C 118.257812 197.738281 120.464844 197.738281 121.832031 196.375 " fill-opacity="1" fill-rule="nonzero"/></g></g></g></g><g clip-path="url(#58045d8132)"><g clip-path="url(#860fe45a26)"><g clip-path="url(#229d55fcc8)"><g clip-path="url(#6855aa2050)"><path fill="#1c6434" d="M 112.789062 234.078125 C 113.558594 233.308594 114.8125 233.308594 115.582031 234.078125 C 116.355469 234.847656 116.355469 236.101562 115.582031 236.871094 C 114.8125 237.644531 113.558594 237.644531 112.789062 236.871094 C 112.019531 236.101562 112.015625 234.851562 112.789062 234.078125 Z M 234.035156 112.832031 C 234.808594 112.058594 236.0625 112.058594 236.832031 112.828125 C 237.601562 113.601562 237.601562 114.851562 236.832031 115.625 C 236.058594 116.394531 234.808594 116.394531 234.035156 115.625 C 233.265625 114.855469 233.265625 113.601562 234.035156 112.832031 Z M 116.65625 237.945312 C 117.035156 237.5625 117.308594 237.113281 117.476562 236.632812 L 133.695312 236.632812 L 236.59375 133.734375 L 236.59375 117.519531 C 237.070312 117.347656 237.519531 117.078125 237.902344 116.695312 C 239.265625 115.332031 239.265625 113.121094 237.902344 111.757812 C 236.539062 110.394531 234.328125 110.394531 232.964844 111.757812 C 231.601562 113.121094 231.601562 115.332031 232.964844 116.695312 C 233.378906 117.109375 233.867188 117.394531 234.386719 117.558594 L 234.386719 132.824219 L 132.78125 234.429688 L 117.515625 234.429688 C 117.351562 233.910156 117.066406 233.417969 116.65625 233.007812 C 115.292969 231.644531 113.082031 231.644531 111.71875 233.007812 C 110.355469 234.371094 110.355469 236.582031 111.714844 237.945312 C 113.082031 239.308594 115.292969 239.308594 116.65625 237.945312 " fill-opacity="1" fill-rule="nonzero"/></g></g></g></g><g clip-path="url(#1cc91a4fc9)"><g clip-path="url(#681c0916d4)"><g clip-path="url(#f1d8145123)"><g clip-path="url(#d46b3cd64d)"><path fill="#1c6434" d="M 256.949219 182.488281 C 256.179688 183.261719 254.929688 183.261719 254.15625 182.492188 C 253.382812 181.71875 253.386719 180.46875 254.15625 179.695312 C 254.929688 178.925781 256.179688 178.925781 256.949219 179.695312 C 257.722656 180.46875 257.722656 181.71875 256.949219 182.488281 Z M 182.449219 256.992188 C 181.675781 257.761719 180.425781 257.761719 179.65625 256.992188 C 178.882812 256.21875 178.882812 254.96875 179.65625 254.199219 C 180.425781 253.425781 181.675781 253.425781 182.449219 254.199219 C 183.222656 254.96875 183.21875 256.21875 182.449219 256.992188 Z M 253.085938 178.625 C 252.671875 179.035156 252.390625 179.523438 252.226562 180.039062 L 225.761719 180.039062 L 217.527344 188.273438 L 203.589844 188.273438 L 188.234375 203.628906 L 188.234375 217.566406 L 179.996094 225.804688 L 179.996094 252.269531 C 179.480469 252.433594 178.992188 252.714844 178.582031 253.125 C 177.21875 254.488281 177.21875 256.699219 178.582031 258.0625 C 179.945312 259.429688 182.15625 259.425781 183.519531 258.0625 C 184.882812 256.699219 184.886719 254.488281 183.519531 253.125 C 183.136719 252.742188 182.683594 252.46875 182.203125 252.300781 L 182.203125 226.714844 L 190.4375 218.480469 L 190.4375 204.542969 L 204.503906 190.480469 L 218.4375 190.480469 L 226.675781 182.246094 L 252.257812 182.246094 C 252.429688 182.726562 252.699219 183.179688 253.085938 183.5625 C 254.449219 184.925781 256.65625 184.925781 258.023438 183.5625 C 259.386719 182.199219 259.386719 179.988281 258.023438 178.625 C 256.65625 177.261719 254.445312 177.261719 253.085938 178.625 " fill-opacity="1" fill-rule="nonzero"/></g></g></g></g><g clip-path="url(#83b8886293)"><g clip-path="url(#994abcc868)"><g clip-path="url(#f4335083ce)"><g clip-path="url(#3f5838e396)"><path fill="#1c6434" d="M 262.125 140.921875 C 261.355469 141.691406 260.105469 141.691406 259.332031 140.921875 C 258.5625 140.148438 258.558594 138.898438 259.332031 138.125 C 260.101562 137.355469 261.355469 137.355469 262.128906 138.125 C 262.898438 138.898438 262.898438 140.148438 262.125 140.921875 Z M 140.878906 262.167969 C 140.105469 262.941406 138.855469 262.941406 138.085938 262.167969 C 137.3125 261.398438 137.3125 260.144531 138.085938 259.375 C 138.855469 258.601562 140.105469 258.601562 140.878906 259.375 C 141.648438 260.144531 141.648438 261.394531 140.878906 262.167969 Z M 258.261719 137.054688 C 257.878906 137.4375 257.609375 137.886719 257.4375 138.363281 L 241.21875 138.363281 L 138.324219 241.261719 L 138.324219 257.480469 C 137.84375 257.648438 137.394531 257.917969 137.011719 258.300781 C 135.648438 259.664062 135.648438 261.875 137.011719 263.238281 C 138.375 264.601562 140.585938 264.601562 141.949219 263.238281 C 143.3125 261.875 143.3125 259.664062 141.949219 258.300781 C 141.539062 257.890625 141.046875 257.605469 140.527344 257.441406 L 140.527344 242.175781 L 242.132812 140.566406 L 257.398438 140.570312 C 257.5625 141.089844 257.847656 141.578125 258.261719 141.992188 C 259.625 143.355469 261.835938 143.355469 263.199219 141.992188 C 264.5625 140.628906 264.5625 138.417969 263.199219 137.054688 C 261.835938 135.691406 259.625 135.691406 258.261719 137.054688 " fill-opacity="1" fill-rule="nonzero"/></g></g></g></g><g clip-path="url(#304aa96314)"><g clip-path="url(#ac842ae020)"><g clip-path="url(#a3deab0ee2)"><g clip-path="url(#f544a0b2d9)"><path fill="#80cc28" d="M 164.480469 76.839844 C 164.480469 76.839844 139.222656 98.316406 161.679688 111.265625 C 177.296875 105.375 171.769531 94.003906 167.417969 85.792969 C 165.007812 81.253906 164.480469 76.839844 164.480469 76.839844 " fill-opacity="1" fill-rule="nonzero"/></g></g></g></g><g clip-path="url(#1a7c464c33)"><g clip-path="url(#351c656711)"><g clip-path="url(#779c7fc030)"><g clip-path="url(#6d35e5b73e)"><path fill="#80cc28" d="M 120.851562 72.203125 C 120.851562 72.203125 118.179688 105.246094 143.214844 98.523438 C 150.09375 83.316406 138.144531 79.183594 129.257812 76.457031 C 124.347656 74.949219 120.851562 72.203125 120.851562 72.203125 " fill-opacity="1" fill-rule="nonzero"/></g></g></g></g><g clip-path="url(#597effbdc3)"><g clip-path="url(#a577581604)"><g clip-path="url(#21b4b30804)"><g clip-path="url(#90eb860727)"><path fill="#80cc28" d="M 141.128906 100.117188 C 141.128906 100.117188 123.328125 115.667969 139.460938 124.683594 C 150.539062 120.335938 146.492188 112.28125 143.308594 106.46875 C 141.546875 103.257812 141.128906 100.117188 141.128906 100.117188 " fill-opacity="1" fill-rule="nonzero"/></g></g></g></g><g clip-path="url(#d8fa2c0549)"><g clip-path="url(#0421e2d3a0)"><g clip-path="url(#96efa9b85a)"><g clip-path="url(#64ac60d7b7)"><path fill="#1c6434" d="M 163.191406 101.542969 C 162.421875 102.316406 161.171875 102.316406 160.398438 101.542969 C 159.628906 100.773438 159.628906 99.523438 160.398438 98.75 C 161.171875 97.980469 162.421875 97.980469 163.191406 98.75 C 163.964844 99.523438 163.964844 100.773438 163.191406 101.542969 Z M 159.328125 97.679688 C 157.964844 99.042969 157.964844 101.253906 159.328125 102.617188 C 159.738281 103.027344 160.226562 103.3125 160.742188 103.472656 L 160.742188 129.941406 L 168.976562 138.175781 L 168.976562 152.113281 L 179.4375 162.570312 L 180.996094 161.011719 L 171.183594 151.199219 L 171.183594 137.261719 L 162.949219 129.027344 L 162.945312 103.441406 C 163.429688 103.273438 163.882812 103 164.265625 102.617188 C 165.628906 101.253906 165.628906 99.042969 164.265625 97.679688 C 162.902344 96.316406 160.691406 96.316406 159.328125 97.679688 " fill-opacity="1" fill-rule="nonzero"/></g></g></g></g><g clip-path="url(#4c4dbb5876)"><g clip-path="url(#1b6f7e83da)"><g clip-path="url(#d7ea2435bb)"><g clip-path="url(#5e5c2134b9)"><path fill="#1c6434" d="M 134.964844 90.515625 C 135.734375 89.746094 136.984375 89.746094 137.757812 90.515625 C 138.527344 91.285156 138.527344 92.539062 137.757812 93.308594 C 136.984375 94.082031 135.734375 94.082031 134.960938 93.308594 C 134.191406 92.539062 134.191406 91.285156 134.964844 90.515625 Z M 137.792969 95.09375 L 151.695312 108.996094 L 151.695312 134.828125 L 163.84375 146.976562 L 165.402344 145.417969 L 153.898438 133.914062 L 153.898438 108.078125 L 139.417969 93.597656 C 140.148438 92.269531 139.953125 90.570312 138.828125 89.445312 C 137.464844 88.078125 135.253906 88.082031 133.890625 89.441406 C 132.527344 90.808594 132.527344 93.019531 133.890625 94.382812 C 134.945312 95.4375 136.507812 95.671875 137.792969 95.09375 " fill-opacity="1" fill-rule="nonzero"/></g></g></g></g><g clip-path="url(#6311dfb8e0)"><g clip-path="url(#ace96f52a9)"><g clip-path="url(#799f239d9f)"><g clip-path="url(#660af64397)"><path fill="#80cc28" d="M 298.117188 210.476562 C 298.117188 210.476562 276.640625 235.734375 263.691406 213.277344 C 269.582031 197.65625 280.953125 203.1875 289.164062 207.539062 C 293.703125 209.949219 298.117188 210.476562 298.117188 210.476562 " fill-opacity="1" fill-rule="nonzero"/></g></g></g></g><g clip-path="url(#de1c911853)"><g clip-path="url(#4284086aa7)"><g clip-path="url(#22bd86d9c9)"><g clip-path="url(#b26692651f)"><path fill="#80cc28" d="M 302.753906 254.105469 C 302.753906 254.105469 269.707031 256.777344 276.429688 231.742188 C 291.640625 224.863281 295.773438 236.8125 298.5 245.699219 C 300.007812 250.609375 302.753906 254.105469 302.753906 254.105469 " fill-opacity="1" fill-rule="nonzero"/></g></g></g></g><g clip-path="url(#76f1df8e65)"><g clip-path="url(#3c69fc34ca)"><g clip-path="url(#d1f56c5fca)"><g clip-path="url(#605852ddab)"><path fill="#80cc28" d="M 274.839844 233.828125 C 274.839844 233.828125 259.289062 251.625 250.273438 235.496094 C 254.621094 224.417969 262.675781 228.464844 268.488281 231.648438 C 271.699219 233.410156 274.839844 233.828125 274.839844 233.828125 " fill-opacity="1" fill-rule="nonzero"/></g></g></g></g><g clip-path="url(#6f40d07cd4)"><g clip-path="url(#861aca66d4)"><g clip-path="url(#17940f537d)"><g clip-path="url(#5d63eae6e9)"><path fill="#1c6434" d="M 276.207031 211.765625 C 276.976562 212.535156 276.976562 213.785156 276.207031 214.558594 C 275.433594 215.328125 274.183594 215.328125 273.414062 214.558594 C 272.640625 213.785156 272.640625 212.535156 273.414062 211.765625 C 274.183594 210.992188 275.433594 210.992188 276.207031 211.765625 Z M 277.277344 210.691406 C 275.914062 209.328125 273.703125 209.328125 272.339844 210.691406 C 271.953125 211.074219 271.683594 211.527344 271.515625 212.011719 L 245.929688 212.007812 L 237.695312 203.773438 L 223.757812 203.773438 L 213.945312 193.960938 L 212.386719 195.519531 L 222.84375 205.980469 L 236.78125 205.980469 L 245.015625 214.214844 L 271.484375 214.214844 C 271.644531 214.730469 271.929688 215.21875 272.339844 215.628906 C 273.703125 216.992188 275.914062 216.992188 277.277344 215.628906 C 278.640625 214.265625 278.640625 212.054688 277.277344 210.691406 " fill-opacity="1" fill-rule="nonzero"/></g></g></g></g><g clip-path="url(#889cdfdbeb)"><g clip-path="url(#2914234de5)"><g clip-path="url(#1022e94fbe)"><g clip-path="url(#bb2bb47f8d)"><path fill="#1c6434" d="M 281.648438 239.996094 C 280.875 239.222656 280.875 237.972656 281.648438 237.199219 C 282.417969 236.429688 283.667969 236.429688 284.441406 237.199219 C 285.210938 237.972656 285.210938 239.222656 284.441406 239.992188 C 283.671875 240.765625 282.417969 240.765625 281.648438 239.996094 Z M 280.574219 241.066406 C 281.9375 242.429688 284.148438 242.429688 285.515625 241.066406 C 286.875 239.703125 286.878906 237.492188 285.511719 236.128906 C 284.386719 235.003906 282.6875 234.808594 281.359375 235.539062 L 266.878906 221.054688 L 241.039062 221.054688 L 229.539062 209.554688 L 227.980469 211.113281 L 240.128906 223.261719 L 265.960938 223.261719 L 279.863281 237.164062 C 279.285156 238.449219 279.519531 240.011719 280.574219 241.066406 " fill-opacity="1" fill-rule="nonzero"/></g></g></g></g><g clip-path="url(#6e20d9ca95)"><g clip-path="url(#bb5208aa63)"><g clip-path="url(#47d9b00ab1)"><g clip-path="url(#3bc33acc76)"><path fill="#80cc28" d="M 76.800781 164.523438 C 76.800781 164.523438 98.273438 139.265625 111.222656 161.71875 C 105.332031 177.339844 93.960938 171.8125 85.75 167.457031 C 81.210938 165.050781 76.800781 164.523438 76.800781 164.523438 " fill-opacity="1" fill-rule="nonzero"/></g></g></g></g><g clip-path="url(#52ac2681c2)"><g clip-path="url(#073d5c1de2)"><g clip-path="url(#69064cca90)"><g clip-path="url(#95ab3b55c1)"><path fill="#80cc28" d="M 72.160156 120.894531 C 72.160156 120.894531 105.207031 118.222656 98.484375 143.253906 C 83.273438 150.132812 79.140625 138.183594 76.414062 129.300781 C 74.910156 124.386719 72.160156 120.894531 72.160156 120.894531 " fill-opacity="1" fill-rule="nonzero"/></g></g></g></g><g clip-path="url(#a39816b550)"><g clip-path="url(#0ac7ebafcf)"><g clip-path="url(#a5e2c7ed83)"><g clip-path="url(#43f37bdfcf)"><path fill="#80cc28" d="M 100.074219 141.171875 C 100.074219 141.171875 115.625 123.371094 124.640625 139.503906 C 120.292969 150.582031 112.238281 146.53125 106.425781 143.347656 C 103.214844 141.589844 100.074219 141.171875 100.074219 141.171875 " fill-opacity="1" fill-rule="nonzero"/></g></g></g></g><g clip-path="url(#1bc3865635)"><g clip-path="url(#f90d8498d7)"><g clip-path="url(#627aa8ba13)"><g clip-path="url(#752ab265dc)"><path fill="#1c6434" d="M 98.707031 163.234375 C 97.9375 162.464844 97.9375 161.210938 98.710938 160.441406 C 99.480469 159.667969 100.730469 159.667969 101.503906 160.441406 C 102.273438 161.210938 102.273438 162.460938 101.503906 163.234375 C 100.730469 164.003906 99.480469 164.007812 98.707031 163.234375 Z M 97.636719 164.304688 C 99 165.671875 101.210938 165.671875 102.574219 164.308594 C 102.960938 163.921875 103.230469 163.46875 103.398438 162.988281 L 128.984375 162.988281 L 137.21875 171.222656 L 151.15625 171.222656 L 160.96875 181.035156 L 162.527344 179.476562 L 152.070312 169.019531 L 138.132812 169.019531 L 129.898438 160.785156 L 103.433594 160.785156 C 103.269531 160.265625 102.984375 159.777344 102.574219 159.367188 C 101.210938 158.007812 99 158.003906 97.636719 159.367188 C 96.273438 160.734375 96.273438 162.945312 97.636719 164.304688 " fill-opacity="1" fill-rule="nonzero"/></g></g></g></g><g clip-path="url(#12bee86184)"><g clip-path="url(#cd295ec48a)"><g clip-path="url(#f07d57a15a)"><g clip-path="url(#05e047c4d2)"><path fill="#1c6434" d="M 93.269531 135.003906 C 94.039062 135.773438 94.039062 137.027344 93.269531 137.796875 C 92.496094 138.570312 91.246094 138.566406 90.472656 137.796875 C 89.703125 137.027344 89.703125 135.773438 90.472656 135.003906 C 91.246094 134.230469 92.496094 134.234375 93.269531 135.003906 Z M 94.339844 133.933594 C 92.976562 132.566406 90.765625 132.570312 89.402344 133.933594 C 88.039062 135.296875 88.039062 137.507812 89.402344 138.871094 C 90.527344 139.996094 92.226562 140.1875 93.554688 139.457031 L 108.039062 153.941406 L 133.875 153.941406 L 145.375 165.441406 L 146.933594 163.882812 L 134.789062 151.734375 L 108.953125 151.734375 L 95.050781 137.835938 C 95.628906 136.550781 95.394531 134.988281 94.339844 133.933594 " fill-opacity="1" fill-rule="nonzero"/></g></g></g></g><g clip-path="url(#09e1dba3a4)"><g clip-path="url(#876778a21e)"><g clip-path="url(#488916c308)"><g clip-path="url(#46d40cdd43)"><path fill="#80cc28" d="M 210.433594 298.15625 C 210.433594 298.15625 235.691406 276.683594 213.238281 263.734375 C 197.617188 269.625 203.144531 280.996094 207.5 289.207031 C 209.90625 293.746094 210.433594 298.15625 210.433594 298.15625 " fill-opacity="1" fill-rule="nonzero"/></g></g></g></g><g clip-path="url(#77bac54af9)"><g clip-path="url(#f8802e02c9)"><g clip-path="url(#d1e29a2789)"><g clip-path="url(#54a908967b)"><path fill="#80cc28" d="M 254.0625 302.796875 C 254.0625 302.796875 256.734375 269.75 231.703125 276.472656 C 224.824219 291.683594 236.773438 295.816406 245.65625 298.542969 C 250.566406 300.046875 254.0625 302.796875 254.0625 302.796875 " fill-opacity="1" fill-rule="nonzero"/></g></g></g></g><g clip-path="url(#c8646fcac2)"><g clip-path="url(#92d708020d)"><g clip-path="url(#4d6403e001)"><g clip-path="url(#125256ec63)"><path fill="#80cc28" d="M 233.785156 274.882812 C 233.785156 274.882812 251.585938 259.332031 235.453125 250.316406 C 224.375 254.664062 228.425781 262.71875 231.609375 268.53125 C 233.367188 271.742188 233.785156 274.882812 233.785156 274.882812 " fill-opacity="1" fill-rule="nonzero"/></g></g></g></g><g clip-path="url(#d1c6e316c1)"><g clip-path="url(#89a1aab9ad)"><g clip-path="url(#07484bfc3d)"><g clip-path="url(#6f5db877f9)"><path fill="#1c6434" d="M 211.722656 273.453125 C 212.496094 272.683594 213.746094 272.683594 214.515625 273.453125 C 215.289062 274.226562 215.289062 275.476562 214.515625 276.246094 C 213.746094 277.019531 212.492188 277.019531 211.722656 276.246094 C 210.949219 275.476562 210.953125 274.226562 211.722656 273.453125 Z M 215.585938 277.320312 C 216.953125 275.957031 216.949219 273.746094 215.589844 272.382812 C 215.175781 271.972656 214.691406 271.6875 214.171875 271.523438 L 214.171875 245.058594 L 205.9375 236.824219 L 205.9375 222.886719 L 195.480469 212.429688 L 193.921875 213.988281 L 203.734375 223.800781 L 203.734375 237.734375 L 211.96875 245.972656 L 211.96875 271.558594 C 211.488281 271.726562 211.035156 271.996094 210.648438 272.382812 C 209.285156 273.746094 209.285156 275.957031 210.652344 277.320312 C 212.011719 278.683594 214.222656 278.683594 215.585938 277.320312 " fill-opacity="1" fill-rule="nonzero"/></g></g></g></g><g clip-path="url(#8294a7d00e)"><g clip-path="url(#b5b4215e5b)"><g clip-path="url(#0ca9d6d852)"><g clip-path="url(#5dcae97075)"><path fill="#1c6434" d="M 239.953125 284.484375 C 239.179688 285.253906 237.929688 285.253906 237.160156 284.480469 C 236.386719 283.710938 236.386719 282.460938 237.160156 281.6875 C 237.929688 280.917969 239.179688 280.917969 239.953125 281.6875 C 240.722656 282.460938 240.726562 283.710938 239.953125 284.484375 Z M 237.121094 279.90625 L 223.21875 266.003906 L 223.222656 240.167969 L 211.074219 228.023438 L 209.515625 229.582031 L 221.015625 241.082031 L 221.015625 266.917969 L 235.5 281.402344 C 234.769531 282.730469 234.960938 284.429688 236.085938 285.554688 C 237.449219 286.917969 239.660156 286.917969 241.023438 285.554688 C 242.386719 284.191406 242.390625 281.980469 241.023438 280.617188 C 239.96875 279.5625 238.40625 279.328125 237.121094 279.90625 " fill-opacity="1" fill-rule="nonzero"/></g></g></g></g><g clip-path="url(#9c785e8e37)"><g clip-path="url(#9694e87ea3)"><g clip-path="url(#a717236454)"><g clip-path="url(#e4cdaa1e40)"><path fill="#1c6434" d="M 182.449219 118.007812 C 183.21875 118.777344 183.21875 120.027344 182.449219 120.800781 C 181.675781 121.570312 180.425781 121.570312 179.65625 120.800781 C 178.882812 120.027344 178.882812 118.777344 179.65625 118.007812 C 180.425781 117.234375 181.675781 117.234375 182.449219 118.007812 Z M 256.949219 192.507812 C 257.722656 193.28125 257.722656 194.53125 256.949219 195.300781 C 256.179688 196.074219 254.929688 196.074219 254.15625 195.300781 C 253.386719 194.53125 253.382812 193.277344 254.15625 192.507812 C 254.929688 191.734375 256.179688 191.738281 256.949219 192.507812 Z M 178.582031 121.871094 C 178.992188 122.28125 179.480469 122.566406 180 122.730469 L 180 149.195312 L 188.234375 157.429688 L 188.234375 171.367188 L 203.589844 186.722656 L 217.527344 186.722656 L 225.761719 194.957031 L 252.226562 194.957031 C 252.390625 195.476562 252.671875 195.964844 253.085938 196.375 C 254.445312 197.738281 256.65625 197.738281 258.023438 196.375 C 259.386719 195.007812 259.386719 192.800781 258.023438 191.4375 C 256.65625 190.074219 254.449219 190.070312 253.085938 191.4375 C 252.699219 191.820312 252.429688 192.273438 252.257812 192.753906 L 226.675781 192.753906 L 218.4375 184.519531 L 204.503906 184.519531 L 190.4375 170.453125 L 190.4375 156.515625 L 182.203125 148.28125 L 182.203125 122.699219 C 182.683594 122.527344 183.136719 122.257812 183.519531 121.871094 C 184.886719 120.507812 184.882812 118.300781 183.519531 116.933594 C 182.15625 115.570312 179.949219 115.570312 178.582031 116.933594 C 177.21875 118.300781 177.21875 120.507812 178.582031 121.871094 " fill-opacity="1" fill-rule="nonzero"/></g></g></g></g><g clip-path="url(#574113566a)"><g clip-path="url(#8f1ca80522)"><g clip-path="url(#cdf4b1a898)"><g clip-path="url(#87425e5d90)"><path fill="#1c6434" d="M 140.878906 112.832031 C 141.648438 113.601562 141.652344 114.851562 140.878906 115.625 C 140.109375 116.394531 138.855469 116.394531 138.085938 115.625 C 137.3125 114.851562 137.3125 113.601562 138.085938 112.828125 C 138.855469 112.058594 140.105469 112.058594 140.878906 112.832031 Z M 262.125 234.078125 C 262.898438 234.847656 262.898438 236.101562 262.128906 236.871094 C 261.355469 237.644531 260.101562 237.644531 259.332031 236.871094 C 258.558594 236.101562 258.5625 234.847656 259.332031 234.078125 C 260.105469 233.304688 261.355469 233.304688 262.125 234.078125 Z M 137.011719 116.695312 C 137.394531 117.078125 137.84375 117.347656 138.324219 117.519531 L 138.320312 133.734375 L 241.21875 236.636719 L 257.4375 236.632812 C 257.609375 237.113281 257.878906 237.5625 258.261719 237.945312 C 259.625 239.308594 261.835938 239.308594 263.199219 237.945312 C 264.5625 236.582031 264.5625 234.371094 263.199219 233.007812 C 261.835938 231.644531 259.625 231.644531 258.261719 233.007812 C 257.847656 233.417969 257.5625 233.910156 257.398438 234.429688 L 242.132812 234.429688 L 140.527344 132.824219 L 140.527344 117.558594 C 141.046875 117.394531 141.539062 117.109375 141.949219 116.695312 C 143.3125 115.332031 143.3125 113.121094 141.949219 111.757812 C 140.585938 110.394531 138.375 110.394531 137.011719 111.757812 C 135.648438 113.121094 135.648438 115.332031 137.011719 116.695312 " fill-opacity="1" fill-rule="nonzero"/></g></g></g></g><g clip-path="url(#0ecbf84749)"><g clip-path="url(#2543c70387)"><g clip-path="url(#80b08ffb16)"><g clip-path="url(#548ac6184b)"><path fill="#1c6434" d="M 192.464844 256.992188 C 191.695312 256.21875 191.695312 254.96875 192.464844 254.199219 C 193.238281 253.425781 194.488281 253.425781 195.261719 254.199219 C 196.03125 254.96875 196.03125 256.21875 195.261719 256.992188 C 194.488281 257.761719 193.238281 257.765625 192.464844 256.992188 Z M 117.964844 182.492188 C 117.191406 181.71875 117.195312 180.46875 117.964844 179.695312 C 118.738281 178.925781 119.988281 178.925781 120.757812 179.695312 C 121.53125 180.46875 121.53125 181.71875 120.757812 182.488281 C 119.988281 183.261719 118.734375 183.261719 117.964844 182.492188 Z M 196.332031 253.125 C 195.921875 252.714844 195.433594 252.429688 194.917969 252.265625 L 194.917969 225.800781 L 186.683594 217.566406 L 186.683594 203.628906 L 171.328125 188.273438 L 157.390625 188.273438 L 149.15625 180.039062 L 122.6875 180.039062 C 122.523438 179.523438 122.242188 179.035156 121.832031 178.625 C 120.46875 177.261719 118.257812 177.261719 116.894531 178.625 C 115.53125 179.988281 115.53125 182.199219 116.894531 183.5625 C 118.257812 184.925781 120.46875 184.925781 121.832031 183.5625 C 122.214844 183.179688 122.488281 182.726562 122.65625 182.246094 L 148.242188 182.246094 L 156.476562 190.480469 L 170.414062 190.480469 L 184.476562 204.542969 L 184.476562 218.480469 L 192.710938 226.714844 L 192.710938 252.300781 C 192.230469 252.46875 191.777344 252.742188 191.394531 253.125 C 190.03125 254.488281 190.03125 256.699219 191.394531 258.0625 C 192.757812 259.425781 194.96875 259.425781 196.332031 258.0625 C 197.695312 256.699219 197.695312 254.488281 196.332031 253.125 " fill-opacity="1" fill-rule="nonzero"/></g></g></g></g><g clip-path="url(#007916a17b)"><g clip-path="url(#d29c8c10ad)"><g clip-path="url(#3b298db21b)"><g clip-path="url(#df3e54ee58)"><path fill="#1c6434" d="M 234.035156 262.167969 C 233.265625 261.394531 233.265625 260.144531 234.035156 259.375 C 234.808594 258.601562 236.058594 258.601562 236.828125 259.375 C 237.601562 260.144531 237.601562 261.398438 236.832031 262.167969 C 236.058594 262.941406 234.808594 262.9375 234.035156 262.167969 Z M 112.789062 140.921875 C 112.019531 140.148438 112.015625 138.898438 112.789062 138.125 C 113.558594 137.355469 114.8125 137.355469 115.582031 138.125 C 116.355469 138.898438 116.355469 140.148438 115.582031 140.921875 C 114.8125 141.691406 113.558594 141.691406 112.789062 140.921875 Z M 237.902344 258.300781 C 237.519531 257.917969 237.070312 257.648438 236.59375 257.480469 L 236.59375 241.261719 L 133.695312 138.363281 L 117.476562 138.363281 C 117.308594 137.886719 117.035156 137.4375 116.65625 137.054688 C 115.292969 135.691406 113.082031 135.691406 111.714844 137.054688 C 110.351562 138.417969 110.351562 140.628906 111.71875 141.992188 C 113.078125 143.355469 115.292969 143.355469 116.65625 141.992188 C 117.066406 141.578125 117.351562 141.089844 117.515625 140.570312 L 132.78125 140.570312 L 234.386719 242.175781 L 234.386719 257.441406 C 233.867188 257.605469 233.378906 257.890625 232.964844 258.300781 C 231.601562 259.664062 231.601562 261.875 232.964844 263.238281 C 234.328125 264.605469 236.539062 264.605469 237.902344 263.238281 C 239.265625 261.875 239.265625 259.664062 237.902344 258.300781 " fill-opacity="1" fill-rule="nonzero"/></g></g></g></g><g clip-path="url(#8d00a24ef5)"><path fill="#ffffff" d="M 225.324219 187.496094 C 225.324219 177.050781 221.089844 167.59375 214.242188 160.746094 C 207.398438 153.902344 197.941406 149.667969 187.496094 149.667969 C 177.050781 149.667969 167.59375 153.898438 160.746094 160.746094 C 153.902344 167.59375 149.667969 177.050781 149.667969 187.496094 C 149.667969 197.941406 153.898438 207.398438 160.746094 214.242188 C 167.59375 221.089844 177.050781 225.324219 187.496094 225.324219 C 197.941406 225.324219 207.398438 221.089844 214.242188 214.242188 C 221.089844 207.398438 225.324219 197.941406 225.324219 187.496094 Z M 225.324219 187.496094 " fill-opacity="1" fill-rule="evenodd"/></g><path fill="#ffffff" d="M 179.585938 170.710938 L 171.402344 170.710938 C 171.480469 170.40625 171.519531 170.089844 171.519531 169.757812 C 171.519531 169.429688 171.480469 169.109375 171.402344 168.804688 L 179.585938 168.804688 C 180.109375 168.804688 180.535156 169.230469 180.535156 169.757812 C 180.535156 170.28125 180.109375 170.710938 179.585938 170.710938 Z M 203.707031 170.710938 L 195.4375 170.710938 C 194.914062 170.710938 194.484375 170.28125 194.484375 169.757812 C 194.484375 169.234375 194.910156 168.804688 195.4375 168.804688 L 203.707031 168.804688 C 203.625 169.109375 203.578125 169.429688 203.578125 169.757812 C 203.582031 170.089844 203.625 170.410156 203.707031 170.710938 Z M 203.707031 170.710938 " fill-opacity="1" fill-rule="evenodd"/><path fill="#ffffff" d="M 199.027344 190.773438 C 199.027344 197.113281 193.871094 202.273438 187.53125 202.273438 C 181.191406 202.273438 176.035156 197.113281 176.035156 190.773438 C 176.035156 190.542969 176.171875 190.347656 176.371094 190.265625 C 175.296875 189.875 174.230469 189.328125 173.183594 188.636719 L 169.539062 188.636719 L 169.539062 192.914062 L 175.113281 192.914062 C 175.375 192.914062 175.597656 193.097656 175.65625 193.355469 C 175.738281 193.734375 175.835938 194.113281 175.957031 194.480469 C 176.039062 194.730469 175.929688 195 175.707031 195.128906 L 170.882812 197.914062 L 173.023438 201.621094 L 177.851562 198.832031 C 178.078125 198.703125 178.367188 198.746094 178.539062 198.941406 C 178.800781 199.226562 179.078125 199.503906 179.363281 199.765625 C 179.558594 199.9375 179.601562 200.226562 179.472656 200.453125 L 176.683594 205.28125 L 180.390625 207.421875 L 183.175781 202.597656 C 183.304688 202.371094 183.578125 202.265625 183.824219 202.347656 C 184.199219 202.464844 184.578125 202.566406 184.949219 202.648438 C 185.207031 202.703125 185.390625 202.929688 185.390625 203.191406 L 185.390625 208.761719 L 189.667969 208.761719 L 189.667969 203.191406 C 189.667969 202.929688 189.851562 202.707031 190.109375 202.648438 C 190.484375 202.566406 190.867188 202.464844 191.234375 202.347656 C 191.480469 202.269531 191.753906 202.371094 191.882812 202.597656 L 194.671875 207.421875 L 198.378906 205.28125 L 195.589844 200.453125 C 195.460938 200.226562 195.503906 199.9375 195.699219 199.765625 C 195.988281 199.503906 196.265625 199.226562 196.523438 198.941406 C 196.699219 198.746094 196.988281 198.703125 197.210938 198.832031 L 202.039062 201.621094 L 204.179688 197.914062 L 199.351562 195.125 C 199.125 194.996094 199.019531 194.722656 199.097656 194.472656 C 199.21875 194.101562 199.320312 193.722656 199.402344 193.347656 C 199.457031 193.09375 199.683594 192.910156 199.945312 192.910156 L 205.519531 192.910156 L 205.519531 188.628906 L 201.871094 188.628906 C 200.824219 189.324219 199.761719 189.867188 198.683594 190.257812 C 198.886719 190.347656 199.027344 190.546875 199.027344 190.773438 Z M 199.027344 190.773438 " fill-opacity="1" fill-rule="evenodd"/><path fill="#ffffff" d="M 185.816406 189.628906 C 185.15625 190.023438 183.230469 191.011719 180.5 191.011719 C 179.660156 191.011719 178.742188 190.921875 177.765625 190.683594 C 177.53125 190.628906 177.300781 190.566406 177.066406 190.492188 C 177.117188 190.574219 177.144531 190.671875 177.144531 190.773438 C 177.144531 196.5 181.800781 201.160156 187.53125 201.160156 C 193.257812 201.160156 197.917969 196.5 197.917969 190.773438 C 197.917969 190.671875 197.945312 190.574219 197.996094 190.492188 C 197.761719 190.5625 197.53125 190.625 197.300781 190.683594 C 196.320312 190.914062 195.40625 191.011719 194.566406 191.011719 C 191.839844 191.011719 189.90625 190.023438 189.246094 189.628906 C 187.15625 190.753906 187.742188 190.738281 185.816406 189.628906 Z M 185.816406 189.628906 " fill-opacity="1" fill-rule="evenodd"/><path fill="#ffffff" d="M 209.851562 177.730469 L 190.382812 188.972656 C 191.546875 189.519531 193.976562 190.34375 197.0625 189.597656 C 198.507812 189.246094 199.925781 188.613281 201.3125 187.691406 C 201.363281 187.640625 201.425781 187.597656 201.492188 187.566406 C 204.433594 185.558594 207.230469 182.269531 209.851562 177.730469 Z M 209.851562 177.730469 " fill-opacity="1" fill-rule="evenodd"/><path fill="#ffffff" d="M 193.027344 182.199219 C 192.367188 184.445312 191.144531 186 190.042969 187.015625 C 189.972656 187.371094 189.929688 187.691406 189.898438 187.964844 L 209.105469 176.878906 C 201.828125 176.914062 196.492188 178.472656 193.207031 181.507812 C 193.15625 181.742188 193.097656 181.96875 193.027344 182.199219 Z M 193.027344 182.199219 " fill-opacity="1" fill-rule="evenodd"/><path fill="#ffffff" d="M 188.023438 166.222656 L 188.023438 187.167969 C 189.101562 186.472656 191.101562 184.832031 191.96875 181.859375 C 192.039062 181.621094 192.101562 181.378906 192.152344 181.136719 C 192.15625 181.113281 192.160156 181.09375 192.167969 181.070312 C 193.011719 177.03125 191.621094 172.046875 188.023438 166.222656 Z M 188.023438 166.222656 " fill-opacity="1" fill-rule="evenodd"/><path fill="#ffffff" d="M 183.097656 181.886719 C 183.941406 184.746094 185.816406 186.359375 186.910156 187.089844 L 186.910156 166.429688 C 183.410156 172.160156 182.0625 177.070312 182.890625 181.058594 C 182.902344 181.089844 182.90625 181.121094 182.910156 181.152344 C 182.960938 181.402344 183.023438 181.644531 183.097656 181.886719 Z M 183.097656 181.886719 " fill-opacity="1" fill-rule="evenodd"/><path fill="#ffffff" d="M 165.953125 176.878906 L 185.15625 187.964844 C 185.132812 187.691406 185.085938 187.371094 185.011719 187.015625 C 183.910156 186 182.691406 184.445312 182.027344 182.199219 C 181.960938 181.972656 181.902344 181.742188 181.847656 181.507812 C 178.566406 178.472656 173.226562 176.914062 165.953125 176.878906 Z M 165.953125 176.878906 " fill-opacity="1" fill-rule="evenodd"/><path fill="#ffffff" d="M 165.207031 177.730469 C 167.832031 182.269531 170.625 185.558594 173.5625 187.566406 C 173.632812 187.59375 173.691406 187.636719 173.746094 187.691406 C 175.132812 188.609375 176.550781 189.246094 177.992188 189.597656 C 181.082031 190.34375 183.511719 189.519531 184.675781 188.972656 Z M 165.207031 177.730469 " fill-opacity="1" fill-rule="evenodd"/><path fill="#ffffff" d="M 204.847656 169.757812 C 204.847656 171.082031 205.925781 172.160156 207.25 172.160156 C 208.574219 172.160156 209.652344 171.082031 209.652344 169.757812 C 209.652344 168.433594 208.574219 167.355469 207.25 167.355469 C 205.925781 167.355469 204.847656 168.433594 204.847656 169.757812 Z M 204.847656 169.757812 " fill-opacity="1" fill-rule="evenodd"/><path fill="#ffffff" d="M 167.695312 167.203125 C 166.285156 167.203125 165.136719 168.351562 165.136719 169.761719 C 165.136719 171.167969 166.285156 172.316406 167.695312 172.316406 C 169.105469 172.316406 170.25 171.167969 170.25 169.761719 C 170.253906 168.347656 169.105469 167.203125 167.695312 167.203125 Z M 167.695312 167.203125 " fill-opacity="1" fill-rule="evenodd"/><g clip-path="url(#2f811da8db)"><path fill="#9dab2c" d="M 162.53125 215.628906 L 162.238281 215.628906 C 161.757812 215.628906 161.367188 215.242188 161.367188 214.761719 L 161.367188 183.117188 C 161.367188 182.636719 161.757812 182.25 162.238281 182.25 L 162.53125 182.25 C 163.015625 182.25 163.402344 182.636719 163.402344 183.117188 L 163.402344 214.761719 C 163.402344 215.242188 163.015625 215.628906 162.53125 215.628906 " fill-opacity="1" fill-rule="nonzero"/></g><path fill="#9dab2c" d="M 212.921875 190.824219 L 212.921875 183.984375 L 162.320312 183.984375 L 162.320312 190.824219 L 212.921875 190.824219 " fill-opacity="1" fill-rule="nonzero"/><g clip-path="url(#770574f5d0)"><path fill="#9dab2c" d="M 212.707031 215.628906 L 213 215.628906 C 213.480469 215.628906 213.871094 215.242188 213.871094 214.761719 L 213.871094 183.117188 C 213.871094 182.636719 213.480469 182.25 213 182.25 L 212.707031 182.25 C 212.226562 182.25 211.835938 182.636719 211.835938 183.117188 L 211.835938 214.761719 C 211.835938 215.242188 212.226562 215.628906 212.707031 215.628906 " fill-opacity="1" fill-rule="nonzero"/></g><path fill="#9dab2c" d="M 202.449219 184.707031 L 202.449219 177.871094 L 172.789062 177.871094 L 172.789062 184.707031 L 202.449219 184.707031 " fill-opacity="1" fill-rule="nonzero"/><path fill="#e0e0de" d="M 198.152344 207.882812 C 198.152344 207.472656 197.820312 207.140625 197.40625 207.140625 L 177.832031 207.140625 C 177.421875 207.140625 177.085938 207.472656 177.085938 207.882812 C 177.085938 208.289062 177.421875 208.621094 177.832031 208.621094 L 197.40625 208.621094 C 197.820312 208.621094 198.152344 208.289062 198.152344 207.882812 " fill-opacity="1" fill-rule="nonzero"/><path fill="#e0e0de" d="M 194.886719 211.160156 C 194.886719 210.75 194.550781 210.421875 194.140625 210.421875 L 181.097656 210.421875 C 180.6875 210.421875 180.355469 210.75 180.355469 211.160156 C 180.355469 211.570312 180.6875 211.898438 181.097656 211.898438 L 194.140625 211.898438 C 194.550781 211.898438 194.886719 211.570312 194.886719 211.160156 " fill-opacity="1" fill-rule="nonzero"/><g clip-path="url(#f232465b35)"><path fill="#e0e0de" d="M 192.320312 214.4375 C 192.320312 214.03125 191.988281 213.699219 191.578125 213.699219 L 183.660156 213.699219 C 183.25 213.699219 182.917969 214.03125 182.917969 214.4375 C 182.917969 214.847656 183.25 215.179688 183.660156 215.179688 L 191.578125 215.179688 C 191.988281 215.179688 192.320312 214.847656 192.320312 214.4375 " fill-opacity="1" fill-rule="nonzero"/></g><path fill="#ffce00" d="M 165.4375 194.8125 L 159.335938 194.8125 C 159.121094 194.8125 158.945312 194.636719 158.945312 194.425781 L 158.945312 180.382812 C 158.945312 180.171875 159.121094 180 159.335938 180 L 165.4375 180 C 165.652344 180 165.824219 180.171875 165.824219 180.382812 L 165.824219 194.425781 C 165.824219 194.636719 165.652344 194.8125 165.4375 194.8125 " fill-opacity="1" fill-rule="nonzero"/><path fill="#ffce00" d="M 215.96875 194.8125 L 209.871094 194.8125 C 209.65625 194.8125 209.480469 194.636719 209.480469 194.425781 L 209.480469 180.382812 C 209.480469 180.171875 209.65625 180 209.871094 180 L 215.96875 180 C 216.183594 180 216.359375 180.171875 216.359375 180.382812 L 216.359375 194.425781 C 216.359375 194.636719 216.183594 194.8125 215.96875 194.8125 " fill-opacity="1" fill-rule="nonzero"/><g clip-path="url(#7f52a4634a)"><path fill="#ffce00" d="M 166.578125 215.628906 L 158.195312 215.628906 C 158.085938 215.628906 157.996094 215.542969 157.996094 215.433594 L 157.996094 212.78125 C 157.996094 212.671875 158.085938 212.582031 158.195312 212.582031 L 166.578125 212.582031 C 166.6875 212.582031 166.777344 212.671875 166.777344 212.78125 L 166.777344 215.433594 C 166.777344 215.542969 166.6875 215.628906 166.578125 215.628906 " fill-opacity="1" fill-rule="nonzero"/></g><path fill="#ffce00" d="M 164.871094 213.46875 L 159.902344 213.46875 C 159.816406 213.46875 159.746094 213.398438 159.746094 213.316406 L 159.746094 210.574219 C 159.746094 210.488281 159.816406 210.421875 159.902344 210.421875 L 164.871094 210.421875 C 164.957031 210.421875 165.023438 210.488281 165.023438 210.574219 L 165.023438 213.316406 C 165.023438 213.398438 164.957031 213.46875 164.871094 213.46875 " fill-opacity="1" fill-rule="nonzero"/><path fill="#ffce00" d="M 163.832031 211.304688 L 160.9375 211.304688 C 160.875 211.304688 160.820312 211.253906 160.820312 211.1875 L 160.820312 208.375 C 160.820312 208.3125 160.875 208.257812 160.9375 208.257812 L 163.832031 208.257812 C 163.898438 208.257812 163.949219 208.3125 163.949219 208.375 L 163.949219 211.1875 C 163.949219 211.253906 163.898438 211.304688 163.832031 211.304688 " fill-opacity="1" fill-rule="nonzero"/><g clip-path="url(#a36bfcfe8b)"><path fill="#ffce00" d="M 217.046875 215.628906 L 208.660156 215.628906 C 208.550781 215.628906 208.464844 215.542969 208.464844 215.433594 L 208.464844 212.78125 C 208.464844 212.671875 208.550781 212.582031 208.660156 212.582031 L 217.046875 212.582031 C 217.15625 212.582031 217.242188 212.671875 217.242188 212.78125 L 217.242188 215.433594 C 217.242188 215.542969 217.15625 215.628906 217.046875 215.628906 " fill-opacity="1" fill-rule="nonzero"/></g><path fill="#ffce00" d="M 215.339844 213.46875 L 210.367188 213.46875 C 210.285156 213.46875 210.214844 213.398438 210.214844 213.316406 L 210.214844 210.574219 C 210.214844 210.488281 210.285156 210.421875 210.367188 210.421875 L 215.339844 210.421875 C 215.421875 210.421875 215.492188 210.488281 215.492188 210.574219 L 215.492188 213.316406 C 215.492188 213.398438 215.421875 213.46875 215.339844 213.46875 " fill-opacity="1" fill-rule="nonzero"/><path fill="#ffce00" d="M 214.300781 211.304688 L 211.40625 211.304688 C 211.339844 211.304688 211.289062 211.253906 211.289062 211.1875 L 211.289062 208.375 C 211.289062 208.3125 211.339844 208.257812 211.40625 208.257812 L 214.300781 208.257812 C 214.367188 208.257812 214.417969 208.3125 214.417969 208.375 L 214.417969 211.1875 C 214.417969 211.253906 214.367188 211.304688 214.300781 211.304688 " fill-opacity="1" fill-rule="nonzero"/><g clip-path="url(#78a0f99cb1)"><path fill="#d9db27" d="M 205.191406 178.074219 L 205.191406 167.179688 C 205.191406 157.53125 197.324219 149.710938 187.621094 149.710938 C 177.914062 149.710938 170.050781 157.53125 170.050781 167.179688 L 170.050781 178.265625 C 170.050781 179.03125 170.675781 179.652344 171.445312 179.652344 L 203.601562 179.652344 C 204.476562 179.652344 205.191406 178.945312 205.191406 178.074219 " fill-opacity="1" fill-rule="nonzero"/></g><path fill="#ffffff" d="M 181.988281 155.109375 C 181.664062 155.109375 181.359375 154.925781 181.214844 154.617188 C 181.019531 154.195312 181.207031 153.695312 181.632812 153.5 C 183.515625 152.640625 185.53125 152.207031 187.621094 152.207031 C 188.085938 152.207031 188.46875 152.582031 188.46875 153.046875 C 188.46875 153.515625 188.085938 153.890625 187.621094 153.890625 C 185.777344 153.890625 184 154.273438 182.339844 155.03125 C 182.222656 155.085938 182.105469 155.109375 181.988281 155.109375 " fill-opacity="1" fill-rule="nonzero"/><path fill="#ffffff" d="M 192.746094 154.890625 C 192.640625 154.890625 192.53125 154.871094 192.425781 154.828125 C 191.964844 154.640625 191.492188 154.480469 191.011719 154.347656 C 190.5625 154.222656 190.296875 153.757812 190.421875 153.308594 C 190.546875 152.863281 191.015625 152.597656 191.464844 152.722656 C 192.007812 152.871094 192.546875 153.054688 193.066406 153.265625 C 193.5 153.445312 193.707031 153.9375 193.53125 154.367188 C 193.394531 154.691406 193.078125 154.890625 192.746094 154.890625 " fill-opacity="1" fill-rule="nonzero"/><path fill="#d9db27" d="M 170.050781 183.617188 L 170.050781 202.335938 C 170.050781 203.746094 171.199219 204.886719 172.617188 204.886719 L 202.621094 204.886719 C 204.039062 204.886719 205.191406 203.746094 205.191406 202.335938 L 205.191406 183.808594 C 205.191406 182.933594 204.476562 182.226562 203.601562 182.226562 L 171.445312 182.226562 C 170.675781 182.226562 170.050781 182.851562 170.050781 183.617188 " fill-opacity="1" fill-rule="nonzero"/><path fill="#9dab2c" d="M 181.34375 166.859375 C 181.34375 163.414062 184.152344 160.621094 187.621094 160.621094 C 191.085938 160.621094 193.894531 163.414062 193.894531 166.859375 C 193.894531 170.308594 191.085938 173.101562 187.621094 173.101562 C 184.152344 173.101562 181.34375 170.308594 181.34375 166.859375 " fill-opacity="1" fill-rule="nonzero"/><path fill="#404a54" d="M 183.015625 166.859375 C 183.015625 164.332031 185.078125 162.28125 187.621094 162.28125 C 190.164062 162.28125 192.222656 164.332031 192.222656 166.859375 C 192.222656 169.390625 190.164062 171.4375 187.621094 171.4375 C 185.078125 171.4375 183.015625 169.390625 183.015625 166.859375 " fill-opacity="1" fill-rule="nonzero"/><path fill="#ffffff" d="M 187.425781 165.761719 C 187.425781 165.070312 187.992188 164.507812 188.6875 164.507812 C 189.382812 164.507812 189.949219 165.070312 189.949219 165.761719 C 189.949219 166.453125 189.382812 167.015625 188.6875 167.015625 C 187.992188 167.015625 187.425781 166.453125 187.425781 165.761719 " fill-opacity="1" fill-rule="nonzero"/><path fill="#9dab2c" d="M 187.128906 158.328125 C 187.128906 157.882812 187.492188 157.523438 187.941406 157.523438 C 188.386719 157.523438 188.753906 157.882812 188.753906 158.328125 C 188.753906 158.773438 188.386719 159.136719 187.941406 159.136719 C 187.492188 159.136719 187.128906 158.773438 187.128906 158.328125 " fill-opacity="1" fill-rule="nonzero"/><path fill="#9dab2c" d="M 180.765625 158.328125 C 180.765625 157.882812 181.128906 157.523438 181.578125 157.523438 C 182.027344 157.523438 182.390625 157.882812 182.390625 158.328125 C 182.390625 158.773438 182.027344 159.136719 181.578125 159.136719 C 181.128906 159.136719 180.765625 158.773438 180.765625 158.328125 " fill-opacity="1" fill-rule="nonzero"/><path fill="#9dab2c" d="M 174.40625 158.328125 C 174.40625 157.882812 174.769531 157.523438 175.21875 157.523438 C 175.667969 157.523438 176.03125 157.882812 176.03125 158.328125 C 176.03125 158.773438 175.667969 159.136719 175.21875 159.136719 C 174.769531 159.136719 174.40625 158.773438 174.40625 158.328125 " fill-opacity="1" fill-rule="nonzero"/><path fill="#9dab2c" d="M 193.488281 158.328125 C 193.488281 157.882812 193.851562 157.523438 194.300781 157.523438 C 194.75 157.523438 195.113281 157.882812 195.113281 158.328125 C 195.113281 158.773438 194.75 159.136719 194.300781 159.136719 C 193.851562 159.136719 193.488281 158.773438 193.488281 158.328125 " fill-opacity="1" fill-rule="nonzero"/><path fill="#9dab2c" d="M 199.851562 158.328125 C 199.851562 157.882812 200.214844 157.523438 200.664062 157.523438 C 201.109375 157.523438 201.476562 157.882812 201.476562 158.328125 C 201.476562 158.773438 201.109375 159.136719 200.664062 159.136719 C 200.214844 159.136719 199.851562 158.773438 199.851562 158.328125 " fill-opacity="1" fill-rule="nonzero"/><path fill="#9dab2c" d="M 187.128906 200.660156 C 187.128906 200.214844 187.492188 199.855469 187.941406 199.855469 C 188.386719 199.855469 188.753906 200.214844 188.753906 200.660156 C 188.753906 201.109375 188.386719 201.46875 187.941406 201.46875 C 187.492188 201.46875 187.128906 201.109375 187.128906 200.660156 " fill-opacity="1" fill-rule="nonzero"/><path fill="#9dab2c" d="M 180.765625 200.660156 C 180.765625 200.214844 181.128906 199.855469 181.578125 199.855469 C 182.027344 199.855469 182.390625 200.214844 182.390625 200.660156 C 182.390625 201.109375 182.027344 201.46875 181.578125 201.46875 C 181.128906 201.46875 180.765625 201.109375 180.765625 200.660156 " fill-opacity="1" fill-rule="nonzero"/><path fill="#9dab2c" d="M 174.40625 200.660156 C 174.40625 200.214844 174.769531 199.855469 175.21875 199.855469 C 175.667969 199.855469 176.03125 200.214844 176.03125 200.660156 C 176.03125 201.109375 175.667969 201.46875 175.21875 201.46875 C 174.769531 201.46875 174.40625 201.109375 174.40625 200.660156 " fill-opacity="1" fill-rule="nonzero"/><path fill="#9dab2c" d="M 193.488281 200.660156 C 193.488281 200.214844 193.851562 199.855469 194.300781 199.855469 C 194.75 199.855469 195.113281 200.214844 195.113281 200.660156 C 195.113281 201.109375 194.75 201.46875 194.300781 201.46875 C 193.851562 201.46875 193.488281 201.109375 193.488281 200.660156 " fill-opacity="1" fill-rule="nonzero"/><path fill="#9dab2c" d="M 199.851562 200.660156 C 199.851562 200.214844 200.214844 199.855469 200.664062 199.855469 C 201.109375 199.855469 201.476562 200.214844 201.476562 200.660156 C 201.476562 201.109375 201.109375 201.46875 200.664062 201.46875 C 200.214844 201.46875 199.851562 201.109375 199.851562 200.660156 " fill-opacity="1" fill-rule="nonzero"/><path fill="#86acf7" d="M 192.8125 194.957031 L 182.039062 194.957031 C 181.308594 194.957031 180.71875 194.367188 180.71875 193.644531 L 180.71875 189.121094 C 180.71875 188.398438 181.308594 187.808594 182.039062 187.808594 L 192.8125 187.808594 C 193.542969 187.808594 194.136719 188.398438 194.136719 189.121094 L 194.136719 193.644531 C 194.136719 194.367188 193.542969 194.957031 192.8125 194.957031 " fill-opacity="1" fill-rule="nonzero"/><path fill="#ffffff" d="M 174.253906 192.175781 L 173.199219 192.175781 C 173.085938 192.175781 172.992188 192.085938 172.992188 191.972656 L 172.992188 190.792969 C 172.992188 190.679688 173.085938 190.589844 173.199219 190.589844 L 174.253906 190.589844 C 174.367188 190.589844 174.460938 190.679688 174.460938 190.792969 L 174.460938 191.972656 C 174.460938 192.085938 174.367188 192.175781 174.253906 192.175781 " fill-opacity="1" fill-rule="nonzero"/><path fill="#ffffff" d="M 176.9375 192.175781 L 175.882812 192.175781 C 175.769531 192.175781 175.675781 192.085938 175.675781 191.972656 L 175.675781 190.792969 C 175.675781 190.679688 175.769531 190.589844 175.882812 190.589844 L 176.9375 190.589844 C 177.050781 190.589844 177.144531 190.679688 177.144531 190.792969 L 177.144531 191.972656 C 177.144531 192.085938 177.050781 192.175781 176.9375 192.175781 " fill-opacity="1" fill-rule="nonzero"/><path fill="#ffffff" d="M 199.003906 192.175781 L 197.945312 192.175781 C 197.832031 192.175781 197.742188 192.085938 197.742188 191.972656 L 197.742188 190.792969 C 197.742188 190.679688 197.832031 190.589844 197.945312 190.589844 L 199.003906 190.589844 C 199.117188 190.589844 199.207031 190.679688 199.207031 190.792969 L 199.207031 191.972656 C 199.207031 192.085938 199.117188 192.175781 199.003906 192.175781 " fill-opacity="1" fill-rule="nonzero"/><path fill="#ffffff" d="M 201.683594 192.175781 L 200.628906 192.175781 C 200.515625 192.175781 200.421875 192.085938 200.421875 191.972656 L 200.421875 190.792969 C 200.421875 190.679688 200.515625 190.589844 200.628906 190.589844 L 201.683594 190.589844 C 201.796875 190.589844 201.890625 190.679688 201.890625 190.792969 L 201.890625 191.972656 C 201.890625 192.085938 201.796875 192.175781 201.683594 192.175781 " fill-opacity="1" fill-rule="nonzero"/><path fill="#5c91e5" d="M 188.867188 187.808594 L 185.476562 187.808594 L 182.902344 194.957031 L 186.292969 194.957031 L 188.867188 187.808594 " fill-opacity="1" fill-rule="nonzero"/><path fill="#5c91e5" d="M 192.054688 187.808594 L 190.453125 187.808594 L 187.878906 194.957031 L 189.480469 194.957031 L 192.054688 187.808594 " fill-opacity="1" fill-rule="nonzero"/><path fill="#404a54" d="M 187.527344 177.9375 C 185.707031 177.9375 184.007812 176.964844 183.097656 175.394531 C 182.863281 174.992188 183 174.476562 183.40625 174.246094 C 183.8125 174.011719 184.328125 174.148438 184.5625 174.550781 C 185.175781 175.601562 186.3125 176.253906 187.527344 176.253906 C 188.667969 176.253906 189.730469 175.691406 190.367188 174.753906 C 190.628906 174.367188 191.15625 174.265625 191.542969 174.527344 C 191.933594 174.785156 192.035156 175.308594 191.773438 175.695312 C 190.816406 177.101562 189.230469 177.9375 187.527344 177.9375 " fill-opacity="1" fill-rule="nonzero"/><path fill="#9dab2c" d="M 181.984375 188.128906 C 181.664062 188.128906 181.398438 188.390625 181.398438 188.710938 L 181.398438 194.054688 C 181.398438 194.375 181.664062 194.636719 181.984375 194.636719 L 192.867188 194.636719 C 193.191406 194.636719 193.453125 194.375 193.453125 194.054688 L 193.453125 188.710938 C 193.453125 188.390625 193.191406 188.128906 192.867188 188.128906 Z M 192.867188 196.320312 L 181.984375 196.320312 C 180.726562 196.320312 179.703125 195.304688 179.703125 194.054688 L 179.703125 188.710938 C 179.703125 187.460938 180.726562 186.445312 181.984375 186.445312 L 192.867188 186.445312 C 194.125 186.445312 195.148438 187.460938 195.148438 188.710938 L 195.148438 194.054688 C 195.148438 195.304688 194.125 196.320312 192.867188 196.320312 " fill-opacity="1" fill-rule="nonzero"/><path fill="#9dab2c" d="M 175.53125 171.761719 L 175.53125 167.664062 C 175.53125 165.753906 173.96875 164.199219 172.046875 164.199219 L 170.304688 164.199219 C 170.210938 164.75 170.140625 165.3125 170.097656 165.882812 L 172.046875 165.882812 C 173.03125 165.882812 173.835938 166.679688 173.835938 167.664062 L 173.835938 171.761719 C 173.835938 172.742188 173.03125 173.542969 172.046875 173.542969 L 170.050781 173.542969 L 170.050781 175.226562 L 172.046875 175.226562 C 173.96875 175.226562 175.53125 173.671875 175.53125 171.761719 " fill-opacity="1" fill-rule="nonzero"/><path fill="#9dab2c" d="M 203.191406 165.882812 L 205.140625 165.882812 C 205.097656 165.3125 205.03125 164.75 204.933594 164.199219 L 203.191406 164.199219 C 201.273438 164.199219 199.707031 165.753906 199.707031 167.664062 L 199.707031 171.761719 C 199.707031 173.671875 201.273438 175.226562 203.191406 175.226562 L 205.191406 175.226562 L 205.191406 173.542969 L 203.191406 173.542969 C 202.207031 173.542969 201.402344 172.742188 201.402344 171.761719 L 201.402344 167.664062 C 201.402344 166.679688 202.207031 165.882812 203.191406 165.882812 " fill-opacity="1" fill-rule="nonzero"/></svg>